<?xml version="1.0" encoding="UTF-8" standalone="no"?>
<!-- Created with Inkscape (http://www.inkscape.org/) -->

<svg
   xmlns:osb="http://www.openswatchbook.org/uri/2009/osb"
   xmlns:dc="http://purl.org/dc/elements/1.1/"
   xmlns:cc="http://creativecommons.org/ns#"
   xmlns:rdf="http://www.w3.org/1999/02/22-rdf-syntax-ns#"
   xmlns:svg="http://www.w3.org/2000/svg"
   xmlns="http://www.w3.org/2000/svg"
   xmlns:xlink="http://www.w3.org/1999/xlink"
   xmlns:sodipodi="http://sodipodi.sourceforge.net/DTD/sodipodi-0.dtd"
   xmlns:inkscape="http://www.inkscape.org/namespaces/inkscape"
   width="256px"
   height="256px"
   viewBox="0 0 256 256"
   version="1.1"
   id="SVGRoot"
   inkscape:version="0.92.3 (2405546, 2018-03-11)"
   sodipodi:docname="address-book-app.svg">
  <sodipodi:namedview
     id="base"
     pagecolor="#ffffff"
     bordercolor="#666666"
     borderopacity="1.0"
     inkscape:pageopacity="0.0"
     inkscape:pageshadow="2"
     inkscape:zoom="1.4142136"
     inkscape:cx="186.6424"
     inkscape:cy="125.39431"
     inkscape:document-units="px"
     inkscape:current-layer="layer8"
     showgrid="false"
     inkscape:window-width="1299"
     inkscape:window-height="704"
     inkscape:window-x="67"
     inkscape:window-y="27"
     inkscape:window-maximized="1"
     inkscape:grid-bbox="true"
     inkscape:snap-bbox="true"
     inkscape:snap-page="true"
     inkscape:bbox-paths="true"
     inkscape:snap-bbox-edge-midpoints="true"
     inkscape:bbox-nodes="true"
     inkscape:snap-bbox-midpoints="true"
     inkscape:snap-global="true"
     inkscape:snap-smooth-nodes="true"
     inkscape:snap-midpoints="true"
     inkscape:snap-intersection-paths="true"
     inkscape:object-paths="true" />
  <defs
     id="defs848">
    <clipPath
       clipPathUnits="userSpaceOnUse"
       id="clipPath1082-3">
      <path
         sodipodi:nodetypes="sssssssss"
         inkscape:connector-curvature="0"
         id="path1084-6"
         d="M 361.9375,-212 C 507.2348,-212 528,-191.28677 528,-46.125 V 70.125 C 528,215.28618 507.2348,236 361.9375,236 H 214.0625 C 68.7652,236 48,215.28618 48,70.125 V -46.125 C 48,-191.28677 68.7652,-212 214.0625,-212 Z"
         style="display:inline;opacity:1;fill:#8c59d9;fill-opacity:1;stroke:none;stroke-width:2;stroke-linecap:round;stroke-linejoin:round;stroke-miterlimit:4;stroke-dasharray:none;stroke-dashoffset:0;stroke-opacity:1;enable-background:new" />
    </clipPath>
    <clipPath
       clipPathUnits="userSpaceOnUse"
       id="clipPath1025">
      <path
         style="opacity:1;fill:#8c59d9;fill-opacity:1;stroke:none;stroke-width:2;stroke-linecap:round;stroke-linejoin:round;stroke-miterlimit:4;stroke-dasharray:none;stroke-dashoffset:0;stroke-opacity:1"
         d="M 329.9375,32 C 475.2348,32 496,52.71323 496,197.875 v 116.25 C 496,459.28618 475.2348,480 329.9375,480 H 182.0625 C 36.7652,480 16,459.28618 16,314.125 V 197.875 C 16,52.71323 36.7652,32 182.0625,32 Z"
         id="path1027"
         inkscape:connector-curvature="0"
         sodipodi:nodetypes="sssssssss" />
    </clipPath>
    <clipPath
       clipPathUnits="userSpaceOnUse"
       id="clipPath4277-8">
      <rect
         style="color:#000000;display:inline;overflow:visible;visibility:visible;opacity:0.81999972;fill:#88b637;fill-opacity:1;fill-rule:nonzero;stroke:none;stroke-width:2;stroke-linecap:butt;stroke-linejoin:miter;stroke-miterlimit:4;stroke-dasharray:none;stroke-dashoffset:0;stroke-opacity:1;marker:none;enable-background:accumulate"
         id="rect4279-6"
         width="512"
         height="512"
         x="5.5999999e-07"
         y="0"
         ry="1" />
    </clipPath>
    <linearGradient
       id="linearGradient3650-7-9">
      <stop
         style="stop-color:#5884f4;stop-opacity:1"
         offset="0"
         id="stop4366" />
      <stop
         id="stop4368"
         offset="1"
         style="stop-color:#80a3fa;stop-opacity:1" />
    </linearGradient>
    <clipPath
       clipPathUnits="userSpaceOnUse"
       id="clipPath1082-3-3">
      <path
         sodipodi:nodetypes="sssssssss"
         inkscape:connector-curvature="0"
         id="path1084-6-5"
         d="M 361.9375,-212 C 507.2348,-212 528,-191.28677 528,-46.125 V 70.125 C 528,215.28618 507.2348,236 361.9375,236 H 214.0625 C 68.7652,236 48,215.28618 48,70.125 V -46.125 C 48,-191.28677 68.7652,-212 214.0625,-212 Z"
         style="display:inline;opacity:1;fill:#8c59d9;fill-opacity:1;stroke:none;stroke-width:2;stroke-linecap:round;stroke-linejoin:round;stroke-miterlimit:4;stroke-dasharray:none;stroke-dashoffset:0;stroke-opacity:1;enable-background:new" />
    </clipPath>
    <clipPath
       clipPathUnits="userSpaceOnUse"
       id="clipPath1082-3-3-6">
      <path
         sodipodi:nodetypes="sssssssss"
         inkscape:connector-curvature="0"
         id="path1084-6-5-2"
         d="M 361.9375,-212 C 507.2348,-212 528,-191.28677 528,-46.125 V 70.125 C 528,215.28618 507.2348,236 361.9375,236 H 214.0625 C 68.7652,236 48,215.28618 48,70.125 V -46.125 C 48,-191.28677 68.7652,-212 214.0625,-212 Z"
         style="display:inline;opacity:1;fill:#8c59d9;fill-opacity:1;stroke:none;stroke-width:2;stroke-linecap:round;stroke-linejoin:round;stroke-miterlimit:4;stroke-dasharray:none;stroke-dashoffset:0;stroke-opacity:1;enable-background:new" />
    </clipPath>
    <clipPath
       clipPathUnits="userSpaceOnUse"
       id="clipPath1082-3-36">
      <path
         sodipodi:nodetypes="sssssssss"
         inkscape:connector-curvature="0"
         id="path1084-6-7"
         d="M 361.9375,-212 C 507.2348,-212 528,-191.28677 528,-46.125 V 70.125 C 528,215.28618 507.2348,236 361.9375,236 H 214.0625 C 68.7652,236 48,215.28618 48,70.125 V -46.125 C 48,-191.28677 68.7652,-212 214.0625,-212 Z"
         style="display:inline;opacity:1;fill:#8c59d9;fill-opacity:1;stroke:none;stroke-width:2;stroke-linecap:round;stroke-linejoin:round;stroke-miterlimit:4;stroke-dasharray:none;stroke-dashoffset:0;stroke-opacity:1;enable-background:new" />
    </clipPath>
    <linearGradient
       gradientUnits="userSpaceOnUse"
       y2="346.78635"
       x2="-35.763641"
       y1="195.2785"
       x1="529.65515"
       id="linearGradient4226"
       xlink:href="#linearGradient3650-7-9"
       inkscape:collect="always"
       gradientTransform="matrix(0,-0.453125,0.45311204,0,2.0429954,240)" />
    <linearGradient
       id="linearGradient3045">
      <stop
         id="stop3047"
         offset="0"
         style="stop-color:#847784;stop-opacity:0.99607843" />
      <stop
         id="stop3049"
         offset="1"
         style="stop-color:#695f69;stop-opacity:1" />
    </linearGradient>
    <linearGradient
       id="linearGradient4213">
      <stop
         style="stop-color:#b1d7f3;stop-opacity:1"
         offset="0"
         id="stop4215" />
      <stop
         style="stop-color:#8fafda;stop-opacity:1"
         offset="1"
         id="stop4217" />
    </linearGradient>
    <linearGradient
       osb:paint="gradient"
       id="linearGradient5460">
      <stop
         id="stop5462"
         offset="0"
         style="stop-color:#e6e6e6;stop-opacity:1" />
      <stop
         id="stop5464"
         offset="1"
         style="stop-color:#ffffff;stop-opacity:1" />
    </linearGradient>
    <linearGradient
       osb:paint="solid"
       id="linearGradient5476">
      <stop
         id="stop5478"
         offset="0"
         style="stop-color:#772953;stop-opacity:1;" />
    </linearGradient>
    <filter
       color-interpolation-filters="sRGB"
       id="filter4154">
      <feComposite
         operator="arithmetic"
         k4="0"
         result="composite1"
         k1="0"
         k2="1"
         k3="0"
         in2="SourceGraphic"
         id="feComposite4156" />
      <feColorMatrix
         in="composite1"
         result="colormatrix1"
         values="0"
         type="saturate"
         id="feColorMatrix4158" />
      <feFlood
         flood-color="rgb(72,59,72)"
         result="flood1"
         id="feFlood4160" />
      <feBlend
         in="flood1"
         in2="colormatrix1"
         mode="multiply"
         result="blend1"
         id="feBlend4162" />
      <feBlend
         result="blend2"
         in2="blend1"
         mode="screen"
         id="feBlend4164" />
      <feColorMatrix
         in="blend2"
         result="colormatrix2"
         values="1"
         type="saturate"
         id="feColorMatrix4166" />
      <feComposite
         in="colormatrix2"
         in2="SourceGraphic"
         result="composite2"
         operator="in"
         id="feComposite4168" />
    </filter>
    <clipPath
       id="clipPath3062"
       clipPathUnits="userSpaceOnUse">
      <rect
         y="-194.96773"
         x="34.167744"
         height="445.93549"
         width="475.66452"
         id="rect3064"
         style="color:#000000;fill:url(#linearGradient3066);fill-opacity:1;fill-rule:nonzero;stroke:none;stroke-width:40;marker:none;visibility:visible;display:inline;overflow:visible;enable-background:new" />
    </clipPath>
    <linearGradient
       y2="288"
       x2="256"
       y1="50"
       x1="256"
       gradientTransform="matrix(1.8580645,0,0,1.8736786,4.4387126,-288.65166)"
       gradientUnits="userSpaceOnUse"
       id="linearGradient3066"
       xlink:href="#linearGradient3045"
       inkscape:collect="always" />
    <filter
       inkscape:collect="always"
       style="color-interpolation-filters:sRGB"
       id="filter1067"
       x="-0.01363613"
       width="1.0272723"
       y="-0.01071443"
       height="1.0214289">
      <feGaussianBlur
         inkscape:collect="always"
         stdDeviation="1.0000135"
         id="feGaussianBlur1069" />
    </filter>
    <filter
       inkscape:collect="always"
       style="color-interpolation-filters:sRGB"
       id="filter1092"
       x="-0.027272259"
       width="1.0545445"
       y="-0.02142886"
       height="1.0428577">
      <feGaussianBlur
         inkscape:collect="always"
         stdDeviation="2.000027"
         id="feGaussianBlur1094" />
    </filter>
    <clipPath
       id="clipPath1082-3-5"
       clipPathUnits="userSpaceOnUse">
      <path
         style="display:inline;opacity:1;fill:#8c59d9;fill-opacity:1;stroke:none;stroke-width:2;stroke-linecap:round;stroke-linejoin:round;stroke-miterlimit:4;stroke-dasharray:none;stroke-dashoffset:0;stroke-opacity:1;enable-background:new"
         d="M 361.9375,-212 C 507.2348,-212 528,-191.28677 528,-46.125 V 70.125 C 528,215.28618 507.2348,236 361.9375,236 H 214.0625 C 68.7652,236 48,215.28618 48,70.125 V -46.125 C 48,-191.28677 68.7652,-212 214.0625,-212 Z"
         id="path1084-6-3"
         inkscape:connector-curvature="0"
         sodipodi:nodetypes="sssssssss" />
    </clipPath>
    <clipPath
       id="clipPath1025-5"
       clipPathUnits="userSpaceOnUse">
      <path
         sodipodi:nodetypes="sssssssss"
         inkscape:connector-curvature="0"
         id="path1027-62"
         d="M 329.9375,32 C 475.2348,32 496,52.71323 496,197.875 v 116.25 C 496,459.28618 475.2348,480 329.9375,480 H 182.0625 C 36.7652,480 16,459.28618 16,314.125 V 197.875 C 16,52.71323 36.7652,32 182.0625,32 Z"
         style="opacity:1;fill:#8c59d9;fill-opacity:1;stroke:none;stroke-width:2;stroke-linecap:round;stroke-linejoin:round;stroke-miterlimit:4;stroke-dasharray:none;stroke-dashoffset:0;stroke-opacity:1" />
    </clipPath>
    <clipPath
       id="clipPath4277-8-9"
       clipPathUnits="userSpaceOnUse">
      <rect
         ry="1"
         y="0"
         x="5.5999999e-07"
         height="512"
         width="512"
         id="rect4279-6-1"
         style="color:#000000;display:inline;overflow:visible;visibility:visible;opacity:0.81999972;fill:#88b637;fill-opacity:1;fill-rule:nonzero;stroke:none;stroke-width:2;stroke-linecap:butt;stroke-linejoin:miter;stroke-miterlimit:4;stroke-dasharray:none;stroke-dashoffset:0;stroke-opacity:1;marker:none;enable-background:accumulate" />
    </clipPath>
    <clipPath
       id="clipPath1082-3-3-0"
       clipPathUnits="userSpaceOnUse">
      <path
         style="display:inline;opacity:1;fill:#8c59d9;fill-opacity:1;stroke:none;stroke-width:2;stroke-linecap:round;stroke-linejoin:round;stroke-miterlimit:4;stroke-dasharray:none;stroke-dashoffset:0;stroke-opacity:1;enable-background:new"
         d="M 361.9375,-212 C 507.2348,-212 528,-191.28677 528,-46.125 V 70.125 C 528,215.28618 507.2348,236 361.9375,236 H 214.0625 C 68.7652,236 48,215.28618 48,70.125 V -46.125 C 48,-191.28677 68.7652,-212 214.0625,-212 Z"
         id="path1084-6-5-9"
         inkscape:connector-curvature="0"
         sodipodi:nodetypes="sssssssss" />
    </clipPath>
    <clipPath
       id="clipPath1082-3-3-6-3"
       clipPathUnits="userSpaceOnUse">
      <path
         style="display:inline;opacity:1;fill:#8c59d9;fill-opacity:1;stroke:none;stroke-width:2;stroke-linecap:round;stroke-linejoin:round;stroke-miterlimit:4;stroke-dasharray:none;stroke-dashoffset:0;stroke-opacity:1;enable-background:new"
         d="M 361.9375,-212 C 507.2348,-212 528,-191.28677 528,-46.125 V 70.125 C 528,215.28618 507.2348,236 361.9375,236 H 214.0625 C 68.7652,236 48,215.28618 48,70.125 V -46.125 C 48,-191.28677 68.7652,-212 214.0625,-212 Z"
         id="path1084-6-5-2-6"
         inkscape:connector-curvature="0"
         sodipodi:nodetypes="sssssssss" />
    </clipPath>
    <clipPath
       id="clipPath1082-3-36-0"
       clipPathUnits="userSpaceOnUse">
      <path
         style="display:inline;opacity:1;fill:#8c59d9;fill-opacity:1;stroke:none;stroke-width:2;stroke-linecap:round;stroke-linejoin:round;stroke-miterlimit:4;stroke-dasharray:none;stroke-dashoffset:0;stroke-opacity:1;enable-background:new"
         d="M 361.9375,-212 C 507.2348,-212 528,-191.28677 528,-46.125 V 70.125 C 528,215.28618 507.2348,236 361.9375,236 H 214.0625 C 68.7652,236 48,215.28618 48,70.125 V -46.125 C 48,-191.28677 68.7652,-212 214.0625,-212 Z"
         id="path1084-6-7-6"
         inkscape:connector-curvature="0"
         sodipodi:nodetypes="sssssssss" />
    </clipPath>
    <clipPath
       id="clipPath1025-3"
       clipPathUnits="userSpaceOnUse">
      <path
         sodipodi:nodetypes="sssssssss"
         inkscape:connector-curvature="0"
         id="path1027-6"
         d="M 329.9375,32 C 475.2348,32 496,52.71323 496,197.875 v 116.25 C 496,459.28618 475.2348,480 329.9375,480 H 182.0625 C 36.7652,480 16,459.28618 16,314.125 V 197.875 C 16,52.71323 36.7652,32 182.0625,32 Z"
         style="opacity:1;fill:#8c59d9;fill-opacity:1;stroke:none;stroke-width:2;stroke-linecap:round;stroke-linejoin:round;stroke-miterlimit:4;stroke-dasharray:none;stroke-dashoffset:0;stroke-opacity:1" />
    </clipPath>
    <clipPath
       id="clipPath4277-8-7"
       clipPathUnits="userSpaceOnUse">
      <rect
         ry="1"
         y="0"
         x="5.5999999e-07"
         height="512"
         width="512"
         id="rect4279-6-5"
         style="color:#000000;display:inline;overflow:visible;visibility:visible;opacity:0.81999966;fill:#88b637;fill-opacity:1;fill-rule:nonzero;stroke:none;stroke-width:2;stroke-linecap:butt;stroke-linejoin:miter;stroke-miterlimit:4;stroke-dasharray:none;stroke-dashoffset:0;stroke-opacity:1;marker:none;enable-background:accumulate" />
    </clipPath>
    <linearGradient
       spreadMethod="reflect"
       gradientUnits="userSpaceOnUse"
       y2="496"
       x2="448"
       y1="256"
       x1="448"
       id="linearGradient4273"
       xlink:href="#linearGradient4271"
       inkscape:collect="always" />
    <linearGradient
       id="linearGradient4271"
       inkscape:collect="always">
      <stop
         id="stop4267"
         offset="0"
         style="stop-color:#000000;stop-opacity:1;" />
      <stop
         id="stop4269"
         offset="1"
         style="stop-color:#000000;stop-opacity:0;" />
    </linearGradient>
    <linearGradient
       gradientTransform="matrix(0.84848487,0,0,0.94117647,95.030308,0)"
       gradientUnits="userSpaceOnUse"
       y2="544"
       x2="284"
       y1="-34"
       x1="57.714279"
       id="linearGradient4285"
       xlink:href="#linearGradient3650-7-9"
       inkscape:collect="always" />
    <filter
       inkscape:collect="always"
       style="color-interpolation-filters:sRGB"
       id="filter1520"
       x="-0.013638079"
       width="1.0272762"
       y="-0.010713227"
       height="1.0214265">
      <feGaussianBlur
         inkscape:collect="always"
         stdDeviation="0.99990113"
         id="feGaussianBlur1522" />
    </filter>
    <clipPath
       clipPathUnits="userSpaceOnUse"
       id="clipPath1573">
      <path
         style="color:#000000;display:inline;overflow:visible;visibility:visible;fill:url(#linearGradient1577);fill-opacity:1;fill-rule:nonzero;stroke:none;stroke-width:1;marker:none;enable-background:accumulate"
         d="m 78.905295,16.000035 c -35.29672,0 -39.09486,3.62603 -38.92187,38.99414 v 73.005865 73.00585 c -0.17299,35.36812 3.62515,38.99415 38.92187,38.99415 h 98.156245 c 5.87373,0 10.85272,-0.10715 15.10157,-0.4375 3.27288,-0.25448 6.09969,-0.64607 8.54492,-1.23242 0.0766,-0.0184 0.1527,-0.0379 0.22851,-0.0566 0.24272,-0.06 0.47298,-0.12757 0.70899,-0.19141 2.13109,-0.58061 3.96233,-1.32414 5.51562,-2.28515 0.29355,-0.18167 0.57483,-0.37318 0.84961,-0.57032 0.0755,-0.0542 0.15049,-0.10869 0.22461,-0.16406 0.21227,-0.15857 0.41575,-0.32422 0.61719,-0.49219 0.0472,-0.0393 0.0982,-0.0753 0.14453,-0.11523 1.07385,-0.92474 1.98197,-2.00848 2.75781,-3.25586 0.0655,-0.10792 0.13483,-0.21091 0.19922,-0.32031 0.18355,-0.31154 0.35764,-0.63607 0.52539,-0.96875 0.0856,-0.16974 0.17035,-0.34025 0.25195,-0.51563 0.0121,-0.0261 0.0231,-0.0539 0.0352,-0.0801 0.80676,-1.75457 1.41905,-3.79301 1.88086,-6.15625 0.0471,-0.24083 0.0947,-0.48086 0.13867,-0.72851 0.0274,-0.15413 0.0521,-0.31504 0.0781,-0.47267 0.0763,-0.45672 0.14996,-0.92255 0.21679,-1.40233 0.0199,-0.14256 0.0376,-0.28969 0.0566,-0.4336 0.0262,-0.19773 0.0535,-0.39308 0.0781,-0.59571 0.38393,-3.15204 0.58142,-6.83587 0.67969,-11.01562 2.4e-4,-0.0104 -2.5e-4,-0.0208 0,-0.0312 0.0137,-0.57526 0.0334,-1.13112 0.043,-1.72852 0.0292,-1.82144 0.0449,-3.71998 0.0449,-5.74414 V 184.0001 183.57822 128.0001 72.000105 54.994245 c 0,-8.55067 -0.21719,-15.23586 -1.03906,-20.47265 -0.0501,-0.31892 -0.10165,-0.63516 -0.15625,-0.94336 -0.0483,-0.2721 -0.10037,-0.53692 -0.15235,-0.80078 -0.0158,-0.0804 -0.0329,-0.15799 -0.0488,-0.23829 -0.0507,-0.25606 -0.10104,-0.51345 -0.15625,-0.75976 -1.04221,-4.6441 -2.74491,-7.9446 -5.48632,-10.28125 -0.23233,-0.19806 -0.47518,-0.38586 -0.72266,-0.57031 -0.43856,-0.3268 -0.90249,-0.63387 -1.39063,-0.91993 -0.27351,-0.16028 -0.55026,-0.31855 -0.83984,-0.46679 -0.004,-0.002 -0.008,-0.004 -0.0117,-0.006 -1.56326,-0.79763 -3.36939,-1.41989 -5.44531,-1.90625 -0.39846,-0.0934 -0.80571,-0.18213 -1.22461,-0.26563 -2.15727,-0.42972 -4.58618,-0.73363 -7.32617,-0.9414 -4.2093,-0.31919 -9.13191,-0.42188 -14.92188,-0.42188 z"
         id="path1575"
         inkscape:connector-curvature="0" />
    </clipPath>
    <linearGradient
       inkscape:collect="always"
       xlink:href="#linearGradient3650-7-9"
       id="linearGradient1577"
       gradientUnits="userSpaceOnUse"
       gradientTransform="matrix(0,-0.453125,0.45311204,0,2.0208345,239.99972)"
       x1="529.65515"
       y1="195.2785"
       x2="-35.763641"
       y2="346.78635" />
    <clipPath
       clipPathUnits="userSpaceOnUse"
       id="clipPath1573-3">
      <path
         style="color:#000000;display:inline;overflow:visible;visibility:visible;fill:url(#linearGradient1577);fill-opacity:1;fill-rule:nonzero;stroke:none;stroke-width:1;marker:none;enable-background:accumulate"
         d="m 78.905295,16.000035 c -35.29672,0 -39.09486,3.62603 -38.92187,38.99414 v 73.005865 73.00585 c -0.17299,35.36812 3.62515,38.99415 38.92187,38.99415 h 98.156245 c 5.87373,0 10.85272,-0.10715 15.10157,-0.4375 3.27288,-0.25448 6.09969,-0.64607 8.54492,-1.23242 0.0766,-0.0184 0.1527,-0.0379 0.22851,-0.0566 0.24272,-0.06 0.47298,-0.12757 0.70899,-0.19141 2.13109,-0.58061 3.96233,-1.32414 5.51562,-2.28515 0.29355,-0.18167 0.57483,-0.37318 0.84961,-0.57032 0.0755,-0.0542 0.15049,-0.10869 0.22461,-0.16406 0.21227,-0.15857 0.41575,-0.32422 0.61719,-0.49219 0.0472,-0.0393 0.0982,-0.0753 0.14453,-0.11523 1.07385,-0.92474 1.98197,-2.00848 2.75781,-3.25586 0.0655,-0.10792 0.13483,-0.21091 0.19922,-0.32031 0.18355,-0.31154 0.35764,-0.63607 0.52539,-0.96875 0.0856,-0.16974 0.17035,-0.34025 0.25195,-0.51563 0.0121,-0.0261 0.0231,-0.0539 0.0352,-0.0801 0.80676,-1.75457 1.41905,-3.79301 1.88086,-6.15625 0.0471,-0.24083 0.0947,-0.48086 0.13867,-0.72851 0.0274,-0.15413 0.0521,-0.31504 0.0781,-0.47267 0.0763,-0.45672 0.14996,-0.92255 0.21679,-1.40233 0.0199,-0.14256 0.0376,-0.28969 0.0566,-0.4336 0.0262,-0.19773 0.0535,-0.39308 0.0781,-0.59571 0.38393,-3.15204 0.58142,-6.83587 0.67969,-11.01562 2.4e-4,-0.0104 -2.5e-4,-0.0208 0,-0.0312 0.0137,-0.57526 0.0334,-1.13112 0.043,-1.72852 0.0292,-1.82144 0.0449,-3.71998 0.0449,-5.74414 V 184.0001 183.57822 128.0001 72.000105 54.994245 c 0,-8.55067 -0.21719,-15.23586 -1.03906,-20.47265 -0.0501,-0.31892 -0.10165,-0.63516 -0.15625,-0.94336 -0.0483,-0.2721 -0.10037,-0.53692 -0.15235,-0.80078 -0.0158,-0.0804 -0.0329,-0.15799 -0.0488,-0.23829 -0.0507,-0.25606 -0.10104,-0.51345 -0.15625,-0.75976 -1.04221,-4.6441 -2.74491,-7.9446 -5.48632,-10.28125 -0.23233,-0.19806 -0.47518,-0.38586 -0.72266,-0.57031 -0.43856,-0.3268 -0.90249,-0.63387 -1.39063,-0.91993 -0.27351,-0.16028 -0.55026,-0.31855 -0.83984,-0.46679 -0.004,-0.002 -0.008,-0.004 -0.0117,-0.006 -1.56326,-0.79763 -3.36939,-1.41989 -5.44531,-1.90625 -0.39846,-0.0934 -0.80571,-0.18213 -1.22461,-0.26563 -2.15727,-0.42972 -4.58618,-0.73363 -7.32617,-0.9414 -4.2093,-0.31919 -9.13191,-0.42188 -14.92188,-0.42188 z"
         id="path1575-1"
         inkscape:connector-curvature="0" />
    </clipPath>
    <filter
       inkscape:collect="always"
       style="color-interpolation-filters:sRGB"
       id="filter1606"
       x="-0.10910463"
       width="1.2182093"
       y="-0.085705815"
       height="1.1714116">
      <feGaussianBlur
         inkscape:collect="always"
         stdDeviation="7.999209"
         id="feGaussianBlur1608" />
    </filter>
    <clipPath
       clipPathUnits="userSpaceOnUse"
       id="clipPath1658">
      <path
         style="display:inline;opacity:1;fill:#f22c42;fill-opacity:1;stroke:none;stroke-width:2.78100348;stroke-linecap:butt;stroke-linejoin:miter;stroke-miterlimit:4;stroke-dasharray:none;stroke-opacity:1"
         d="m 78.927022,15.999995 c -35.29672,0 -39.09486,3.62602 -38.92187,38.99414 v 73.005855 73.00586 c -0.17299,35.36812 3.62515,38.99414 38.92187,38.99414 h 98.156248 c 5.87373,0 10.85271,-0.10715 15.10156,-0.4375 6.67819,-0.51923 11.51046,-1.60787 14.99805,-3.76563 0.0339,-0.021 0.0641,-0.0452 0.0977,-0.0664 0.25711,-0.16263 0.50918,-0.32964 0.75195,-0.50391 0.0755,-0.0541 0.1505,-0.10872 0.22461,-0.16406 0.0523,-0.0391 0.10061,-0.0816 0.15234,-0.1211 1.34031,-1.02989 2.44961,-2.26693 3.36719,-3.74217 0.0655,-0.10793 0.13483,-0.21092 0.19922,-0.32033 0.27719,-0.47047 0.53578,-0.96527 0.77734,-1.48437 0.0121,-0.0261 0.0231,-0.0539 0.0352,-0.0801 1.08912,-2.36866 1.82604,-5.25369 2.31445,-8.75977 0.0247,-0.17723 0.0469,-0.35954 0.0703,-0.53905 0.0214,-0.16328 0.0442,-0.32349 0.0645,-0.49023 0.38406,-3.15244 0.5814,-6.83516 0.67969,-11.01563 2.4e-4,-0.0104 -2.5e-4,-0.0208 0,-0.0312 0.0136,-0.57525 0.0334,-1.13112 0.043,-1.72852 0.0292,-1.82144 0.0449,-3.71997 0.0449,-5.74414 V 183.57815 128.00003 72.000025 54.994165 c 0,-8.54989 -0.21738,-15.23608 -1.03907,-20.47266 -9.4e-4,-0.006 -0.003,-0.0116 -0.004,-0.0176 -0.0935,-0.59465 -0.19486,-1.16896 -0.30469,-1.72656 -0.5823,-2.95618 -1.39955,-5.40586 -2.54297,-7.42383 -0.2184,-0.38545 -0.44682,-0.75828 -0.68945,-1.11328 -0.70851,-1.03661 -1.52374,-1.94502 -2.45899,-2.74219 -0.54503,-0.46456 -1.13356,-0.88989 -1.76367,-1.28125 -0.11445,-0.0711 -0.23223,-0.14019 -0.34961,-0.20898 -1.65549,-0.97018 -3.60224,-1.71474 -5.89258,-2.28125 -0.1339,-0.0331 -0.26804,-0.0657 -0.40429,-0.0977 -2.45052,-0.57413 -5.27868,-0.9589 -8.55078,-1.20703 -4.2093,-0.3192 -9.13191,-0.42187 -14.92188,-0.42187 z M 200.72976,238.33008 c -0.44042,0.10563 -0.89173,0.20552 -1.35743,0.29881 0.46559,-0.0933 0.91714,-0.19321 1.35743,-0.29881 z"
         id="path1660"
         inkscape:connector-curvature="0" />
    </clipPath>
  </defs>
  <metadata
     id="metadata851">
    <rdf:RDF>
      <cc:Work
         rdf:about="">
        <dc:format>image/svg+xml</dc:format>
        <dc:type
           rdf:resource="http://purl.org/dc/dcmitype/StillImage" />
        <dc:title />
      </cc:Work>
    </rdf:RDF>
  </metadata>
  <g
     id="layer1"
     inkscape:groupmode="layer"
     inkscape:label="Icon">
    <g
       inkscape:groupmode="layer"
       id="layer8"
       inkscape:label="Baseplate"
       style="display:none">
      <text
         y="-36.254883"
         xml:space="preserve"
         x="-4.9931641"
         style="font-style:normal;font-variant:normal;font-weight:normal;font-stretch:normal;font-size:18.66666603px;line-height:0%;font-family:Ubuntu;-inkscape-font-specification:Ubuntu;display:inline;fill:#000000;fill-opacity:1;stroke:none;enable-background:new"
         inkscape:label="context"
         id="context"><tspan
           style="font-style:normal;font-variant:normal;font-weight:normal;font-stretch:normal;font-size:18.66666603px;line-height:1.25;font-family:Ubuntu;-inkscape-font-specification:Ubuntu"
           y="-36.254883"
           x="-4.9931641"
           sodipodi:role="line"
           id="tspan3933">apps</tspan></text>
      <text
         y="-36.254883"
         xml:space="preserve"
         x="122.48828"
         style="font-style:normal;font-variant:normal;font-weight:bold;font-stretch:normal;font-size:18.66666603px;line-height:0%;font-family:Ubuntu;-inkscape-font-specification:'Ubuntu Bold';text-align:start;writing-mode:lr-tb;text-anchor:start;display:inline;fill:#000000;fill-opacity:1;stroke:none;enable-background:new"
         inkscape:label="icon-name"
         id="icon-name"><tspan
           style="font-style:normal;font-variant:normal;font-weight:bold;font-stretch:normal;font-size:18.66666603px;line-height:1.25;font-family:Ubuntu;-inkscape-font-specification:'Ubuntu Bold'"
           y="-36.254883"
           x="122.48828"
           sodipodi:role="line"
           id="tspan3937">address-book-app</tspan></text>
      <rect
         style="display:inline;overflow:visible;visibility:visible;fill:#cdcdcd;fill-opacity:1;fill-rule:nonzero;stroke:none;stroke-width:2;marker:none;enable-background:accumulate"
         id="rect3951"
         width="256"
         height="256"
         x="0"
         y="0"
         inkscape:label="plate" />
    </g>
    <g
       inkscape:groupmode="layer"
       id="layer6"
       inkscape:label="Shadows"
       style="display:inline">
      <path
         style="color:#000000;display:inline;overflow:visible;visibility:visible;opacity:0.2;fill:#000000;fill-opacity:1;fill-rule:nonzero;stroke:none;stroke-width:1;marker:none;filter:url(#filter1092);enable-background:accumulate"
         d="M 78.927022,18 C 43.630301,18 39.832411,21.62542 40.005401,56.99353 V 130 203.00647 C 39.832411,238.37459 43.630301,242 78.927022,242 h 98.156748 c 35.29673,0 38.92163,-3.625 38.92163,-38.99353 V 130 56.99353 C 216.0054,21.62499 212.3805,18 177.08377,18 Z"
         id="rect4158-6-2"
         inkscape:connector-curvature="0"
         sodipodi:nodetypes="scccssscsss" />
      <path
         style="color:#000000;display:inline;overflow:visible;visibility:visible;opacity:0.1;fill:#000000;fill-opacity:1;fill-rule:nonzero;stroke:none;stroke-width:1;marker:none;filter:url(#filter1067);enable-background:accumulate"
         d="m 78.927026,15.999997 c -35.296722,0 -39.094612,3.625418 -38.921622,38.99353 V 128 201.00647 C 39.832414,236.37459 43.630304,240 78.927026,240 h 98.156754 c 35.29672,0 38.92162,-3.625 38.92162,-38.99353 V 128 54.993527 c 0,-35.368533 -3.6249,-38.99353 -38.92162,-38.99353 z"
         id="rect4158-6"
         inkscape:connector-curvature="0"
         sodipodi:nodetypes="scccssscsss" />
    </g>
    <g
       inkscape:groupmode="layer"
       id="layer2"
       inkscape:label="Shape">
      <path
         style="display:inline;opacity:1;fill:#f22c42;fill-opacity:1;stroke:none;stroke-width:2.78100348;stroke-linecap:butt;stroke-linejoin:miter;stroke-miterlimit:4;stroke-dasharray:none;stroke-opacity:1"
         d="M 192.00586,16.421875 V 72 h 24 V 54.994141 c 0,-29.566789 -2.54859,-36.94558 -24,-38.572266 z"
         id="rect1047"
         inkscape:connector-curvature="0" />
      <path
         style="display:inline;opacity:1;fill:#76c22b;fill-opacity:1;stroke:none;stroke-width:2.78100348;stroke-linecap:butt;stroke-linejoin:miter;stroke-miterlimit:4;stroke-dasharray:none;stroke-opacity:1"
         d="m 192.00586,72 v 56 h 24 V 72 Z"
         id="rect1047-3"
         inkscape:connector-curvature="0" />
      <path
         style="display:inline;opacity:1;fill:#fdc92b;fill-opacity:1;stroke:none;stroke-width:2.78100348;stroke-linecap:butt;stroke-linejoin:miter;stroke-miterlimit:4;stroke-dasharray:none;stroke-opacity:1"
         d="m 192.18555,128 v 56 h 23.82031 v -56 z"
         id="rect1047-7"
         inkscape:connector-curvature="0" />
      <path
         style="display:inline;opacity:1;fill:#f1f0e9;fill-opacity:1;stroke:none;stroke-width:2.78100348;stroke-linecap:butt;stroke-linejoin:miter;stroke-miterlimit:4;stroke-dasharray:none;stroke-opacity:1"
         d="m 192.18555,183.57812 v 55.98438 c 21.28355,-1.65479 23.82031,-9.07378 23.82031,-38.55664 v -17.42774 z"
         id="rect1047-5"
         inkscape:connector-curvature="0" />
      <path
         style="color:#000000;display:inline;overflow:visible;visibility:visible;opacity:0.4;fill:#000000;fill-opacity:1;fill-rule:nonzero;stroke:none;stroke-width:1;marker:none;filter:url(#filter1606);enable-background:accumulate"
         d="m 79.927265,16.00001 c -35.29671,0 -39.09486,3.62603 -38.92187,38.99414 V 128 201.00586 C 40.832405,236.37398 44.630555,240 79.927265,240 h 98.156265 c 5.87373,0 10.85272,-0.10715 15.10157,-0.4375 V 184 183.57812 128 h -0.17969 V 72.00001 16.42188 c -4.2093,-0.31919 -9.13191,-0.42187 -14.92188,-0.42187 z m 113.078145,0.42187 c 2.01107,0.15251 3.85461,0.35589 5.54687,0.62305 -1.69126,-0.26701 -3.5369,-0.47063 -5.54687,-0.62305 z m 5.54687,0.62305 c 0.49035,0.0774 0.9627,0.16345 1.42774,0.25195 -0.46491,-0.0885 -0.93751,-0.17455 -1.42774,-0.25195 z M 193.1851,239.5625 c 2.60926,-0.20287 4.93657,-0.49406 7.01172,-0.90039 -2.07667,0.4066 -4.40071,0.69738 -7.01172,0.90039 z m 7.14648,-222.19921 c 0.4189,0.0835 0.82615,0.17225 1.22461,0.26562 -0.39788,-0.0932 -0.80633,-0.18227 -1.22461,-0.26562 z m 1.62891,0.36328 c 0.4075,0.10082 0.80921,0.20606 1.19531,0.31836 -0.38619,-0.11234 -0.78769,-0.2175 -1.19531,-0.31836 z m 1.33984,0.36328 c 1.31528,0.39038 2.50696,0.84962 3.58594,1.39063 -1.07833,-0.54081 -2.27131,-1.00036 -3.58594,-1.39063 z m 3.70117,1.44531 c 0.29388,0.14999 0.57433,0.31019 0.85157,0.47266 -0.27708,-0.16243 -0.55785,-0.32271 -0.85157,-0.47266 z m 1.20117,0.68165 c 0.26112,0.16217 0.51356,0.3314 0.75977,0.50585 -0.24605,-0.1744 -0.4988,-0.34371 -0.75977,-0.50585 z m 1.04102,0.71093 c 0.24748,0.18445 0.49033,0.37225 0.72266,0.57032 -0.2319,-0.19776 -0.47565,-0.38614 -0.72266,-0.57032 z m 0.96875,0.79297 c 0.22988,0.20576 0.45885,0.41244 0.67383,0.63281 -0.21472,-0.22016 -0.44423,-0.42724 -0.67383,-0.63281 z m 0.67383,0.63281 c 0.48267,0.4948 0.9225,1.03499 1.33398,1.60743 -0.41149,-0.57279 -0.85118,-1.11238 -1.33398,-1.60743 z m 1.53906,1.88672 c 0.17123,0.25053 0.33116,0.5137 0.49024,0.7793 -0.15886,-0.26538 -0.31925,-0.52897 -0.49024,-0.7793 z m 0.68945,1.11328 c 0.15159,0.26756 0.29514,0.5454 0.43555,0.82813 -0.14031,-0.28276 -0.28404,-0.56054 -0.43555,-0.82813 z m 0.625,1.21875 c 0.1365,0.29197 0.2688,0.58852 0.39454,0.89649 -0.12548,-0.30754 -0.25833,-0.60491 -0.39454,-0.89649 z m 0.53321,1.25586 c 0.1286,0.33183 0.2558,0.6653 0.37304,1.01563 -0.1172,-0.35053 -0.24447,-0.68362 -0.37304,-1.01563 z m 0.37304,1.01563 c 0.25177,0.75225 0.47284,1.55734 0.67579,2.39844 -0.20274,-0.8413 -0.42421,-1.64603 -0.67579,-2.39844 z m 0.80664,2.93555 c 0.0726,0.32349 0.13877,0.66138 0.20508,0.99804 -0.0662,-0.33672 -0.13256,-0.6745 -0.20508,-0.99804 z m 0.35743,1.79882 c 0.0546,0.3082 0.1062,0.62444 0.15625,0.94336 -0.05,-0.31909 -0.10166,-0.635 -0.15625,-0.94336 z m 0.29101,1.86328 c 0.0482,0.34574 0.0952,0.69283 0.13867,1.05079 -0.0433,-0.35746 -0.0907,-0.70551 -0.13867,-1.05079 z m 0.19336,1.54102 c 0.13067,1.14584 0.24474,2.33883 0.33399,3.61133 -0.089,-1.27322 -0.20353,-2.46488 -0.33399,-3.61133 z m 0.33399,3.61133 c 0.0772,1.10132 0.13089,2.28753 0.18164,3.48828 -0.0505,-1.19748 -0.10481,-2.3897 -0.18164,-3.48828 z m 0.2832,6.69336 c 0.0167,0.68554 0.0376,1.34299 0.0488,2.05859 -0.0111,-0.71247 -0.0322,-1.37593 -0.0488,-2.05859 z m 0.0488,159.46288 c -0.01,0.61053 -0.0291,1.17122 -0.043,1.75977 0.0137,-0.58638 0.0333,-1.15158 0.043,-1.75977 z m -0.15235,5.18945 c -0.10785,2.54079 -0.26463,4.87665 -0.50195,6.98243 0.2365,-2.10448 0.39452,-4.44365 0.50195,-6.98243 z m -0.57031,7.58594 c -0.0427,0.35013 -0.0876,0.69087 -0.13476,1.0293 0.047,-0.33839 0.0922,-0.67921 0.13476,-1.0293 z m -0.26172,1.88672 c -0.0536,0.34425 -0.10904,0.68578 -0.16797,1.01758 0.0588,-0.33199 0.11447,-0.67314 0.16797,-1.01758 z m -0.30078,1.7207 c -0.072,0.36969 -0.1451,0.73984 -0.22461,1.09375 0.0794,-0.35402 0.15272,-0.72393 0.22461,-1.09375 z m -0.26953,1.27735 c -0.21955,0.95318 -0.46422,1.85532 -0.74414,2.69726 0.27982,-0.84251 0.52478,-1.74335 0.74414,-2.69726 z m -0.74414,2.69726 c -0.11713,0.35231 -0.24451,0.68782 -0.37305,1.02149 0.1284,-0.33362 0.25606,-0.66923 0.37305,-1.02149 z M 214.146,228.5 c -0.12487,0.30718 -0.25705,0.60323 -0.39257,0.89453 0.13521,-0.29092 0.26798,-0.58778 0.39257,-0.89453 z m -0.57617,1.2793 c -0.14554,0.29479 -0.29549,0.58295 -0.45312,0.86132 0.15735,-0.27815 0.30784,-0.56678 0.45312,-0.86132 z m -0.59375,1.09961 c -0.17646,0.29956 -0.3552,0.59633 -0.54687,0.87695 0.19164,-0.28078 0.37046,-0.57721 0.54687,-0.87695 z m -0.56445,0.90039 c -0.45029,0.65646 -0.94305,1.26232 -1.48242,1.82031 0.5392,-0.55806 1.03238,-1.16375 1.48242,-1.82031 z m -1.48242,1.82031 c -0.23052,0.23847 -0.47488,0.46406 -0.72266,0.68555 0.2476,-0.22142 0.49233,-0.44716 0.72266,-0.68555 z m -0.91016,0.85547 c -0.24498,0.21101 -0.49975,0.41172 -0.76172,0.60742 0.26132,-0.19533 0.51733,-0.39684 0.76172,-0.60742 z m -0.98633,0.77148 c -0.27478,0.19714 -0.55606,0.38866 -0.84961,0.57032 0.29319,-0.18155 0.57517,-0.37331 0.84961,-0.57032 z m -0.99218,0.6543 c -1.34938,0.81561 -2.89591,1.47617 -4.66993,2.00781 1.7733,-0.53162 3.32141,-1.19226 4.66993,-2.00781 z m -4.78907,2.04492 c -0.41731,0.12299 -0.85045,0.23822 -1.29297,0.34766 0.44262,-0.10949 0.87559,-0.2246 1.29297,-0.34766 z m -1.52148,0.4043 c -0.44042,0.10563 -0.89172,0.20554 -1.35742,0.29883 0.46559,-0.0933 0.91713,-0.19321 1.35742,-0.29883 z"
         id="rect4158-4-2"
         inkscape:connector-curvature="0"
         clip-path="url(#clipPath1658)" />
      <path
         style="color:#000000;display:inline;overflow:visible;visibility:visible;opacity:0.1;fill:#000000;fill-opacity:1;fill-rule:nonzero;stroke:none;stroke-width:1;marker:none;filter:url(#filter1520);enable-background:accumulate"
         d="m 79.927265,16.00001 c -35.29671,0 -39.09486,3.62603 -38.92187,38.99414 V 128 201.00586 C 40.832405,236.37398 44.630555,240 79.927265,240 h 98.156265 c 5.87373,0 10.85272,-0.10715 15.10157,-0.4375 V 184 183.57812 128 h -0.17969 V 72.00001 16.42188 c -4.2093,-0.31919 -9.13191,-0.42187 -14.92188,-0.42187 z m 113.078145,0.42187 c 2.01107,0.15251 3.85461,0.35589 5.54687,0.62305 -1.69126,-0.26701 -3.5369,-0.47063 -5.54687,-0.62305 z m 5.54687,0.62305 c 0.49035,0.0774 0.9627,0.16345 1.42774,0.25195 -0.46491,-0.0885 -0.93751,-0.17455 -1.42774,-0.25195 z M 193.1851,239.5625 c 2.60926,-0.20287 4.93657,-0.49406 7.01172,-0.90039 -2.07667,0.4066 -4.40071,0.69738 -7.01172,0.90039 z m 7.14648,-222.19921 c 0.4189,0.0835 0.82615,0.17225 1.22461,0.26562 -0.39788,-0.0932 -0.80633,-0.18227 -1.22461,-0.26562 z m 1.62891,0.36328 c 0.4075,0.10082 0.80921,0.20606 1.19531,0.31836 -0.38619,-0.11234 -0.78769,-0.2175 -1.19531,-0.31836 z m 1.33984,0.36328 c 1.31528,0.39038 2.50696,0.84962 3.58594,1.39063 -1.07833,-0.54081 -2.27131,-1.00036 -3.58594,-1.39063 z m 3.70117,1.44531 c 0.29388,0.14999 0.57433,0.31019 0.85157,0.47266 -0.27708,-0.16243 -0.55785,-0.32271 -0.85157,-0.47266 z m 1.20117,0.68165 c 0.26112,0.16217 0.51356,0.3314 0.75977,0.50585 -0.24605,-0.1744 -0.4988,-0.34371 -0.75977,-0.50585 z m 1.04102,0.71093 c 0.24748,0.18445 0.49033,0.37225 0.72266,0.57032 -0.2319,-0.19776 -0.47565,-0.38614 -0.72266,-0.57032 z m 0.96875,0.79297 c 0.22988,0.20576 0.45885,0.41244 0.67383,0.63281 -0.21472,-0.22016 -0.44423,-0.42724 -0.67383,-0.63281 z m 0.67383,0.63281 c 0.48267,0.4948 0.9225,1.03499 1.33398,1.60743 -0.41149,-0.57279 -0.85118,-1.11238 -1.33398,-1.60743 z m 1.53906,1.88672 c 0.17123,0.25053 0.33116,0.5137 0.49024,0.7793 -0.15886,-0.26538 -0.31925,-0.52897 -0.49024,-0.7793 z m 0.68945,1.11328 c 0.15159,0.26756 0.29514,0.5454 0.43555,0.82813 -0.14031,-0.28276 -0.28404,-0.56054 -0.43555,-0.82813 z m 0.625,1.21875 c 0.1365,0.29197 0.2688,0.58852 0.39454,0.89649 -0.12548,-0.30754 -0.25833,-0.60491 -0.39454,-0.89649 z m 0.53321,1.25586 c 0.1286,0.33183 0.2558,0.6653 0.37304,1.01563 -0.1172,-0.35053 -0.24447,-0.68362 -0.37304,-1.01563 z m 0.37304,1.01563 c 0.25177,0.75225 0.47284,1.55734 0.67579,2.39844 -0.20274,-0.8413 -0.42421,-1.64603 -0.67579,-2.39844 z m 0.80664,2.93555 c 0.0726,0.32349 0.13877,0.66138 0.20508,0.99804 -0.0662,-0.33672 -0.13256,-0.6745 -0.20508,-0.99804 z m 0.35743,1.79882 c 0.0546,0.3082 0.1062,0.62444 0.15625,0.94336 -0.05,-0.31909 -0.10166,-0.635 -0.15625,-0.94336 z m 0.29101,1.86328 c 0.0482,0.34574 0.0952,0.69283 0.13867,1.05079 -0.0433,-0.35746 -0.0907,-0.70551 -0.13867,-1.05079 z m 0.19336,1.54102 c 0.13067,1.14584 0.24474,2.33883 0.33399,3.61133 -0.089,-1.27322 -0.20353,-2.46488 -0.33399,-3.61133 z m 0.33399,3.61133 c 0.0772,1.10132 0.13089,2.28753 0.18164,3.48828 -0.0505,-1.19748 -0.10481,-2.3897 -0.18164,-3.48828 z m 0.2832,6.69336 c 0.0167,0.68554 0.0376,1.34299 0.0488,2.05859 -0.0111,-0.71247 -0.0322,-1.37593 -0.0488,-2.05859 z m 0.0488,159.46288 c -0.01,0.61053 -0.0291,1.17122 -0.043,1.75977 0.0137,-0.58638 0.0333,-1.15158 0.043,-1.75977 z m -0.15235,5.18945 c -0.10785,2.54079 -0.26463,4.87665 -0.50195,6.98243 0.2365,-2.10448 0.39452,-4.44365 0.50195,-6.98243 z m -0.57031,7.58594 c -0.0427,0.35013 -0.0876,0.69087 -0.13476,1.0293 0.047,-0.33839 0.0922,-0.67921 0.13476,-1.0293 z m -0.26172,1.88672 c -0.0536,0.34425 -0.10904,0.68578 -0.16797,1.01758 0.0588,-0.33199 0.11447,-0.67314 0.16797,-1.01758 z m -0.30078,1.7207 c -0.072,0.36969 -0.1451,0.73984 -0.22461,1.09375 0.0794,-0.35402 0.15272,-0.72393 0.22461,-1.09375 z m -0.26953,1.27735 c -0.21955,0.95318 -0.46422,1.85532 -0.74414,2.69726 0.27982,-0.84251 0.52478,-1.74335 0.74414,-2.69726 z m -0.74414,2.69726 c -0.11713,0.35231 -0.24451,0.68782 -0.37305,1.02149 0.1284,-0.33362 0.25606,-0.66923 0.37305,-1.02149 z M 214.146,228.5 c -0.12487,0.30718 -0.25705,0.60323 -0.39257,0.89453 0.13521,-0.29092 0.26798,-0.58778 0.39257,-0.89453 z m -0.57617,1.2793 c -0.14554,0.29479 -0.29549,0.58295 -0.45312,0.86132 0.15735,-0.27815 0.30784,-0.56678 0.45312,-0.86132 z m -0.59375,1.09961 c -0.17646,0.29956 -0.3552,0.59633 -0.54687,0.87695 0.19164,-0.28078 0.37046,-0.57721 0.54687,-0.87695 z m -0.56445,0.90039 c -0.45029,0.65646 -0.94305,1.26232 -1.48242,1.82031 0.5392,-0.55806 1.03238,-1.16375 1.48242,-1.82031 z m -1.48242,1.82031 c -0.23052,0.23847 -0.47488,0.46406 -0.72266,0.68555 0.2476,-0.22142 0.49233,-0.44716 0.72266,-0.68555 z m -0.91016,0.85547 c -0.24498,0.21101 -0.49975,0.41172 -0.76172,0.60742 0.26132,-0.19533 0.51733,-0.39684 0.76172,-0.60742 z m -0.98633,0.77148 c -0.27478,0.19714 -0.55606,0.38866 -0.84961,0.57032 0.29319,-0.18155 0.57517,-0.37331 0.84961,-0.57032 z m -0.99218,0.6543 c -1.34938,0.81561 -2.89591,1.47617 -4.66993,2.00781 1.7733,-0.53162 3.32141,-1.19226 4.66993,-2.00781 z m -4.78907,2.04492 c -0.41731,0.12299 -0.85045,0.23822 -1.29297,0.34766 0.44262,-0.10949 0.87559,-0.2246 1.29297,-0.34766 z m -1.52148,0.4043 c -0.44042,0.10563 -0.89172,0.20554 -1.35742,0.29883 0.46559,-0.0933 0.91713,-0.19321 1.35742,-0.29883 z"
         id="rect4158-4"
         inkscape:connector-curvature="0"
         clip-path="url(#clipPath1573)" />
      <path
         style="color:#000000;display:inline;overflow:visible;visibility:visible;fill:url(#linearGradient4226);fill-opacity:1;fill-rule:nonzero;stroke:none;stroke-width:1;marker:none;enable-background:accumulate"
         d="M 78.927734,16 C 43.631014,16 39.832869,19.626029 40.005859,54.994141 V 128 201.00586 C 39.832869,236.37398 43.631014,240 78.927734,240 h 98.156246 c 5.87373,0 10.85272,-0.10715 15.10157,-0.4375 V 184 183.57812 128 h -0.17969 V 72 16.421875 C 187.79656,16.102678 182.87395,16 177.08398,16 Z m 113.078126,0.421875 c 2.01107,0.152502 3.85461,0.355891 5.54687,0.623047 -1.69126,-0.267012 -3.5369,-0.470629 -5.54687,-0.623047 z m 5.54687,0.623047 c 0.49035,0.07741 0.9627,0.163449 1.42774,0.251953 -0.46491,-0.08849 -0.93751,-0.174558 -1.42774,-0.251953 z M 192.18555,239.5625 c 2.60926,-0.20287 4.93657,-0.49406 7.01172,-0.90039 -2.07667,0.4066 -4.40071,0.69738 -7.01172,0.90039 z m 7.14648,-222.199219 c 0.4189,0.08346 0.82615,0.172248 1.22461,0.265625 -0.39788,-0.09324 -0.80633,-0.182272 -1.22461,-0.265625 z m 1.62891,0.363281 c 0.4075,0.100821 0.80921,0.206064 1.19531,0.31836 -0.38619,-0.112342 -0.78769,-0.217504 -1.19531,-0.31836 z m 1.33984,0.363282 c 1.31528,0.39038 2.50696,0.849617 3.58594,1.390625 -1.07833,-0.54081 -2.27131,-1.000361 -3.58594,-1.390625 z m 3.70117,1.445312 c 0.29388,0.149983 0.57433,0.310182 0.85157,0.472656 -0.27708,-0.162428 -0.55785,-0.322714 -0.85157,-0.472656 z m 1.20117,0.681641 c 0.26112,0.162178 0.51356,0.331408 0.75977,0.505859 -0.24605,-0.174409 -0.4988,-0.343717 -0.75977,-0.505859 z m 1.04102,0.710937 c 0.24748,0.184452 0.49033,0.372244 0.72266,0.570313 -0.2319,-0.197755 -0.47565,-0.386135 -0.72266,-0.570313 z m 0.96875,0.792969 c 0.22988,0.205756 0.45885,0.412434 0.67383,0.632813 -0.21472,-0.220163 -0.44423,-0.427247 -0.67383,-0.632813 z m 0.67383,0.632813 c 0.48267,0.494794 0.9225,1.034987 1.33398,1.607422 -0.41149,-0.572786 -0.85118,-1.112374 -1.33398,-1.607422 z m 1.53906,1.886718 c 0.17123,0.250526 0.33116,0.513693 0.49024,0.779297 -0.15886,-0.265384 -0.31925,-0.528968 -0.49024,-0.779297 z m 0.68945,1.113282 c 0.15159,0.26756 0.29514,0.545396 0.43555,0.828125 -0.14031,-0.282762 -0.28404,-0.560536 -0.43555,-0.828125 z m 0.625,1.21875 c 0.1365,0.291964 0.2688,0.58852 0.39454,0.896484 -0.12548,-0.307537 -0.25833,-0.604905 -0.39454,-0.896484 z m 0.53321,1.255859 c 0.1286,0.331824 0.2558,0.6653 0.37304,1.015625 -0.1172,-0.350525 -0.24447,-0.683623 -0.37304,-1.015625 z m 0.37304,1.015625 c 0.25177,0.752251 0.47284,1.557339 0.67579,2.398438 -0.20274,-0.841297 -0.42421,-1.64603 -0.67579,-2.398438 z m 0.80664,2.935547 c 0.0726,0.323494 0.13877,0.661386 0.20508,0.998047 -0.0662,-0.33672 -0.13256,-0.674498 -0.20508,-0.998047 z m 0.35743,1.798828 c 0.0546,0.308193 0.1062,0.62444 0.15625,0.943359 -0.05,-0.319092 -0.10166,-0.635003 -0.15625,-0.943359 z m 0.29101,1.863281 c 0.0482,0.345734 0.0952,0.692828 0.13867,1.050782 -0.0433,-0.35746 -0.0907,-0.705507 -0.13867,-1.050782 z m 0.19336,1.541016 c 0.13067,1.145842 0.24474,2.338833 0.33399,3.611328 -0.089,-1.273222 -0.20353,-2.464877 -0.33399,-3.611328 z m 0.33399,3.611328 c 0.0772,1.101323 0.13089,2.287535 0.18164,3.488281 -0.0505,-1.197481 -0.10481,-2.389702 -0.18164,-3.488281 z m 0.2832,6.693359 c 0.0167,0.685539 0.0376,1.34299 0.0488,2.058594 -0.0111,-0.712474 -0.0322,-1.375929 -0.0488,-2.058594 z M 215.96094,206.75 c -0.01,0.61053 -0.0291,1.17122 -0.043,1.75977 0.0137,-0.58638 0.0333,-1.15158 0.043,-1.75977 z m -0.15235,5.18945 c -0.10785,2.54079 -0.26463,4.87665 -0.50195,6.98243 0.2365,-2.10448 0.39452,-4.44365 0.50195,-6.98243 z m -0.57031,7.58594 c -0.0427,0.35013 -0.0876,0.69087 -0.13476,1.0293 0.047,-0.33839 0.0922,-0.67921 0.13476,-1.0293 z m -0.26172,1.88672 c -0.0536,0.34425 -0.10904,0.68578 -0.16797,1.01758 0.0588,-0.33199 0.11447,-0.67314 0.16797,-1.01758 z m -0.30078,1.7207 c -0.072,0.36969 -0.1451,0.73984 -0.22461,1.09375 0.0794,-0.35402 0.15272,-0.72393 0.22461,-1.09375 z m -0.26953,1.27735 c -0.21955,0.95318 -0.46422,1.85532 -0.74414,2.69726 0.27982,-0.84251 0.52478,-1.74335 0.74414,-2.69726 z m -0.74414,2.69726 c -0.11713,0.35231 -0.24451,0.68782 -0.37305,1.02149 0.1284,-0.33362 0.25606,-0.66923 0.37305,-1.02149 z M 213.14648,228.5 c -0.12487,0.30718 -0.25705,0.60323 -0.39257,0.89453 0.13521,-0.29092 0.26798,-0.58778 0.39257,-0.89453 z m -0.57617,1.2793 c -0.14554,0.29479 -0.29549,0.58295 -0.45312,0.86132 0.15735,-0.27815 0.30784,-0.56678 0.45312,-0.86132 z m -0.59375,1.09961 c -0.17646,0.29956 -0.3552,0.59633 -0.54687,0.87695 0.19164,-0.28078 0.37046,-0.57721 0.54687,-0.87695 z m -0.56445,0.90039 c -0.45029,0.65646 -0.94305,1.26232 -1.48242,1.82031 0.5392,-0.55806 1.03238,-1.16375 1.48242,-1.82031 z m -1.48242,1.82031 c -0.23052,0.23847 -0.47488,0.46406 -0.72266,0.68555 0.2476,-0.22142 0.49233,-0.44716 0.72266,-0.68555 z m -0.91016,0.85547 c -0.24498,0.21101 -0.49975,0.41172 -0.76172,0.60742 0.26132,-0.19533 0.51733,-0.39684 0.76172,-0.60742 z m -0.98633,0.77148 c -0.27478,0.19714 -0.55606,0.38866 -0.84961,0.57032 0.29319,-0.18155 0.57517,-0.37331 0.84961,-0.57032 z m -0.99218,0.6543 c -1.34938,0.81561 -2.89591,1.47617 -4.66993,2.00781 1.7733,-0.53162 3.32141,-1.19226 4.66993,-2.00781 z m -4.78907,2.04492 c -0.41731,0.12299 -0.85045,0.23822 -1.29297,0.34766 0.44262,-0.10949 0.87559,-0.2246 1.29297,-0.34766 z m -1.52148,0.4043 c -0.44042,0.10563 -0.89172,0.20554 -1.35742,0.29883 0.46559,-0.0933 0.91713,-0.19321 1.35742,-0.29883 z"
         id="rect4158"
         inkscape:connector-curvature="0" />
    </g>
    <g
       id="layer3"
       inkscape:label="Pictogram"
       style="display:inline"
       inkscape:groupmode="layer">
      <g
         transform="matrix(7.0312467,0,0,7.0312467,-4384.0418,-1480.6159)"
         id="g1044"
         style="display:inline;stroke:#5884f4;stroke-width:0.83333331;enable-background:new">
        <ellipse
           style="opacity:1;fill:none;fill-opacity:1;stroke:#5884f4;stroke-width:0.8888889;stroke-linecap:round;stroke-linejoin:round;stroke-miterlimit:4;stroke-dasharray:none;stroke-dashoffset:1;stroke-opacity:1"
           id="ellipse1040"
           cx="639.94952"
           cy="224.88889"
           rx="3.2828281"
           ry="3.5555556" />
        <path
           style="opacity:1;fill:none;fill-opacity:1;stroke:#5884f4;stroke-width:0.88888896;stroke-linecap:butt;stroke-linejoin:round;stroke-miterlimit:4;stroke-dasharray:none;stroke-dashoffset:1;stroke-opacity:1"
           d="m 633.33333,235.55556 c 0,-3.5 1.66667,-4.44444 6.66667,-4.44444 5,0 6.66667,0.94444 6.66667,4.44444 z"
           id="path1042"
           inkscape:connector-curvature="0"
           sodipodi:nodetypes="csc" />
      </g>
      <g
         style="display:inline;stroke-width:0.83333331;enable-background:new"
         id="g2368"
         transform="matrix(7.0312467,0,0,7.0312467,-4384.0418,-1478.6159)">
        <ellipse
           ry="3.5555556"
           rx="3.2828281"
           cy="224.88889"
           cx="639.94952"
           id="path2350"
           style="opacity:1;fill:none;fill-opacity:1;stroke:#ffffff;stroke-width:0.8888889;stroke-linecap:round;stroke-linejoin:round;stroke-miterlimit:4;stroke-dasharray:none;stroke-dashoffset:1;stroke-opacity:1" />
        <path
           sodipodi:nodetypes="csc"
           inkscape:connector-curvature="0"
           id="rect2352"
           d="m 633.33333,235.55556 c 0,-3.5 1.66667,-4.44444 6.66667,-4.44444 5,0 6.66667,0.94444 6.66667,4.44444 z"
           style="opacity:1;fill:none;fill-opacity:1;stroke:#ffffff;stroke-width:0.88888896;stroke-linecap:butt;stroke-linejoin:round;stroke-miterlimit:4;stroke-dasharray:none;stroke-dashoffset:1;stroke-opacity:1" />
      </g>
    </g>
    <g
       inkscape:groupmode="layer"
       id="layer4"
       inkscape:label="Highlight">
      <path
         style="color:#000000;display:inline;overflow:visible;visibility:visible;opacity:0.6;fill:#ffffff;fill-opacity:1;fill-rule:nonzero;stroke:none;stroke-width:1;marker:none;enable-background:accumulate"
         d="m 78.927276,15.999999 c -35.29673,0 -39.09487,3.626029 -38.92188,38.994141 v 2 c -0.17299,-35.368112 3.62515,-38.994141 38.92188,-38.994141 h 98.156234 c 35.29673,0 38.92188,3.625608 38.92188,38.994141 v -2 c 0,-35.368533 -3.62515,-38.994141 -38.92188,-38.994141 z"
         id="path931"
         inkscape:connector-curvature="0" />
      <path
         style="color:#000000;display:inline;overflow:visible;visibility:visible;opacity:0.2;fill:#000000;fill-opacity:1;fill-rule:nonzero;stroke:none;stroke-width:1;marker:none;enable-background:accumulate"
         d="m 40.005398,199.00586 v 2 C 39.832408,236.37398 43.630558,240 78.927278,240 h 98.158202 c 35.29672,0 38.91992,-3.62561 38.91992,-38.99414 v -2 C 216.0054,234.37439 212.3822,238 177.08548,238 H 78.927278 c -35.29672,0 -39.09488,-3.62602 -38.92188,-38.99414 z"
         id="rect4158-2"
         inkscape:connector-curvature="0" />
    </g>
  </g>
</svg>
