<?xml version="1.0" encoding="UTF-8" standalone="no"?>
<!-- Created with Inkscape (http://www.inkscape.org/) -->

<svg
   xmlns:dc="http://purl.org/dc/elements/1.1/"
   xmlns:cc="http://creativecommons.org/ns#"
   xmlns:rdf="http://www.w3.org/1999/02/22-rdf-syntax-ns#"
   xmlns:svg="http://www.w3.org/2000/svg"
   xmlns="http://www.w3.org/2000/svg"
   xmlns:xlink="http://www.w3.org/1999/xlink"
   xmlns:sodipodi="http://sodipodi.sourceforge.net/DTD/sodipodi-0.dtd"
   xmlns:inkscape="http://www.inkscape.org/namespaces/inkscape"
   width="256px"
   height="256px"
   viewBox="0 0 256 256"
   version="1.1"
   id="SVGRoot"
   inkscape:version="0.92.3 (2405546, 2018-03-11)"
   sodipodi:docname="calculator-app.svg.2019_01_08_12_34_44.0.svg">
  <sodipodi:namedview
     id="base"
     pagecolor="#ffffff"
     bordercolor="#666666"
     borderopacity="1.0"
     inkscape:pageopacity="0.0"
     inkscape:pageshadow="2"
     inkscape:zoom="0.1767767"
     inkscape:cx="-979.14009"
     inkscape:cy="90.007057"
     inkscape:document-units="px"
     inkscape:current-layer="layer7"
     showgrid="false"
     inkscape:window-width="1299"
     inkscape:window-height="704"
     inkscape:window-x="67"
     inkscape:window-y="27"
     inkscape:window-maximized="1"
     inkscape:grid-bbox="true"
     inkscape:snap-bbox="true"
     inkscape:snap-page="true"
     inkscape:bbox-paths="true"
     inkscape:snap-bbox-edge-midpoints="true"
     inkscape:bbox-nodes="true"
     inkscape:snap-bbox-midpoints="true"
     inkscape:snap-global="true" />
  <defs
     id="defs848">
    <clipPath
       clipPathUnits="userSpaceOnUse"
       id="clipPath1082-3">
      <path
         sodipodi:nodetypes="sssssssss"
         inkscape:connector-curvature="0"
         id="path1084-6"
         d="M 361.9375,-212 C 507.2348,-212 528,-191.28677 528,-46.125 V 70.125 C 528,215.28618 507.2348,236 361.9375,236 H 214.0625 C 68.7652,236 48,215.28618 48,70.125 V -46.125 C 48,-191.28677 68.7652,-212 214.0625,-212 Z"
         style="display:inline;opacity:1;fill:#8c59d9;fill-opacity:1;stroke:none;stroke-width:2;stroke-linecap:round;stroke-linejoin:round;stroke-miterlimit:4;stroke-dasharray:none;stroke-dashoffset:0;stroke-opacity:1;enable-background:new" />
    </clipPath>
    <clipPath
       clipPathUnits="userSpaceOnUse"
       id="clipPath1025">
      <path
         style="opacity:1;fill:#8c59d9;fill-opacity:1;stroke:none;stroke-width:2;stroke-linecap:round;stroke-linejoin:round;stroke-miterlimit:4;stroke-dasharray:none;stroke-dashoffset:0;stroke-opacity:1"
         d="M 329.9375,32 C 475.2348,32 496,52.71323 496,197.875 v 116.25 C 496,459.28618 475.2348,480 329.9375,480 H 182.0625 C 36.7652,480 16,459.28618 16,314.125 V 197.875 C 16,52.71323 36.7652,32 182.0625,32 Z"
         id="path1027"
         inkscape:connector-curvature="0"
         sodipodi:nodetypes="sssssssss" />
    </clipPath>
    <clipPath
       clipPathUnits="userSpaceOnUse"
       id="clipPath4277-8">
      <rect
         style="color:#000000;display:inline;overflow:visible;visibility:visible;opacity:0.81999972;fill:#88b637;fill-opacity:1;fill-rule:nonzero;stroke:none;stroke-width:2;stroke-linecap:butt;stroke-linejoin:miter;stroke-miterlimit:4;stroke-dasharray:none;stroke-dashoffset:0;stroke-opacity:1;marker:none;enable-background:accumulate"
         id="rect4279-6"
         width="512"
         height="512"
         x="5.5999999e-07"
         y="0"
         ry="1" />
    </clipPath>
    <linearGradient
       id="linearGradient3650-7-9">
      <stop
         style="stop-color:#5884f4;stop-opacity:1"
         offset="0"
         id="stop4366" />
      <stop
         id="stop4368"
         offset="1"
         style="stop-color:#80a3fa;stop-opacity:1" />
    </linearGradient>
    <clipPath
       clipPathUnits="userSpaceOnUse"
       id="clipPath1082-3-3">
      <path
         sodipodi:nodetypes="sssssssss"
         inkscape:connector-curvature="0"
         id="path1084-6-5"
         d="M 361.9375,-212 C 507.2348,-212 528,-191.28677 528,-46.125 V 70.125 C 528,215.28618 507.2348,236 361.9375,236 H 214.0625 C 68.7652,236 48,215.28618 48,70.125 V -46.125 C 48,-191.28677 68.7652,-212 214.0625,-212 Z"
         style="display:inline;opacity:1;fill:#8c59d9;fill-opacity:1;stroke:none;stroke-width:2;stroke-linecap:round;stroke-linejoin:round;stroke-miterlimit:4;stroke-dasharray:none;stroke-dashoffset:0;stroke-opacity:1;enable-background:new" />
    </clipPath>
    <clipPath
       clipPathUnits="userSpaceOnUse"
       id="clipPath1082-3-3-6">
      <path
         sodipodi:nodetypes="sssssssss"
         inkscape:connector-curvature="0"
         id="path1084-6-5-2"
         d="M 361.9375,-212 C 507.2348,-212 528,-191.28677 528,-46.125 V 70.125 C 528,215.28618 507.2348,236 361.9375,236 H 214.0625 C 68.7652,236 48,215.28618 48,70.125 V -46.125 C 48,-191.28677 68.7652,-212 214.0625,-212 Z"
         style="display:inline;opacity:1;fill:#8c59d9;fill-opacity:1;stroke:none;stroke-width:2;stroke-linecap:round;stroke-linejoin:round;stroke-miterlimit:4;stroke-dasharray:none;stroke-dashoffset:0;stroke-opacity:1;enable-background:new" />
    </clipPath>
    <clipPath
       clipPathUnits="userSpaceOnUse"
       id="clipPath1082-3-36">
      <path
         sodipodi:nodetypes="sssssssss"
         inkscape:connector-curvature="0"
         id="path1084-6-7"
         d="M 361.9375,-212 C 507.2348,-212 528,-191.28677 528,-46.125 V 70.125 C 528,215.28618 507.2348,236 361.9375,236 H 214.0625 C 68.7652,236 48,215.28618 48,70.125 V -46.125 C 48,-191.28677 68.7652,-212 214.0625,-212 Z"
         style="display:inline;opacity:1;fill:#8c59d9;fill-opacity:1;stroke:none;stroke-width:2;stroke-linecap:round;stroke-linejoin:round;stroke-miterlimit:4;stroke-dasharray:none;stroke-dashoffset:0;stroke-opacity:1;enable-background:new" />
    </clipPath>
    <linearGradient
       gradientTransform="translate(36,-28)"
       inkscape:collect="always"
       xlink:href="#linearGradient4273-8"
       id="linearGradient943"
       x1="216"
       y1="28"
       x2="216"
       y2="284"
       gradientUnits="userSpaceOnUse" />
    <linearGradient
       inkscape:collect="always"
       id="linearGradient4273-8">
      <stop
         style="stop-color:#f9af18;stop-opacity:1"
         offset="0"
         id="stop4275-0" />
      <stop
         style="stop-color:#fecf3b;stop-opacity:1"
         offset="1"
         id="stop4277-4" />
    </linearGradient>
    <clipPath
       clipPathUnits="userSpaceOnUse"
       id="clipPath4236">
      <path
         id="path4238"
         d="M 0,0 V 183.89844 328.10156 512 H 512 V 328.10156 183.89844 0 Z"
         style="color:#000000;display:inline;overflow:visible;visibility:visible;fill:#5a7072;fill-opacity:1;fill-rule:nonzero;stroke:none;stroke-width:1;marker:none;enable-background:accumulate"
         inkscape:connector-curvature="0" />
    </clipPath>
    <clipPath
       clipPathUnits="userSpaceOnUse"
       id="clipPath983">
      <path
         id="path985"
         d="M 115.03125,44 C 42.3826,44 32,54.356615 32,126.9375 v 58.125 C 32,257.64309 42.3826,268 115.03125,268 H 152 V 44 Z"
         style="opacity:1;fill:#4d4d4d;fill-opacity:1;stroke:none;stroke-width:2;stroke-linecap:round;stroke-linejoin:round;stroke-miterlimit:4;stroke-dasharray:none;stroke-dashoffset:0;stroke-opacity:1"
         inkscape:connector-curvature="0" />
    </clipPath>
    <linearGradient
       inkscape:collect="always"
       xlink:href="#linearGradient4273-8"
       id="linearGradient953"
       x1="-82.144569"
       y1="0"
       x2="-82.144569"
       y2="256.70709"
       gradientUnits="userSpaceOnUse"
       gradientTransform="translate(-21.06402)" />
    <clipPath
       clipPathUnits="userSpaceOnUse"
       id="clipPath983-6">
      <path
         id="path985-2"
         d="M 115.03125,44 C 42.3826,44 32,54.356615 32,126.9375 v 58.125 C 32,257.64309 42.3826,268 115.03125,268 H 152 V 44 Z"
         style="opacity:1;fill:#4d4d4d;fill-opacity:1;stroke:none;stroke-width:2;stroke-linecap:round;stroke-linejoin:round;stroke-miterlimit:4;stroke-dasharray:none;stroke-dashoffset:0;stroke-opacity:1"
         inkscape:connector-curvature="0" />
    </clipPath>
    <clipPath
       clipPathUnits="userSpaceOnUse"
       id="clipPath922-2">
      <rect
         style="opacity:1;fill:#ffffff;fill-opacity:1;stroke:none;stroke-width:4.28771448;stroke-linecap:butt;stroke-linejoin:miter;stroke-miterlimit:4;stroke-dasharray:none;stroke-opacity:1"
         id="rect924-7"
         width="112.003"
         height="224"
         x="-124.49998"
         y="15.999977" />
    </clipPath>
    <linearGradient
       inkscape:collect="always"
       xlink:href="#linearGradient4273-8"
       id="linearGradient1235"
       gradientUnits="userSpaceOnUse"
       gradientTransform="matrix(-1,0,0,1,14.99957,10e-7)"
       x1="-82.144569"
       y1="0"
       x2="-82.144569"
       y2="256.70709" />
    <clipPath
       clipPathUnits="userSpaceOnUse"
       id="clipPath1296">
      <path
         style="color:#000000;display:inline;overflow:visible;visibility:visible;fill:#4d4d4d;fill-opacity:1;fill-rule:nonzero;stroke:none;stroke-width:1.16666663;marker:none;enable-background:accumulate"
         d="m -212.1523,15.999975 c -41.17951,0 -45.61038,4.229654 -45.40856,45.492452 v 66.507553 66.50755 c -0.20182,41.26281 4.22905,45.49245 45.40856,45.49245 h 133.18289 c 41.17951,0 45.40856,-4.22917 45.40856,-45.49245 V 127.99998 61.492427 c 0,-41.263289 -4.22905,-45.492452 -45.40856,-45.492452 z"
         id="path1298"
         inkscape:connector-curvature="0"
         sodipodi:nodetypes="scccssscsss" />
    </clipPath>
    <clipPath
       clipPathUnits="userSpaceOnUse"
       id="clipPath1377">
      <path
         style="color:#000000;display:inline;overflow:visible;visibility:visible;fill:#4d4d4d;fill-opacity:1;fill-rule:nonzero;stroke:none;stroke-width:1.16666663;marker:none;enable-background:accumulate"
         d="m -489.33741,-78.752311 c -41.17951,0 -45.61038,4.229658 -45.40856,45.492456 v 66.507548 66.50755 c -0.20182,41.262807 4.22905,45.492447 45.40856,45.492447 h 133.18288 c 41.17951,0 45.40856,-4.22917 45.40856,-45.492447 v -66.50755 -66.507548 c 0,-41.263289 -4.22905,-45.492456 -45.40856,-45.492456 z"
         id="path1379"
         inkscape:connector-curvature="0"
         sodipodi:nodetypes="scccssscsss" />
    </clipPath>
    <clipPath
       clipPathUnits="userSpaceOnUse"
       id="clipPath1026">
      <rect
         style="opacity:1;fill:#ed3146;fill-opacity:1;stroke:#ed3146;stroke-width:1.27358997;stroke-linecap:butt;stroke-linejoin:miter;stroke-miterlimit:4;stroke-dasharray:none;stroke-opacity:1"
         id="rect1028"
         width="110.72941"
         height="222.72641"
         x="156.63695"
         y="430.63678" />
    </clipPath>
    <linearGradient
       inkscape:collect="always"
       xlink:href="#linearGradient4273-8"
       id="linearGradient1036"
       x1="207"
       y1="431.5"
       x2="207"
       y2="651.5"
       gradientUnits="userSpaceOnUse" />
    <linearGradient
       inkscape:collect="always"
       xlink:href="#linearGradient4273-8"
       id="linearGradient1102"
       x1="-42.250256"
       y1="449.70502"
       x2="-42.250256"
       y2="672"
       gradientUnits="userSpaceOnUse"
       gradientTransform="translate(-85.801472,-443.99999)" />
    <linearGradient
       inkscape:collect="always"
       xlink:href="#linearGradient4273-8"
       id="linearGradient1144"
       x1="194.58791"
       y1="16.000023"
       x2="194.58791"
       y2="239.99998"
       gradientUnits="userSpaceOnUse" />
    <linearGradient
       inkscape:collect="always"
       xlink:href="#linearGradient4273-8"
       id="linearGradient1224"
       x1="168.29141"
       y1="16.997915"
       x2="168.29141"
       y2="240"
       gradientUnits="userSpaceOnUse"
       gradientTransform="translate(2.0010005)" />
    <linearGradient
       inkscape:collect="always"
       xlink:href="#linearGradient4273-8"
       id="linearGradient1261"
       gradientUnits="userSpaceOnUse"
       gradientTransform="translate(0.0042446)"
       x1="194.58791"
       y1="16.000023"
       x2="194.58791"
       y2="239.99998" />
    <clipPath
       clipPathUnits="userSpaceOnUse"
       id="clipPath1257-0">
      <path
         sodipodi:nodetypes="scccssscsss"
         inkscape:connector-curvature="0"
         id="path1259-9"
         d="m 61.415199,15.999977 c -41.17951,0 -45.61038,4.229654 -45.40856,45.492451 v 66.507552 66.50755 c -0.20182,41.26281 4.22905,45.49245 45.40856,45.49245 H 194.59807 c 41.17952,0 45.40857,-4.22917 45.40857,-45.49245 V 127.99998 61.492428 c 0,-41.263288 -4.22905,-45.492451 -45.40857,-45.492451 z"
         style="color:#000000;display:inline;overflow:visible;visibility:visible;fill:url(#linearGradient1261);fill-opacity:1;fill-rule:nonzero;stroke:none;stroke-width:1.16666663;marker:none;enable-background:accumulate" />
    </clipPath>
    <linearGradient
       inkscape:collect="always"
       xlink:href="#linearGradient4273-8"
       id="linearGradient1326"
       gradientUnits="userSpaceOnUse"
       gradientTransform="matrix(-1,0,0,1,255.99955,0)"
       x1="194.58791"
       y1="16.000023"
       x2="194.58791"
       y2="239.99998" />
    <filter
       inkscape:collect="always"
       style="color-interpolation-filters:sRGB"
       id="filter1357"
       x="-0.017999535"
       width="1.0359991"
       y="-0.0090001163"
       height="1.0180002">
      <feGaussianBlur
         inkscape:collect="always"
         stdDeviation="0.84001086"
         id="feGaussianBlur1359" />
    </filter>
    <filter
       inkscape:collect="always"
       style="color-interpolation-filters:sRGB"
       id="filter1357-0"
       x="-0.035999069"
       width="1.0719981"
       y="-0.018000233"
       height="1.0360005">
      <feGaussianBlur
         inkscape:collect="always"
         stdDeviation="1.6800217"
         id="feGaussianBlur1359-2" />
    </filter>
    <clipPath
       clipPathUnits="userSpaceOnUse"
       id="clipPath1431">
      <path
         style="color:#000000;display:inline;overflow:visible;visibility:visible;fill:#4d4d4d;fill-opacity:1;fill-rule:nonzero;stroke:none;stroke-width:1.16666663;marker:none;enable-background:accumulate"
         d="m -618.58828,-212 c -41.17951,0 -45.61038,4.22966 -45.40856,45.49246 v 66.507555 66.50755 c -0.20182,41.2628099 4.22905,45.49245 45.40856,45.49245 h 133.18289 c 41.17951,0 45.40856,-4.2291701 45.40856,-45.49245 v -66.50755 -66.507555 c 0,-41.26329 -4.22905,-45.49246 -45.40856,-45.49246 z"
         id="path1433"
         inkscape:connector-curvature="0"
         sodipodi:nodetypes="scccssscsss" />
    </clipPath>
    <clipPath
       clipPathUnits="userSpaceOnUse"
       id="clipPath1462">
      <path
         style="color:#000000;display:inline;overflow:visible;visibility:visible;fill:#4d4d4d;fill-opacity:1;fill-rule:nonzero;stroke:none;stroke-width:1.16666663;marker:none;enable-background:accumulate"
         d="m -358.58829,-34 c -41.17951,0 -45.61038,4.229654 -45.40856,45.492452 v 66.507558 66.50755 c -0.20182,41.26281 4.22905,45.49245 45.40856,45.49245 h 133.18289 c 41.17951,0 45.40856,-4.22917 45.40856,-45.49245 V 78.00001 11.492452 C -179.99684,-29.770837 -184.22589,-34 -225.4054,-34 Z"
         id="path1464"
         inkscape:connector-curvature="0"
         sodipodi:nodetypes="scccssscsss" />
    </clipPath>
    <filter
       inkscape:collect="always"
       style="color-interpolation-filters:sRGB"
       id="filter1481"
       x="-0.011999831"
       width="1.0239997"
       y="-0.012000169"
       height="1.0240003">
      <feGaussianBlur
         inkscape:collect="always"
         stdDeviation="1.1200158"
         id="feGaussianBlur1483" />
    </filter>
    <filter
       inkscape:collect="always"
       style="color-interpolation-filters:sRGB"
       id="filter1509"
       x="-0.023999663"
       width="1.0479993"
       y="-0.024000337"
       height="1.0480007">
      <feGaussianBlur
         inkscape:collect="always"
         stdDeviation="2.2400316"
         id="feGaussianBlur1511" />
    </filter>
  </defs>
  <metadata
     id="metadata851">
    <rdf:RDF>
      <cc:Work
         rdf:about="">
        <dc:format>image/svg+xml</dc:format>
        <dc:type
           rdf:resource="http://purl.org/dc/dcmitype/StillImage" />
        <dc:title />
      </cc:Work>
    </rdf:RDF>
  </metadata>
  <g
     id="layer1"
     inkscape:groupmode="layer"
     inkscape:label="Icon">
    <g
       inkscape:groupmode="layer"
       id="layer8"
       inkscape:label="Baseplate"
       style="display:none">
      <text
         y="-36.254883"
         xml:space="preserve"
         x="-4.9931641"
         style="font-style:normal;font-variant:normal;font-weight:normal;font-stretch:normal;font-size:18.66666603px;line-height:0%;font-family:Ubuntu;-inkscape-font-specification:Ubuntu;display:inline;fill:#000000;fill-opacity:1;stroke:none;enable-background:new"
         inkscape:label="context"
         id="context"><tspan
           style="font-style:normal;font-variant:normal;font-weight:normal;font-stretch:normal;font-size:18.66666603px;line-height:1.25;font-family:Ubuntu;-inkscape-font-specification:Ubuntu"
           y="-36.254883"
           x="-4.9931641"
           sodipodi:role="line"
           id="tspan3933">apps</tspan></text>
      <text
         y="-36.254883"
         xml:space="preserve"
         x="122.48828"
         style="font-style:normal;font-variant:normal;font-weight:bold;font-stretch:normal;font-size:18.66666603px;line-height:0%;font-family:Ubuntu;-inkscape-font-specification:'Ubuntu Bold';text-align:start;writing-mode:lr-tb;text-anchor:start;display:inline;fill:#000000;fill-opacity:1;stroke:none;enable-background:new"
         inkscape:label="icon-name"
         id="icon-name"><tspan
           style="font-style:normal;font-variant:normal;font-weight:bold;font-stretch:normal;font-size:18.66666603px;line-height:1.25;font-family:Ubuntu;-inkscape-font-specification:'Ubuntu Bold'"
           y="-36.254883"
           x="122.48828"
           sodipodi:role="line"
           id="tspan3937">calculator-app</tspan></text>
      <rect
         style="display:inline;overflow:visible;visibility:visible;fill:#cdcdcd;fill-opacity:1;fill-rule:nonzero;stroke:none;stroke-width:2;marker:none;enable-background:accumulate"
         id="rect3951"
         width="256"
         height="256"
         x="0"
         y="0"
         inkscape:label="plate" />
    </g>
    <g
       inkscape:groupmode="layer"
       id="layer7"
       inkscape:label="Shadows">
      <path
         style="color:#000000;display:inline;overflow:visible;visibility:visible;opacity:0.2;fill:#000000;fill-opacity:1;fill-rule:nonzero;stroke:none;stroke-width:1.16666663;marker:none;filter:url(#filter1509);enable-background:accumulate"
         d="m 61.411704,17.999984 c -41.17951,0 -45.61038,4.229654 -45.40856,45.492453 V 130 196.50755 C 15.801324,237.77036 20.232194,242 61.411704,242 H 194.59459 c 41.17951,0 45.40856,-4.22917 45.40856,-45.49245 V 130 63.492437 c 0,-41.26329 -4.22905,-45.492453 -45.40856,-45.492453 z"
         id="rect4158-9"
         inkscape:connector-curvature="0"
         sodipodi:nodetypes="scccssscsss"
         inkscape:label="rect4158" />
      <path
         style="color:#000000;display:inline;overflow:visible;visibility:visible;opacity:0.1;fill:#000000;fill-opacity:1;fill-rule:nonzero;stroke:none;stroke-width:1.16666663;marker:none;filter:url(#filter1481);enable-background:accumulate"
         d="m 61.411701,15.999996 c -41.17951,0 -45.61038,4.229654 -45.40856,45.492452 V 128 194.50755 C 15.801321,235.77036 20.232191,240 61.411701,240 H 194.59459 c 41.17951,0 45.40856,-4.22917 45.40856,-45.49245 V 128 61.492448 c 0,-41.263289 -4.22905,-45.492452 -45.40856,-45.492452 z"
         id="rect4158-8"
         inkscape:connector-curvature="0"
         sodipodi:nodetypes="scccssscsss"
         inkscape:label="rect4158" />
    </g>
    <g
       inkscape:groupmode="layer"
       id="layer3"
       inkscape:label="Pictogram"
       style="display:inline">
      <path
         style="color:#000000;display:inline;overflow:visible;visibility:visible;fill:#4d4d4d;fill-opacity:1;fill-rule:nonzero;stroke:none;stroke-width:1.16666663;marker:none;enable-background:accumulate"
         d="m 61.4114,15.999974 c -41.17951,0 -45.61038,4.229654 -45.40856,45.492452 v 66.507554 66.50755 c -0.20182,41.26281 4.22905,45.49245 45.40856,45.49245 h 133.18289 c 41.17951,0 45.40856,-4.22917 45.40856,-45.49245 V 127.99998 61.492426 c 0,-41.263289 -4.22905,-45.492452 -45.40856,-45.492452 z"
         id="rect4158"
         inkscape:connector-curvature="0"
         sodipodi:nodetypes="scccssscsss"
         inkscape:label="rect4158" />
      <path
         style="color:#000000;display:inline;overflow:visible;visibility:visible;opacity:0.1;fill:#ffffff;fill-opacity:1;fill-rule:nonzero;stroke:none;stroke-width:1.16666663;marker:none;enable-background:accumulate"
         clip-path="none"
         d="m 61.41136,239.99998 c -41.17951,0 -45.61003,-4.22939 -45.40821,-45.49219 v -64.50781 h 224 v 64.50781 c 0,41.26329 -4.22869,45.49219 -45.4082,45.49219 z"
         id="rect4158-3"
         inkscape:connector-curvature="0" />
      <path
         style="color:#000000;display:inline;overflow:visible;visibility:visible;opacity:0.2;fill:#000000;fill-opacity:1;fill-rule:nonzero;stroke:none;stroke-width:1.16666663;marker:none;filter:url(#filter1357-0);enable-background:accumulate"
         d="m -225.41232,-33.999973 c 41.17951,0 45.61198,4.22939 45.41016,45.49219 v 66.507807 66.507806 c 0.20182,41.26281 -4.23065,45.49219 -45.41016,45.49219 h -66.58789 V -33.999973 Z"
         id="path1259-92-3"
         inkscape:connector-curvature="0"
         clip-path="url(#clipPath1462)"
         transform="translate(421.00919,49.999985)" />
      <path
         style="color:#000000;display:inline;overflow:visible;visibility:visible;opacity:0.1;fill:#000000;fill-opacity:1;fill-rule:nonzero;stroke:none;stroke-width:1.16666663;marker:none;filter:url(#filter1357);enable-background:accumulate"
         d="m -485.41231,-211.99997 c 41.17951,0 45.61198,4.22939 45.41016,45.49219 v 66.507808 66.507812 c 0.20182,41.2628095 -4.23065,45.49219 -45.41016,45.49219 h -66.58789 v -224 z"
         id="path1259-92"
         inkscape:connector-curvature="0"
         clip-path="url(#clipPath1431)"
         transform="translate(680.00117,227.99998)" />
      <path
         style="color:#000000;display:inline;overflow:visible;visibility:visible;fill:url(#linearGradient1326);fill-opacity:1;fill-rule:nonzero;stroke:none;stroke-width:1.16666663;marker:none;enable-background:accumulate"
         d="m 194.58789,16 c 41.17951,0 45.61198,4.229391 45.41016,45.492188 V 128 194.50781 C 240.19987,235.77062 235.7674,240 194.58789,240 H 128 V 16 Z"
         id="path1259"
         inkscape:connector-curvature="0" />
      <path
         style="color:#000000;display:inline;overflow:visible;visibility:visible;fill:#f2f2f2;fill-opacity:1;fill-rule:nonzero;stroke:none;stroke-width:40;marker:none;enable-background:accumulate"
         d="m 104.00045,176 v -8 H 48.00046 v 8 z"
         id="rect4129"
         inkscape:connector-curvature="0"
         sodipodi:nodetypes="ccccc" />
      <path
         style="color:#000000;display:inline;overflow:visible;visibility:visible;fill:#ffffff;fill-opacity:1;fill-rule:nonzero;stroke:none;stroke-width:40;marker:none;enable-background:accumulate"
         d="m 156.00165,112 v 8 h 56 v -8 z m 0,24 v 8 h 56 v -8 z"
         id="path4242"
         inkscape:connector-curvature="0"
         sodipodi:nodetypes="cccccccccc" />
      <path
         style="color:#000000;display:inline;overflow:visible;visibility:visible;fill:#f2f2f2;fill-opacity:1;fill-rule:nonzero;stroke:none;stroke-width:40;marker:none;enable-background:accumulate"
         d="m 72.00045,55.999999 v 24 h -24 v 8 h 24 V 112 h 8 V 87.999999 h 24 v -8 h -24 v -24 z"
         id="rect4125"
         inkscape:connector-curvature="0"
         sodipodi:nodetypes="ccccccccccccc" />
      <path
         style="color:#000000;display:inline;overflow:visible;visibility:visible;opacity:0.4;fill:#ffffff;fill-opacity:1;fill-rule:nonzero;stroke:none;stroke-width:1.16666663;marker:none;enable-background:accumulate"
         d="m 61.4117,15.999974 c -41.17952,0 -45.61068,4.230367 -45.40886,45.493165 v 2.333332 C 15.80102,22.563675 20.23218,18.333307 61.4117,18.333307 h 133.18229 c 41.17952,0 45.40886,4.229876 45.40886,45.493164 v -2.333332 c 0,-41.263289 -4.22934,-45.493165 -45.40886,-45.493165 z"
         id="path931"
         inkscape:connector-curvature="0"
         sodipodi:nodetypes="sccsscsss" />
      <path
         style="color:#000000;display:inline;overflow:visible;visibility:visible;opacity:0.2;fill:#000000;fill-opacity:1;fill-rule:nonzero;stroke:none;stroke-width:1.16666663;marker:none;enable-background:accumulate"
         d="m 61.41136,239.99998 c -41.17952,0 -45.61068,-4.23037 -45.40886,-45.49317 v -2.33333 c -0.20182,41.2628 4.22934,45.49316 45.40886,45.49316 h 133.18228 c 41.17952,0 45.40886,-4.22987 45.40886,-45.49316 v 2.33333 c 0,41.26329 -4.22934,45.49317 -45.40886,45.49317 z"
         id="path931-7"
         inkscape:connector-curvature="0"
         sodipodi:nodetypes="sccsscsss" />
    </g>
  </g>
</svg>
