<?xml version="1.0" encoding="UTF-8" standalone="no"?>
<!-- Created with Inkscape (http://www.inkscape.org/) -->

<svg
   xmlns:osb="http://www.openswatchbook.org/uri/2009/osb"
   xmlns:dc="http://purl.org/dc/elements/1.1/"
   xmlns:cc="http://creativecommons.org/ns#"
   xmlns:rdf="http://www.w3.org/1999/02/22-rdf-syntax-ns#"
   xmlns:svg="http://www.w3.org/2000/svg"
   xmlns="http://www.w3.org/2000/svg"
   xmlns:xlink="http://www.w3.org/1999/xlink"
   xmlns:sodipodi="http://sodipodi.sourceforge.net/DTD/sodipodi-0.dtd"
   xmlns:inkscape="http://www.inkscape.org/namespaces/inkscape"
   width="256px"
   height="256px"
   viewBox="0 0 256 256"
   version="1.1"
   id="SVGRoot"
   inkscape:version="0.92.3 (2405546, 2018-03-11)"
   sodipodi:docname="music-app.svg">
  <sodipodi:namedview
     id="base"
     pagecolor="#ffffff"
     bordercolor="#666666"
     borderopacity="1.0"
     inkscape:pageopacity="0.0"
     inkscape:pageshadow="2"
     inkscape:zoom="1"
     inkscape:cx="0.5319378"
     inkscape:cy="81.259512"
     inkscape:document-units="px"
     inkscape:current-layer="layer7"
     showgrid="false"
     inkscape:window-width="1299"
     inkscape:window-height="704"
     inkscape:window-x="67"
     inkscape:window-y="27"
     inkscape:window-maximized="1"
     inkscape:grid-bbox="true"
     inkscape:snap-bbox="true"
     inkscape:snap-page="true"
     inkscape:bbox-paths="true"
     inkscape:snap-bbox-edge-midpoints="true"
     inkscape:bbox-nodes="true"
     inkscape:snap-bbox-midpoints="true"
     inkscape:snap-global="true" />
  <defs
     id="defs848">
    <clipPath
       clipPathUnits="userSpaceOnUse"
       id="clipPath1082-3">
      <path
         sodipodi:nodetypes="sssssssss"
         inkscape:connector-curvature="0"
         id="path1084-6"
         d="M 361.9375,-212 C 507.2348,-212 528,-191.28677 528,-46.125 V 70.125 C 528,215.28618 507.2348,236 361.9375,236 H 214.0625 C 68.7652,236 48,215.28618 48,70.125 V -46.125 C 48,-191.28677 68.7652,-212 214.0625,-212 Z"
         style="display:inline;opacity:1;fill:#8c59d9;fill-opacity:1;stroke:none;stroke-width:2;stroke-linecap:round;stroke-linejoin:round;stroke-miterlimit:4;stroke-dasharray:none;stroke-dashoffset:0;stroke-opacity:1;enable-background:new" />
    </clipPath>
    <clipPath
       clipPathUnits="userSpaceOnUse"
       id="clipPath1025">
      <path
         style="opacity:1;fill:#8c59d9;fill-opacity:1;stroke:none;stroke-width:2;stroke-linecap:round;stroke-linejoin:round;stroke-miterlimit:4;stroke-dasharray:none;stroke-dashoffset:0;stroke-opacity:1"
         d="M 329.9375,32 C 475.2348,32 496,52.71323 496,197.875 v 116.25 C 496,459.28618 475.2348,480 329.9375,480 H 182.0625 C 36.7652,480 16,459.28618 16,314.125 V 197.875 C 16,52.71323 36.7652,32 182.0625,32 Z"
         id="path1027"
         inkscape:connector-curvature="0"
         sodipodi:nodetypes="sssssssss" />
    </clipPath>
    <clipPath
       clipPathUnits="userSpaceOnUse"
       id="clipPath4277-8">
      <rect
         style="color:#000000;display:inline;overflow:visible;visibility:visible;opacity:0.81999972;fill:#88b637;fill-opacity:1;fill-rule:nonzero;stroke:none;stroke-width:2;stroke-linecap:butt;stroke-linejoin:miter;stroke-miterlimit:4;stroke-dasharray:none;stroke-dashoffset:0;stroke-opacity:1;marker:none;enable-background:accumulate"
         id="rect4279-6"
         width="512"
         height="512"
         x="5.5999999e-07"
         y="0"
         ry="1" />
    </clipPath>
    <linearGradient
       id="linearGradient3650-7-9">
      <stop
         style="stop-color:#5884f4;stop-opacity:1"
         offset="0"
         id="stop4366" />
      <stop
         id="stop4368"
         offset="1"
         style="stop-color:#80a3fa;stop-opacity:1" />
    </linearGradient>
    <clipPath
       clipPathUnits="userSpaceOnUse"
       id="clipPath1082-3-3">
      <path
         sodipodi:nodetypes="sssssssss"
         inkscape:connector-curvature="0"
         id="path1084-6-5"
         d="M 361.9375,-212 C 507.2348,-212 528,-191.28677 528,-46.125 V 70.125 C 528,215.28618 507.2348,236 361.9375,236 H 214.0625 C 68.7652,236 48,215.28618 48,70.125 V -46.125 C 48,-191.28677 68.7652,-212 214.0625,-212 Z"
         style="display:inline;opacity:1;fill:#8c59d9;fill-opacity:1;stroke:none;stroke-width:2;stroke-linecap:round;stroke-linejoin:round;stroke-miterlimit:4;stroke-dasharray:none;stroke-dashoffset:0;stroke-opacity:1;enable-background:new" />
    </clipPath>
    <clipPath
       clipPathUnits="userSpaceOnUse"
       id="clipPath1082-3-3-6">
      <path
         sodipodi:nodetypes="sssssssss"
         inkscape:connector-curvature="0"
         id="path1084-6-5-2"
         d="M 361.9375,-212 C 507.2348,-212 528,-191.28677 528,-46.125 V 70.125 C 528,215.28618 507.2348,236 361.9375,236 H 214.0625 C 68.7652,236 48,215.28618 48,70.125 V -46.125 C 48,-191.28677 68.7652,-212 214.0625,-212 Z"
         style="display:inline;opacity:1;fill:#8c59d9;fill-opacity:1;stroke:none;stroke-width:2;stroke-linecap:round;stroke-linejoin:round;stroke-miterlimit:4;stroke-dasharray:none;stroke-dashoffset:0;stroke-opacity:1;enable-background:new" />
    </clipPath>
    <clipPath
       clipPathUnits="userSpaceOnUse"
       id="clipPath1082-3-36">
      <path
         sodipodi:nodetypes="sssssssss"
         inkscape:connector-curvature="0"
         id="path1084-6-7"
         d="M 361.9375,-212 C 507.2348,-212 528,-191.28677 528,-46.125 V 70.125 C 528,215.28618 507.2348,236 361.9375,236 H 214.0625 C 68.7652,236 48,215.28618 48,70.125 V -46.125 C 48,-191.28677 68.7652,-212 214.0625,-212 Z"
         style="display:inline;opacity:1;fill:#8c59d9;fill-opacity:1;stroke:none;stroke-width:2;stroke-linecap:round;stroke-linejoin:round;stroke-miterlimit:4;stroke-dasharray:none;stroke-dashoffset:0;stroke-opacity:1;enable-background:new" />
    </clipPath>
    <linearGradient
       inkscape:collect="always"
       id="linearGradient4290">
      <stop
         style="stop-color:#e72662;stop-opacity:1"
         offset="0"
         id="stop4292" />
      <stop
         id="stop4272"
         offset="0.48271722"
         style="stop-color:#ec3c50;stop-opacity:1" />
      <stop
         style="stop-color:#ff7b66;stop-opacity:1"
         offset="1"
         id="stop4294" />
    </linearGradient>
    <linearGradient
       id="linearGradient4287"
       inkscape:collect="always">
      <stop
         id="stop4424"
         offset="0"
         style="stop-color:#ff9169;stop-opacity:1" />
      <stop
         id="stop4426"
         offset="1"
         style="stop-color:#f09778;stop-opacity:0" />
    </linearGradient>
    <linearGradient
       inkscape:collect="always"
       xlink:href="#linearGradient4287"
       id="linearGradient4348"
       x1="456"
       y1="368"
       x2="456"
       y2="192"
       gradientUnits="userSpaceOnUse" />
    <linearGradient
       gradientTransform="matrix(1.1428571,0,0,1.1428571,-45.71429,-50.285714)"
       inkscape:collect="always"
       xlink:href="#linearGradient4338"
       id="linearGradient1159"
       x1="196"
       y1="160"
       x2="132"
       y2="160"
       gradientUnits="userSpaceOnUse" />
    <linearGradient
       inkscape:collect="always"
       id="linearGradient4338">
      <stop
         style="stop-color:#ffffff;stop-opacity:0"
         offset="0"
         id="stop4340" />
      <stop
         id="stop4346"
         offset="1"
         style="stop-color:#ffffff;stop-opacity:1" />
    </linearGradient>
    <linearGradient
       inkscape:collect="always"
       xlink:href="#linearGradient4290"
       id="linearGradient1739"
       x1="56"
       y1="44.000004"
       x2="184.67841"
       y2="216.26892"
       gradientUnits="userSpaceOnUse"
       gradientTransform="matrix(1.3264593,0,0,1.3264593,-38.129086,-42.963291)" />
    <linearGradient
       inkscape:collect="always"
       xlink:href="#linearGradient4338"
       id="linearGradient1769"
       gradientUnits="userSpaceOnUse"
       gradientTransform="matrix(1.5159535,0,0,1.5159535,-98.767231,-109.88624)"
       x1="196"
       y1="160"
       x2="132"
       y2="160" />
    <linearGradient
       id="linearGradient3045">
      <stop
         id="stop3047"
         offset="0"
         style="stop-color:#847784;stop-opacity:0.99607843" />
      <stop
         id="stop3049"
         offset="1"
         style="stop-color:#695f69;stop-opacity:1" />
    </linearGradient>
    <linearGradient
       id="linearGradient4213">
      <stop
         style="stop-color:#b1d7f3;stop-opacity:1"
         offset="0"
         id="stop4215" />
      <stop
         style="stop-color:#8fafda;stop-opacity:1"
         offset="1"
         id="stop4217" />
    </linearGradient>
    <linearGradient
       osb:paint="gradient"
       id="linearGradient5460">
      <stop
         id="stop5462"
         offset="0"
         style="stop-color:#e6e6e6;stop-opacity:1" />
      <stop
         id="stop5464"
         offset="1"
         style="stop-color:#ffffff;stop-opacity:1" />
    </linearGradient>
    <linearGradient
       osb:paint="solid"
       id="linearGradient5476">
      <stop
         id="stop5478"
         offset="0"
         style="stop-color:#772953;stop-opacity:1;" />
    </linearGradient>
    <filter
       color-interpolation-filters="sRGB"
       id="filter4154">
      <feComposite
         operator="arithmetic"
         k4="0"
         result="composite1"
         k1="0"
         k2="1"
         k3="0"
         in2="SourceGraphic"
         id="feComposite4156" />
      <feColorMatrix
         in="composite1"
         result="colormatrix1"
         values="0"
         type="saturate"
         id="feColorMatrix4158" />
      <feFlood
         flood-color="rgb(72,59,72)"
         result="flood1"
         id="feFlood4160" />
      <feBlend
         in="flood1"
         in2="colormatrix1"
         mode="multiply"
         result="blend1"
         id="feBlend4162" />
      <feBlend
         result="blend2"
         in2="blend1"
         mode="screen"
         id="feBlend4164" />
      <feColorMatrix
         in="blend2"
         result="colormatrix2"
         values="1"
         type="saturate"
         id="feColorMatrix4166" />
      <feComposite
         in="colormatrix2"
         in2="SourceGraphic"
         result="composite2"
         operator="in"
         id="feComposite4168" />
    </filter>
    <clipPath
       id="clipPath3062"
       clipPathUnits="userSpaceOnUse">
      <rect
         y="-194.96773"
         x="34.167744"
         height="445.93549"
         width="475.66452"
         id="rect3064"
         style="color:#000000;fill:url(#linearGradient3066);fill-opacity:1;fill-rule:nonzero;stroke:none;stroke-width:40;marker:none;visibility:visible;display:inline;overflow:visible;enable-background:new" />
    </clipPath>
    <linearGradient
       y2="288"
       x2="256"
       y1="50"
       x1="256"
       gradientTransform="matrix(1.8580645,0,0,1.8736786,4.4387126,-288.65166)"
       gradientUnits="userSpaceOnUse"
       id="linearGradient3066"
       xlink:href="#linearGradient3045"
       inkscape:collect="always" />
    <filter
       inkscape:collect="always"
       style="color-interpolation-filters:sRGB"
       id="filter977"
       x="-0.027443201"
       width="1.0548864"
       y="-0.021324492"
       height="1.042649">
      <feGaussianBlur
         inkscape:collect="always"
         stdDeviation="1.9947285"
         id="feGaussianBlur979" />
    </filter>
  </defs>
  <metadata
     id="metadata851">
    <rdf:RDF>
      <cc:Work
         rdf:about="">
        <dc:format>image/svg+xml</dc:format>
        <dc:type
           rdf:resource="http://purl.org/dc/dcmitype/StillImage" />
        <dc:title />
      </cc:Work>
    </rdf:RDF>
  </metadata>
  <g
     id="layer1"
     inkscape:groupmode="layer"
     inkscape:label="Icon">
    <g
       inkscape:groupmode="layer"
       id="layer8"
       inkscape:label="Baseplate"
       style="display:none">
      <text
         y="-36.254883"
         xml:space="preserve"
         x="-4.9931641"
         style="font-style:normal;font-variant:normal;font-weight:normal;font-stretch:normal;font-size:18.66666603px;line-height:0%;font-family:Ubuntu;-inkscape-font-specification:Ubuntu;display:inline;fill:#000000;fill-opacity:1;stroke:none;enable-background:new"
         inkscape:label="context"
         id="context"><tspan
           style="font-style:normal;font-variant:normal;font-weight:normal;font-stretch:normal;font-size:18.66666603px;line-height:1.25;font-family:Ubuntu;-inkscape-font-specification:Ubuntu"
           y="-36.254883"
           x="-4.9931641"
           sodipodi:role="line"
           id="tspan3933">apps</tspan></text>
      <text
         y="-36.254883"
         xml:space="preserve"
         x="122.48828"
         style="font-style:normal;font-variant:normal;font-weight:bold;font-stretch:normal;font-size:18.66666603px;line-height:0%;font-family:Ubuntu;-inkscape-font-specification:'Ubuntu Bold';text-align:start;writing-mode:lr-tb;text-anchor:start;display:inline;fill:#000000;fill-opacity:1;stroke:none;enable-background:new"
         inkscape:label="icon-name"
         id="icon-name"><tspan
           style="font-style:normal;font-variant:normal;font-weight:bold;font-stretch:normal;font-size:18.66666603px;line-height:1.25;font-family:Ubuntu;-inkscape-font-specification:'Ubuntu Bold'"
           y="-36.254883"
           x="122.48828"
           sodipodi:role="line"
           id="tspan3937">music-app</tspan></text>
      <rect
         style="display:inline;overflow:visible;visibility:visible;fill:#cdcdcd;fill-opacity:1;fill-rule:nonzero;stroke:none;stroke-width:2;marker:none;enable-background:accumulate"
         id="rect3951"
         width="256"
         height="256"
         x="0"
         y="0"
         inkscape:label="plate" />
    </g>
    <g
       inkscape:groupmode="layer"
       id="layer7"
       inkscape:label="Shadows">
      <path
         style="font-style:normal;font-variant:normal;font-weight:normal;font-stretch:normal;font-size:15px;line-height:125%;font-family:Ubuntu;-inkscape-font-specification:Ubuntu;text-align:center;letter-spacing:0px;word-spacing:0px;writing-mode:lr-tb;text-anchor:middle;display:inline;opacity:0.2;fill:#000000;fill-opacity:1;stroke:none;stroke-width:2.52817678;filter:url(#filter977);enable-background:new"
         d="m 195.81342,17.501588 c -2.84781,-0.0317 -6.63405,0.4125 -11.67167,1.16953 l -80.7571,12.81751 c -20.238423,4.30951 -20.168963,5.64998 -20.237393,22.74819 v 33.48128 16.850172 88.402 c -0.84406,-0.59121 -1.67661,-1.18577 -2.54928,-1.77058 v 0.007 c -6.42989,-4.30889 -13.28287,-7.37544 -22.487633,-7.37547 -11.529612,0 -18.405327,4.41482 -22.567571,10.22971 -4.162218,5.81491 -5.542718,13.14442 -5.542718,18.81025 0,6.83226 2.332738,14.12403 7.393234,19.68075 5.060509,5.55674 12.840752,9.44792 24.027277,9.44807 12.632141,0 21.517891,-3.52734 26.541031,-10.41624 3.95498,-5.42391 6.14198,-12.6701 6.92247,-21.60828 v -0.0151 -0.009 c 0.10935,-1.08436 0.18858,-2.19821 0.25759,-3.34576 0.10604,-1.76679 0.0829,-5.07192 0.0829,-5.07192 V 95.306688 c 0,-15.17504 -7.4e-4,-16.08092 20.243303,-19.5416 l 56.54331,-9.35035 c 20.28051,-2.65345 20.28474,-0.79288 20.28474,10.58842 v 9.37405 88.111842 c -0.8214,-0.57554 -1.6325,-1.15447 -2.4812,-1.72321 v 0.007 c -6.42989,-4.3089 -13.27987,-7.37543 -22.48467,-7.37545 -11.52966,0 -18.40831,4.41481 -22.57053,10.22973 -4.16223,5.81491 -5.54273,13.14437 -5.54273,18.81026 0,6.8322 2.3357,14.12402 7.3962,19.68074 5.06051,5.55674 12.84068,9.45084 24.02728,9.45103 12.63215,0 21.51791,-3.53029 26.54105,-10.41922 3.95498,-5.42391 6.13902,-12.6671 6.91949,-21.60529 v -0.0151 -0.0119 c 0.10934,-1.08442 0.18865,-2.19528 0.25761,-3.3428 0.10604,-1.7668 0.0858,-5.07491 0.0858,-5.07491 V 65.621268 35.314048 c 0,-13.30951 -0.0876,-17.71728 -8.63085,-17.81246 z"
         id="path4393-0-5"
         inkscape:connector-curvature="0"
         sodipodi:nodetypes="cccccccccccsccccccccsccsccccccssccccccccsc" />
      <path
         style="font-style:normal;font-variant:normal;font-weight:normal;font-stretch:normal;font-size:15px;line-height:125%;font-family:Ubuntu;-inkscape-font-specification:Ubuntu;text-align:center;letter-spacing:0px;word-spacing:0px;writing-mode:lr-tb;text-anchor:middle;display:inline;opacity:0.1;fill:#000000;fill-opacity:1;stroke:none;stroke-width:2.52817678;enable-background:new"
         d="m 195.81336,15.501958 c -2.84781,-0.03168 -6.63405,0.412498 -11.67167,1.169534 l -80.7571,12.817509 c -20.238414,4.30951 -20.168954,5.649983 -20.237383,22.748193 v 33.481273 16.850173 88.402 c -0.844068,-0.59121 -1.676616,-1.18577 -2.549289,-1.77058 v 0.007 c -6.429888,-4.30889 -13.282863,-7.37544 -22.487629,-7.37547 -11.529612,0 -18.405327,4.41482 -22.567571,10.22971 C 31.3805,197.87621 30,205.20572 30,210.87155 c 0,6.83226 2.332738,14.12403 7.393234,19.68075 5.060509,5.55674 12.840752,9.44792 24.027277,9.44807 12.63214,0 21.517887,-3.52734 26.541031,-10.41624 3.954977,-5.42391 6.141983,-12.6701 6.922475,-21.60828 v -0.0151 -0.009 c 0.109345,-1.08436 0.18858,-2.19821 0.257581,-3.34576 0.106043,-1.76679 0.08293,-5.07192 0.08293,-5.07192 V 93.307063 c 0,-15.175045 -7.4e-4,-16.080919 20.243302,-19.5416 l 56.54331,-9.350358 c 20.28051,-2.653448 20.28474,-0.792873 20.28474,10.588423 v 9.374052 88.11184 c -0.8214,-0.57554 -1.6325,-1.15447 -2.4812,-1.72321 v 0.007 c -6.42989,-4.3089 -13.27987,-7.37543 -22.48467,-7.37545 -11.52966,0 -18.40831,4.41481 -22.57053,10.22973 -4.16223,5.81491 -5.54273,13.14437 -5.54273,18.81026 0,6.8322 2.3357,14.12402 7.3962,19.68074 5.06051,5.55674 12.84068,9.45084 24.02728,9.45103 12.63215,0 21.51791,-3.53029 26.54105,-10.41922 3.95498,-5.42391 6.13902,-12.6671 6.91949,-21.60529 v -0.0151 -0.0119 c 0.10934,-1.08442 0.18865,-2.19528 0.25761,-3.3428 0.10604,-1.7668 0.0858,-5.07491 0.0858,-5.07491 V 63.621638 33.314417 c 0,-13.309503 -0.0876,-17.717273 -8.63085,-17.812459 z"
         id="path4393-0"
         inkscape:connector-curvature="0"
         sodipodi:nodetypes="cccccccccccsccccccccsccsccccccssccccccccsc" />
    </g>
    <g
       inkscape:groupmode="layer"
       id="layer3"
       inkscape:label="Pictogram"
       style="display:inline;opacity:1">
      <path
         style="font-style:normal;font-variant:normal;font-weight:normal;font-stretch:normal;font-size:15px;line-height:125%;font-family:Ubuntu;-inkscape-font-specification:Ubuntu;text-align:center;letter-spacing:0px;word-spacing:0px;writing-mode:lr-tb;text-anchor:middle;display:inline;fill:url(#linearGradient1739);fill-opacity:1;stroke:none;stroke-width:2.52817678;enable-background:new"
         d="m 195.81334,15.501592 c -2.8478,-0.03172 -6.63406,0.412499 -11.67166,1.169534 l -80.7571,12.817506 c -20.238414,4.30951 -20.168955,5.649982 -20.237387,22.748191 v 33.481274 16.850153 88.402 c -0.844066,-0.5912 -1.676612,-1.18574 -2.549286,-1.77056 v 0.007 c -6.429887,-4.30892 -13.28286,-7.37545 -22.487625,-7.37548 -11.529617,0 -18.405327,4.4148 -22.567578,10.22969 C 31.380486,197.87583 30,205.20535 30,210.87121 c 0,6.83221 2.332733,14.12398 7.39323,19.68073 5.060512,5.55672 12.840748,9.44793 24.027273,9.44806 12.632135,0 21.517883,-3.52733 26.541028,-10.41623 3.954978,-5.4239 6.141983,-12.67014 6.922472,-21.60828 v -0.0153 -0.009 c 0.109348,-1.08437 0.18858,-2.19823 0.257586,-3.34576 0.106037,-1.76681 0.08291,-5.07191 0.08291,-5.07191 V 93.306689 c 0,-15.175045 -7.41e-4,-16.080918 20.243321,-19.541596 l 56.54329,-9.350357 c 20.28051,-2.653449 20.28476,-0.792875 20.28476,10.58842 v 9.374053 88.111831 c -0.82142,-0.57552 -1.63252,-1.15444 -2.48121,-1.7232 v 0.007 c -6.42988,-4.30889 -13.27989,-7.37545 -22.48465,-7.37546 -11.52968,0 -18.40833,4.41483 -22.57052,10.2297 -4.16223,5.81492 -5.54274,13.14438 -5.54274,18.8103 0,6.83217 2.33571,14.12399 7.39618,19.68071 5.06053,5.55675 12.84069,9.45086 24.02727,9.45104 12.63219,0 21.51794,-3.53029 26.54104,-10.41925 3.955,-5.42384 6.13906,-12.66707 6.91951,-21.60528 v -0.0151 -0.0119 c 0.10932,-1.0844 0.18864,-2.19528 0.25758,-3.34278 0.10608,-1.76684 0.0861,-5.07491 0.0861,-5.07491 V 63.621266 33.314049 c 0,-13.3095 -0.0878,-17.717269 -8.63087,-17.812457 z"
         id="path4393"
         inkscape:connector-curvature="0"
         sodipodi:nodetypes="cccccccccccsccccccccsccsccccccssccccccccsc" />
      <path
         style="font-style:normal;font-variant:normal;font-weight:normal;font-stretch:normal;font-size:15px;line-height:125%;font-family:Ubuntu;-inkscape-font-specification:Ubuntu;text-align:center;letter-spacing:0px;word-spacing:0px;writing-mode:lr-tb;text-anchor:middle;display:inline;opacity:0.1;fill:url(#linearGradient1769);fill-opacity:1;stroke:none;stroke-width:2.52817678;enable-background:new"
         d="m 86.987411,34.635677 c -3.787354,2.973176 -3.801027,7.589615 -3.840218,17.380175 v 33.481274 16.850154 88.402 c -0.844066,-0.5912 -1.676612,-1.18574 -2.549286,-1.77056 v 0.007 c -6.429887,-4.30892 -13.28286,-7.37545 -22.487625,-7.37548 -11.529617,0 -18.405327,4.4148 -22.567578,10.22969 C 31.380486,197.65486 30,204.98438 30,210.65024 c 0,6.83221 2.332733,14.12398 7.39323,19.68073 5.060512,5.55672 12.840748,9.44793 24.027273,9.44806 12.632135,0 21.517883,-3.52733 26.541028,-10.41623 3.954978,-5.4239 6.141983,-12.67014 6.922472,-21.60828 v -0.0153 -0.009 c 0.109348,-1.08437 0.18858,-2.19823 0.257586,-3.34576 0.106037,-1.76681 0.08291,-5.07191 0.08291,-5.07191 V 93.085718 c 0,-15.175045 -7.41e-4,-16.080918 20.243321,-19.541596 l 56.54329,-9.350357 c 5.16173,-0.675343 8.99807,-1.054967 11.86709,-1.062942 z M 190.80357,65.167929 c 1.47066,1.798087 1.49231,4.86871 1.49231,9.613872 v 9.374052 88.111837 c -0.82142,-0.57554 -1.63252,-1.15447 -2.48121,-1.72321 v 0.007 c -6.42988,-4.3089 -13.27989,-7.37543 -22.48466,-7.37546 -11.52968,0 -18.40832,4.41483 -22.57052,10.22973 -4.16223,5.81489 -5.54273,13.14437 -5.54273,18.81026 0,6.83219 2.33571,14.12401 7.39618,19.68072 5.06052,5.55674 12.84069,9.45085 24.02726,9.45104 12.63219,0 21.51794,-3.53031 26.54105,-10.41923 3.955,-5.42387 6.13905,-12.66708 6.91951,-21.60528 v -0.0151 -0.0119 c 0.10932,-1.08443 0.18864,-2.19528 0.25757,-3.34278 0.10608,-1.76684 0.0861,-5.07492 0.0861,-5.07492 V 69.179385 Z"
         id="path1129"
         inkscape:connector-curvature="0" />
      <path
         style="font-style:normal;font-variant:normal;font-weight:normal;font-stretch:normal;font-size:15px;line-height:125%;font-family:Ubuntu;-inkscape-font-specification:Ubuntu;text-align:center;letter-spacing:0px;word-spacing:0px;writing-mode:lr-tb;text-anchor:middle;display:inline;fill:#f76363;fill-opacity:1;stroke:none;stroke-width:2.52817678;enable-background:new"
         d="m 195.81334,15.501592 c -2.8478,-0.03172 -6.63406,0.412499 -11.67166,1.169534 l -80.7571,12.817506 c -20.238414,4.30951 -20.168955,5.64998 -20.237387,22.748191 v 3.031907 c 0.06837,-17.098212 -9.94e-4,-18.438681 20.237387,-22.748189 l 80.7571,-12.817508 c 5.0376,-0.757036 8.82386,-1.201218 11.67166,-1.169536 8.5434,0.0952 8.63086,4.502962 8.63086,17.812456 v -3.031904 c 0,-13.3095 -0.0878,-17.717269 -8.63086,-17.812457 z M 167.33001,163.3959 c -11.52968,0 -18.40832,4.41483 -22.57052,10.22973 -4.16223,5.81492 -5.54273,13.14437 -5.54273,18.81026 0,0.42358 0.0353,0.85253 0.0531,1.27908 0.26044,-5.37109 1.7423,-11.82243 5.48944,-17.05743 4.16222,-5.81491 11.04086,-10.22973 22.57051,-10.22973 9.20479,3e-5 16.05479,3.06656 22.48467,7.37547 v -0.007 c 0.84871,0.56874 1.65979,1.14769 2.48121,1.72321 v -3.03189 c -0.82142,-0.57555 -1.6325,-1.15448 -2.48121,-1.72323 v 0.007 c -6.42988,-4.30891 -13.27988,-7.37543 -22.48467,-7.37547 z M 58.110282,181.83013 c -11.529617,0 -18.405327,4.41481 -22.567578,10.2297 C 31.380486,197.87474 30,205.20425 30,210.87014 c 0,0.42358 0.0353,0.8525 0.05339,1.27909 0.260438,-5.3711 1.742284,-11.82248 5.489405,-17.05748 4.16225,-5.8149 11.037961,-10.2297 22.567577,-10.2297 9.204765,2e-5 16.057741,3.06655 22.487625,7.37548 v -0.007 c 0.872674,0.58481 1.705221,1.17932 2.549288,1.77058 v -3.03192 c -0.844067,-0.59121 -1.676614,-1.18575 -2.549288,-1.77058 v 0.007 c -6.429886,-4.30892 -13.282862,-7.37546 -22.487627,-7.37548 z"
         id="path1201"
         inkscape:connector-curvature="0" />
    </g>
  </g>
</svg>
