<?xml version="1.0" encoding="UTF-8" standalone="no"?>
<!-- Created with Inkscape (http://www.inkscape.org/) -->

<svg
   xmlns:osb="http://www.openswatchbook.org/uri/2009/osb"
   xmlns:dc="http://purl.org/dc/elements/1.1/"
   xmlns:cc="http://creativecommons.org/ns#"
   xmlns:rdf="http://www.w3.org/1999/02/22-rdf-syntax-ns#"
   xmlns:svg="http://www.w3.org/2000/svg"
   xmlns="http://www.w3.org/2000/svg"
   xmlns:xlink="http://www.w3.org/1999/xlink"
   xmlns:sodipodi="http://sodipodi.sourceforge.net/DTD/sodipodi-0.dtd"
   xmlns:inkscape="http://www.inkscape.org/namespaces/inkscape"
   width="256px"
   height="256px"
   viewBox="0 0 256 256"
   version="1.1"
   id="SVGRoot"
   inkscape:version="0.92.3 (2405546, 2018-03-11)"
   sodipodi:docname="settings-app.svg">
  <sodipodi:namedview
     id="base"
     pagecolor="#ffffff"
     bordercolor="#666666"
     borderopacity="1.0"
     inkscape:pageopacity="0.0"
     inkscape:pageshadow="2"
     inkscape:zoom="1"
     inkscape:cx="64.967988"
     inkscape:cy="105.7566"
     inkscape:document-units="px"
     inkscape:current-layer="layer3"
     showgrid="false"
     inkscape:window-width="1299"
     inkscape:window-height="704"
     inkscape:window-x="67"
     inkscape:window-y="27"
     inkscape:window-maximized="1"
     inkscape:grid-bbox="true"
     inkscape:snap-bbox="true"
     inkscape:snap-page="true"
     inkscape:bbox-paths="true"
     inkscape:snap-bbox-edge-midpoints="true"
     inkscape:bbox-nodes="true"
     inkscape:snap-bbox-midpoints="true"
     inkscape:snap-global="true" />
  <defs
     id="defs848">
    <linearGradient
       id="linearGradient887"
       inkscape:collect="always">
      <stop
         style="stop-color:#ececec;stop-opacity:1"
         offset="0"
         id="stop883" />
      <stop
         style="stop-color:#dedede;stop-opacity:1"
         offset="1"
         id="stop885" />
    </linearGradient>
    <clipPath
       clipPathUnits="userSpaceOnUse"
       id="clipPath1082-3">
      <path
         sodipodi:nodetypes="sssssssss"
         inkscape:connector-curvature="0"
         id="path1084-6"
         d="M 361.9375,-212 C 507.2348,-212 528,-191.28677 528,-46.125 V 70.125 C 528,215.28618 507.2348,236 361.9375,236 H 214.0625 C 68.7652,236 48,215.28618 48,70.125 V -46.125 C 48,-191.28677 68.7652,-212 214.0625,-212 Z"
         style="display:inline;opacity:1;fill:#8c59d9;fill-opacity:1;stroke:none;stroke-width:2;stroke-linecap:round;stroke-linejoin:round;stroke-miterlimit:4;stroke-dasharray:none;stroke-dashoffset:0;stroke-opacity:1;enable-background:new" />
    </clipPath>
    <clipPath
       clipPathUnits="userSpaceOnUse"
       id="clipPath1025">
      <path
         style="opacity:1;fill:#8c59d9;fill-opacity:1;stroke:none;stroke-width:2;stroke-linecap:round;stroke-linejoin:round;stroke-miterlimit:4;stroke-dasharray:none;stroke-dashoffset:0;stroke-opacity:1"
         d="M 329.9375,32 C 475.2348,32 496,52.71323 496,197.875 v 116.25 C 496,459.28618 475.2348,480 329.9375,480 H 182.0625 C 36.7652,480 16,459.28618 16,314.125 V 197.875 C 16,52.71323 36.7652,32 182.0625,32 Z"
         id="path1027"
         inkscape:connector-curvature="0"
         sodipodi:nodetypes="sssssssss" />
    </clipPath>
    <clipPath
       clipPathUnits="userSpaceOnUse"
       id="clipPath4277-8">
      <rect
         style="color:#000000;display:inline;overflow:visible;visibility:visible;opacity:0.81999972;fill:#88b637;fill-opacity:1;fill-rule:nonzero;stroke:none;stroke-width:2;stroke-linecap:butt;stroke-linejoin:miter;stroke-miterlimit:4;stroke-dasharray:none;stroke-dashoffset:0;stroke-opacity:1;marker:none;enable-background:accumulate"
         id="rect4279-6"
         width="512"
         height="512"
         x="5.5999999e-07"
         y="0"
         ry="1" />
    </clipPath>
    <linearGradient
       id="linearGradient3650-7-9">
      <stop
         style="stop-color:#5884f4;stop-opacity:1"
         offset="0"
         id="stop4366" />
      <stop
         id="stop4368"
         offset="1"
         style="stop-color:#80a3fa;stop-opacity:1" />
    </linearGradient>
    <clipPath
       clipPathUnits="userSpaceOnUse"
       id="clipPath1082-3-3">
      <path
         sodipodi:nodetypes="sssssssss"
         inkscape:connector-curvature="0"
         id="path1084-6-5"
         d="M 361.9375,-212 C 507.2348,-212 528,-191.28677 528,-46.125 V 70.125 C 528,215.28618 507.2348,236 361.9375,236 H 214.0625 C 68.7652,236 48,215.28618 48,70.125 V -46.125 C 48,-191.28677 68.7652,-212 214.0625,-212 Z"
         style="display:inline;opacity:1;fill:#8c59d9;fill-opacity:1;stroke:none;stroke-width:2;stroke-linecap:round;stroke-linejoin:round;stroke-miterlimit:4;stroke-dasharray:none;stroke-dashoffset:0;stroke-opacity:1;enable-background:new" />
    </clipPath>
    <clipPath
       clipPathUnits="userSpaceOnUse"
       id="clipPath1082-3-3-6">
      <path
         sodipodi:nodetypes="sssssssss"
         inkscape:connector-curvature="0"
         id="path1084-6-5-2"
         d="M 361.9375,-212 C 507.2348,-212 528,-191.28677 528,-46.125 V 70.125 C 528,215.28618 507.2348,236 361.9375,236 H 214.0625 C 68.7652,236 48,215.28618 48,70.125 V -46.125 C 48,-191.28677 68.7652,-212 214.0625,-212 Z"
         style="display:inline;opacity:1;fill:#8c59d9;fill-opacity:1;stroke:none;stroke-width:2;stroke-linecap:round;stroke-linejoin:round;stroke-miterlimit:4;stroke-dasharray:none;stroke-dashoffset:0;stroke-opacity:1;enable-background:new" />
    </clipPath>
    <clipPath
       clipPathUnits="userSpaceOnUse"
       id="clipPath1082-3-36">
      <path
         sodipodi:nodetypes="sssssssss"
         inkscape:connector-curvature="0"
         id="path1084-6-7"
         d="M 361.9375,-212 C 507.2348,-212 528,-191.28677 528,-46.125 V 70.125 C 528,215.28618 507.2348,236 361.9375,236 H 214.0625 C 68.7652,236 48,215.28618 48,70.125 V -46.125 C 48,-191.28677 68.7652,-212 214.0625,-212 Z"
         style="display:inline;opacity:1;fill:#8c59d9;fill-opacity:1;stroke:none;stroke-width:2;stroke-linecap:round;stroke-linejoin:round;stroke-miterlimit:4;stroke-dasharray:none;stroke-dashoffset:0;stroke-opacity:1;enable-background:new" />
    </clipPath>
    <linearGradient
       gradientTransform="translate(-24,-28)"
       inkscape:collect="always"
       xlink:href="#linearGradient945"
       id="linearGradient947"
       x1="160"
       y1="268"
       x2="160"
       y2="44"
       gradientUnits="userSpaceOnUse" />
    <linearGradient
       inkscape:collect="always"
       id="linearGradient945">
      <stop
         id="stop943"
         offset="0"
         style="stop-color:#e6e6e6;stop-opacity:1" />
      <stop
         id="stop941"
         offset="1"
         style="stop-color:#d3d3d3;stop-opacity:1;" />
    </linearGradient>
    <clipPath
       clipPathUnits="userSpaceOnUse"
       id="clipPath999">
      <path
         inkscape:connector-curvature="0"
         style="color:#000000;display:inline;overflow:visible;visibility:visible;opacity:1;fill:#5d5d5d;fill-opacity:1;fill-rule:nonzero;stroke:none;stroke-width:3.82599998;stroke-linecap:butt;stroke-linejoin:round;stroke-miterlimit:4;stroke-dasharray:none;stroke-dashoffset:0;stroke-opacity:1;marker:none;enable-background:accumulate"
         d="m 152,68 c -48.60106,0 -88,39.39894 -88,88 0,48.60106 39.39894,88 88,88 48.60106,0 88,-39.39894 88,-88 0,-48.60106 -39.39894,-88 -88,-88 z"
         id="path1001"
         sodipodi:nodetypes="sssss" />
    </clipPath>
    <linearGradient
       gradientTransform="matrix(1.3776024,0,0,1.3776024,-81.395543,-87.226702)"
       inkscape:collect="always"
       xlink:href="#linearGradient887"
       id="linearGradient955"
       x1="200"
       y1="268"
       x2="200"
       y2="44"
       gradientUnits="userSpaceOnUse" />
    <linearGradient
       id="linearGradient3045">
      <stop
         id="stop3047"
         offset="0"
         style="stop-color:#847784;stop-opacity:0.99607843" />
      <stop
         id="stop3049"
         offset="1"
         style="stop-color:#695f69;stop-opacity:1" />
    </linearGradient>
    <linearGradient
       id="linearGradient4213">
      <stop
         style="stop-color:#b1d7f3;stop-opacity:1"
         offset="0"
         id="stop4215" />
      <stop
         style="stop-color:#8fafda;stop-opacity:1"
         offset="1"
         id="stop4217" />
    </linearGradient>
    <linearGradient
       osb:paint="gradient"
       id="linearGradient5460">
      <stop
         id="stop5462"
         offset="0"
         style="stop-color:#e6e6e6;stop-opacity:1" />
      <stop
         id="stop5464"
         offset="1"
         style="stop-color:#ffffff;stop-opacity:1" />
    </linearGradient>
    <linearGradient
       osb:paint="solid"
       id="linearGradient5476">
      <stop
         id="stop5478"
         offset="0"
         style="stop-color:#772953;stop-opacity:1;" />
    </linearGradient>
    <filter
       color-interpolation-filters="sRGB"
       id="filter4154">
      <feComposite
         operator="arithmetic"
         k4="0"
         result="composite1"
         k1="0"
         k2="1"
         k3="0"
         in2="SourceGraphic"
         id="feComposite4156" />
      <feColorMatrix
         in="composite1"
         result="colormatrix1"
         values="0"
         type="saturate"
         id="feColorMatrix4158" />
      <feFlood
         flood-color="rgb(72,59,72)"
         result="flood1"
         id="feFlood4160" />
      <feBlend
         in="flood1"
         in2="colormatrix1"
         mode="multiply"
         result="blend1"
         id="feBlend4162" />
      <feBlend
         result="blend2"
         in2="blend1"
         mode="screen"
         id="feBlend4164" />
      <feColorMatrix
         in="blend2"
         result="colormatrix2"
         values="1"
         type="saturate"
         id="feColorMatrix4166" />
      <feComposite
         in="colormatrix2"
         in2="SourceGraphic"
         result="composite2"
         operator="in"
         id="feComposite4168" />
    </filter>
    <clipPath
       id="clipPath3062"
       clipPathUnits="userSpaceOnUse">
      <rect
         y="-194.96773"
         x="34.167744"
         height="445.93549"
         width="475.66452"
         id="rect3064"
         style="color:#000000;fill:url(#linearGradient3066);fill-opacity:1;fill-rule:nonzero;stroke:none;stroke-width:40;marker:none;visibility:visible;display:inline;overflow:visible;enable-background:new" />
    </clipPath>
    <linearGradient
       y2="288"
       x2="256"
       y1="50"
       x1="256"
       gradientTransform="matrix(1.8580645,0,0,1.8736786,4.4387126,-288.65166)"
       gradientUnits="userSpaceOnUse"
       id="linearGradient3066"
       xlink:href="#linearGradient3045"
       inkscape:collect="always" />
    <clipPath
       clipPathUnits="userSpaceOnUse"
       id="clipPath1031">
      <path
         style="display:inline;opacity:0.25;fill:#ffffff;fill-opacity:1;stroke:none;stroke-width:2;stroke-linecap:round;stroke-linejoin:round;stroke-miterlimit:4;stroke-dasharray:none;stroke-dashoffset:0;stroke-opacity:1;enable-background:new"
         d="m 8.0000321,127.67929 v 29.0625 c 0,72.58059 10.3825999,82.9375 83.0312499,82.9375 h 73.937498 c 72.64865,0 83.03125,-10.35691 83.03125,-82.9375 v -29.0625 z"
         id="path1033"
         inkscape:connector-curvature="0" />
    </clipPath>
    <linearGradient
       inkscape:collect="always"
       xlink:href="#linearGradient945"
       id="linearGradient1066"
       gradientUnits="userSpaceOnUse"
       gradientTransform="matrix(1.4962803,0,0,1.4962803,-99.212883,-105.64183)"
       x1="200"
       y1="268"
       x2="200"
       y2="44" />
    <filter
       color-interpolation-filters="sRGB"
       id="filter4154-9">
      <feComposite
         operator="arithmetic"
         k4="0"
         result="composite1"
         k1="0"
         k2="1"
         k3="0"
         in2="SourceGraphic"
         id="feComposite4156-1" />
      <feColorMatrix
         in="composite1"
         result="colormatrix1"
         values="0"
         type="saturate"
         id="feColorMatrix4158-2" />
      <feFlood
         flood-color="rgb(72,59,72)"
         result="flood1"
         id="feFlood4160-7" />
      <feBlend
         in="flood1"
         in2="colormatrix1"
         mode="multiply"
         result="blend1"
         id="feBlend4162-0" />
      <feBlend
         result="blend2"
         in2="blend1"
         mode="screen"
         id="feBlend4164-9" />
      <feColorMatrix
         in="blend2"
         result="colormatrix2"
         values="1"
         type="saturate"
         id="feColorMatrix4166-3" />
      <feComposite
         in="colormatrix2"
         in2="SourceGraphic"
         result="composite2"
         operator="in"
         id="feComposite4168-6" />
    </filter>
    <clipPath
       id="clipPath3062-0"
       clipPathUnits="userSpaceOnUse">
      <rect
         y="-194.96773"
         x="34.167744"
         height="445.93549"
         width="475.66452"
         id="rect3064-6"
         style="color:#000000;fill:url(#linearGradient3066);fill-opacity:1;fill-rule:nonzero;stroke:none;stroke-width:40;marker:none;visibility:visible;display:inline;overflow:visible;enable-background:new" />
    </clipPath>
    <clipPath
       clipPathUnits="userSpaceOnUse"
       id="clipPath1014">
      <rect
         style="opacity:1;fill:#ed3146;fill-opacity:1;stroke:none;stroke-width:0.88596356;stroke-linejoin:round;stroke-miterlimit:4;stroke-dasharray:none;stroke-opacity:1"
         id="rect1016"
         width="224.44394"
         height="112.222"
         x="-376.67978"
         y="192.36055" />
    </clipPath>
    <filter
       inkscape:collect="always"
       style="color-interpolation-filters:sRGB"
       id="filter1092"
       x="-0.012000009"
       width="1.024"
       y="-0.011999991"
       height="1.024">
      <feGaussianBlur
         inkscape:collect="always"
         stdDeviation="1.122221"
         id="feGaussianBlur1094" />
    </filter>
    <filter
       inkscape:collect="always"
       style="color-interpolation-filters:sRGB"
       id="filter1096"
       x="-0.024000021"
       width="1.048"
       y="-0.023999979"
       height="1.048">
      <feGaussianBlur
         inkscape:collect="always"
         stdDeviation="2.2444422"
         id="feGaussianBlur1098" />
    </filter>
  </defs>
  <metadata
     id="metadata851">
    <rdf:RDF>
      <cc:Work
         rdf:about="">
        <dc:format>image/svg+xml</dc:format>
        <dc:type
           rdf:resource="http://purl.org/dc/dcmitype/StillImage" />
        <dc:title />
      </cc:Work>
    </rdf:RDF>
  </metadata>
  <g
     id="layer1"
     inkscape:groupmode="layer"
     inkscape:label="Icon">
    <g
       inkscape:groupmode="layer"
       id="layer8"
       inkscape:label="Baseplate"
       style="display:none">
      <text
         y="-36.254883"
         xml:space="preserve"
         x="-4.9931641"
         style="font-style:normal;font-variant:normal;font-weight:normal;font-stretch:normal;font-size:18.66666603px;line-height:0%;font-family:Ubuntu;-inkscape-font-specification:Ubuntu;display:inline;fill:#000000;fill-opacity:1;stroke:none;enable-background:new"
         inkscape:label="context"
         id="context"><tspan
           style="font-style:normal;font-variant:normal;font-weight:normal;font-stretch:normal;font-size:18.66666603px;line-height:1.25;font-family:Ubuntu;-inkscape-font-specification:Ubuntu"
           y="-36.254883"
           x="-4.9931641"
           sodipodi:role="line"
           id="tspan3933">apps</tspan></text>
      <text
         y="-36.254883"
         xml:space="preserve"
         x="122.48828"
         style="font-style:normal;font-variant:normal;font-weight:bold;font-stretch:normal;font-size:18.66666603px;line-height:0%;font-family:Ubuntu;-inkscape-font-specification:'Ubuntu Bold';text-align:start;writing-mode:lr-tb;text-anchor:start;display:inline;fill:#000000;fill-opacity:1;stroke:none;enable-background:new"
         inkscape:label="icon-name"
         id="icon-name"><tspan
           style="font-style:normal;font-variant:normal;font-weight:bold;font-stretch:normal;font-size:18.66666603px;line-height:1.25;font-family:Ubuntu;-inkscape-font-specification:'Ubuntu Bold'"
           y="-36.254883"
           x="122.48828"
           sodipodi:role="line"
           id="tspan3937">settings-app</tspan></text>
      <rect
         style="display:inline;overflow:visible;visibility:visible;fill:#cdcdcd;fill-opacity:1;fill-rule:nonzero;stroke:none;stroke-width:2;marker:none;enable-background:accumulate"
         id="rect3951"
         width="256"
         height="256"
         x="0"
         y="0"
         inkscape:label="plate" />
    </g>
    <g
       inkscape:groupmode="layer"
       id="layer2"
       inkscape:label="Shadows">
      <path
         inkscape:connector-curvature="0"
         style="color:#000000;display:inline;overflow:visible;visibility:visible;opacity:0.2;fill:#000000;fill-opacity:1;fill-rule:nonzero;stroke:none;stroke-width:24.05768013;stroke-linecap:butt;stroke-linejoin:miter;stroke-miterlimit:4;stroke-dasharray:none;stroke-dashoffset:0;stroke-opacity:1;marker:none;filter:url(#filter1096);enable-background:accumulate"
         d="m 128.2216,17.565702 c -8.07053,-0.08976 -10.89349,0.209916 -12.02867,9.968384 l -0.43251,3.448459 c -0.99615,6.329009 -1.18656,9.194899 -7.17456,10.745745 -0.40124,0.08971 -0.80183,0.179658 -1.20111,0.27471 -0.0946,0.01946 -0.17785,0.04225 -0.27471,0.06137 l 0.0119,0.0031 c -1.51178,0.364716 -3.00739,0.76973 -4.48883,1.20988 l 0.015,-0.01754 c -0.24745,0.08451 -0.47294,0.151893 -0.70725,0.225027 -0.22421,0.06857 -0.44863,0.134339 -0.67216,0.204571 -6.017226,1.687943 -7.609186,-0.699716 -11.651686,-5.701679 l -2.10109,-2.770486 c -2.93118,-3.941745 -5.04222,-5.624112 -7.29143,-5.806855 -0.28114,-0.02285 -0.56608,-0.02254 -0.85336,0 -2.01085,0.157788 -4.21528,1.39187 -7.25344,3.191284 -7.03414,3.957532 -9.32892,5.625563 -5.43279,14.644263 l 1.34724,3.20297 c 2.47839,6.437804 3.76812,8.928768 -1.94927,13.922424 l 0.15198,-0.03499 c -1.1817,1.120086 -2.33126,2.272595 -3.4514,3.454311 l 0.0322,-0.151975 c -4.99367,5.717391 -7.48462,4.427658 -13.92242,1.949264 l -3.20301,-1.350178 c -2.81833,-1.217536 -4.91894,-1.829575 -6.5959,-1.882035 -3.68933,-0.11552 -5.32754,2.478855 -8.04835,7.314819 -4.11298,6.944386 -5.26794,9.538817 2.61556,15.401169 l 2.77046,2.101226 c 5.00196,4.042498 7.38962,5.634456 5.70165,11.65172 -0.0703,0.22351 -0.13597,0.44791 -0.20457,0.67216 -0.0732,0.23429 -0.13756,0.4598 -0.22211,0.70721 l 0.0147,-0.015 c -0.44015,1.48148 -0.84517,2.97708 -1.20988,4.48886 l -0.003,-0.0119 c -0.019,0.0969 -0.0418,0.18035 -0.0614,0.27472 -0.0951,0.39927 -0.18502,0.79984 -0.27471,1.20109 -1.55084,5.98802 -4.41673,6.17845 -10.74575,7.17457 l -3.44846,0.43253 c -9.75847,1.13519 -10.05812,3.95816 -9.96838,12.02867 -0.0898,8.07052 0.20991,10.89353 9.96838,12.02869 l 3.44846,0.4325 c 6.32901,0.99614 9.19492,1.18656 10.74575,7.17458 0.0897,0.40125 0.17966,0.80185 0.27471,1.20112 0.0195,0.0946 0.0422,0.17782 0.0614,0.27467 l 0.003,-0.0119 c 0.36471,1.51178 0.76973,3.00738 1.20988,4.48883 l -0.0175,-0.015 c 0.0846,0.24747 0.15183,0.47291 0.22503,0.70723 0.0686,0.22419 0.13428,0.44867 0.20457,0.67218 1.68797,6.01723 -0.69969,7.60919 -5.70165,11.65166 l -2.77046,2.10126 c -7.88348,5.86233 -6.72853,8.45383 -2.61556,15.39823 3.95753,7.03411 5.62558,9.32892 14.64426,5.43278 l 3.20297,-1.34725 c 6.43778,-2.47837 8.92874,-3.76811 13.92242,1.94928 l -0.035,-0.152 c 1.12008,1.18172 2.27261,2.33132 3.45431,3.4514 l -0.15198,-0.0324 c 5.71739,4.99369 4.42766,7.48463 1.94926,13.92245 l -1.35016,3.20294 c -3.89614,9.01868 -1.60135,10.68965 5.43278,14.6472 6.94439,4.11294 9.53882,5.26501 15.40117,-2.6185 l 2.10122,-2.77048 c 4.04249,-5.00196 5.63447,-7.38959 11.651676,-5.70164 0.22351,0.0703 0.44796,0.13604 0.67217,0.2046 0.23433,0.0734 0.45978,0.14032 0.70723,0.22504 l -0.0151,-0.0176 c 1.48143,0.44014 2.97704,0.84518 4.48882,1.20989 l -0.012,0.004 c 0.0969,0.019 0.18033,0.0418 0.27468,0.0613 0.3993,0.0952 0.79987,0.18502 1.20112,0.27473 5.98801,1.55081 6.17842,4.41672 7.17457,10.74572 l 0.4325,3.44844 c 1.13518,9.75849 3.95815,10.05814 12.02869,9.9684 8.07048,0.0898 10.89347,-0.20991 12.02869,-9.9684 l 0.43251,-3.44844 c 0.99616,-6.32901 1.18654,-9.19492 7.17458,-10.74572 0.40124,-0.0899 0.80182,-0.17968 1.2011,-0.27473 0.0946,-0.0195 0.17783,-0.0419 0.27473,-0.0613 l -0.012,-0.004 c 1.51181,-0.36471 3.00737,-0.76975 4.48885,-1.20989 l -0.015,0.0176 c 0.24742,-0.0844 0.47288,-0.15189 0.70721,-0.22504 0.22424,-0.0686 0.44867,-0.1342 0.67217,-0.2046 6.01724,-1.68795 7.60922,0.69969 11.6517,5.70164 l 2.10122,2.77048 c 5.86234,7.8835 8.45384,6.72857 15.39824,2.61556 7.03415,-3.95753 9.32891,-5.62557 5.43278,-14.64426 l -1.34724,-3.20294 c -2.47845,-6.43775 -3.76813,-8.92876 1.94927,-13.92245 l -0.15199,0.0351 c 1.18173,-1.12009 2.33133,-2.27263 3.4514,-3.45432 l -0.0321,0.15198 c 4.99368,-5.71737 7.4846,-4.42767 13.9224,-1.94926 l 3.20299,1.35015 c 9.01867,3.89613 10.68669,1.60137 14.64426,-5.43278 4.11296,-6.9444 5.26792,-9.53882 -2.61554,-15.40116 l -2.77049,-2.10124 c -5.00196,-4.04246 -7.38962,-5.63445 -5.70164,-11.65167 0.0703,-0.22348 0.13588,-0.44797 0.2046,-0.67218 0.0732,-0.23434 0.13766,-0.45976 0.22207,-0.70723 l -0.015,0.0151 c 0.44015,-1.48147 0.84513,-2.97707 1.20986,-4.48885 l 0.004,0.0119 c 0.0189,-0.0969 0.0418,-0.18033 0.0613,-0.27471 0.0952,-0.39925 0.18502,-0.79983 0.27471,-1.20113 1.55086,-5.988 4.41673,-6.1784 10.74576,-7.17455 l 3.44846,-0.43252 c 9.75846,-1.13516 10.0581,-3.95816 9.96836,-12.02866 0.0899,-8.07051 -0.20988,-10.89348 -9.96836,-12.0287 l -3.44846,-0.43253 c -6.32903,-0.9961 -9.1949,-1.1865 -10.74576,-7.17453 -0.0897,-0.40128 -0.17967,-0.80184 -0.27471,-1.20111 -0.0195,-0.0946 -0.0419,-0.17788 -0.0613,-0.27473 l -0.004,0.0119 c -0.36473,-1.51178 -0.7697,-3.00738 -1.20986,-4.48883 l 0.0176,0.015 c -0.0844,-0.2474 -0.15189,-0.47289 -0.22503,-0.70722 -0.0687,-0.22421 -0.13421,-0.44866 -0.20457,-0.67215 -1.68797,-6.017265 0.69969,-7.609217 5.70163,-11.651721 l 2.77046,-2.101226 c 7.88352,-5.862336 6.72855,-8.453833 2.61556,-15.398234 -2.72081,-4.835963 -4.35899,-7.433163 -8.04834,-7.317755 -1.67695,0.05252 -3.77759,0.667417 -6.59592,1.884969 l -3.20296,1.347238 c -6.43771,2.478438 -8.92875,3.768142 -13.92244,-1.949264 l 0.0348,0.151976 c -1.12007,-1.181718 -2.2726,-2.331293 -3.45431,-3.451396 l 0.15198,0.03217 c -5.71737,-4.99367 -4.42768,-7.484618 -1.94929,-13.922424 l 1.35019,-3.202966 c 3.89613,-9.01869 1.60136,-10.686723 -5.43279,-14.644262 -3.47219,-2.056483 -5.85758,-3.374021 -8.10681,-3.191287 -2.24919,0.182739 -4.3632,1.865109 -7.29435,5.806853 l -2.10121,2.770457 c -4.0425,5.001956 -5.63444,7.389606 -11.65173,5.701648 -0.22347,-0.07037 -0.44793,-0.135982 -0.67215,-0.204572 -0.23432,-0.07324 -0.4598,-0.137537 -0.70723,-0.222105 l 0.0151,0.01465 c -1.48148,-0.440152 -2.97703,-0.84517 -4.48884,-1.209885 l 0.0119,-0.0031 c -0.0969,-0.01901 -0.18035,-0.04182 -0.27473,-0.06137 -0.39925,-0.09504 -0.79983,-0.18502 -1.2011,-0.274709 -5.98801,-1.550849 -6.17841,-4.416736 -7.17455,-10.745748 l -0.43249,-3.448427 c -1.13461,-9.758432 -3.9576,-10.058087 -12.02812,-9.968346 z m -0.0176,46.375923 c 0.006,-1.4e-5 0.0119,-1.4e-5 0.0176,0 7.57912,4.48e-4 14.90416,1.309142 21.74868,3.711479 a 17.955363,17.955363 0 0 0 8.17692,10.292775 17.955363,17.955363 0 0 0 12.97266,1.931713 c 10.77821,9.263024 18.59847,22.000888 21.60544,36.731938 0.75775,3.71083 -2.0779,7.18372 -5.86532,7.18329 H 168.3377 c -2.64728,2.5e-4 -4.98034,-1.7385 -5.73671,-4.27546 -4.53986,-15.22717 -18.47699,-25.625516 -34.36475,-25.647213 -2.79136,0.0151 -5.57257,0.352211 -8.28507,1.011157 -2.58151,0.626911 -5.26734,-0.522621 -6.59591,-2.823046 l -9.24653,-16.011964 c -1.88968,-3.27476 -0.30754,-7.459512 3.276,-8.664976 6.71034,-2.258707 13.73911,-3.420244 20.81935,-3.439693 z M 88.842004,79.047622 c 2.03659,0.09545 3.88455,1.220966 4.90382,2.986725 l 9.246556,16.011955 c 1.32488,2.294508 0.98368,5.187008 -0.83874,7.110238 -6.303586,6.65343 -9.824016,15.4593 -9.842716,24.62436 0.0106,9.17029 3.52434,17.98438 9.828096,24.64478 1.82103,1.92274 2.16217,4.81351 0.83874,7.10734 l -9.220236,15.97395 c -1.89259,3.27837 -6.31496,3.99874 -9.15011,1.49046 -11.00998,-9.73637 -18.33552,-22.80094 -21.04144,-37.01835 a 17.955363,17.955363 0 0 0 4.80446,-12.20111 17.955363,17.955363 0 0 0 -4.80738,-12.19528 c 2.70002,-14.22384 10.02104,-27.295834 21.03267,-37.038786 1.16677,-1.032345 2.69007,-1.569151 4.24628,-1.496282 z M 168.35234,135.7631 h 18.44637 c 3.78734,-3.7e-4 6.62302,3.47251 5.86529,7.18331 -3.00523,14.7223 -10.81849,27.45519 -21.58799,36.7173 a 17.955363,17.955363 0 0 0 -4.37485,-0.45296 17.955363,17.955363 0 0 0 -8.55392,2.39931 17.955363,17.955363 0 0 0 -8.15938,10.26648 c -6.84642,2.41268 -14.17602,3.72954 -21.76035,3.73777 -0.007,5e-5 -0.0186,5e-5 -0.0292,0 -7.07718,-0.0282 -14.10268,-1.19811 -20.80764,-3.46306 -3.57928,-1.20847 -5.15782,-5.38971 -3.27018,-8.66209 l 9.23191,-15.9915 c 1.32859,-2.30039 4.01441,-3.44994 6.59593,-2.82305 2.71424,0.65941 5.49771,0.99622 8.29089,1.01116 15.89245,-0.0163 29.83527,-10.41556 34.37647,-25.64717 0.75637,-2.53695 3.08939,-4.27573 5.73672,-4.2755 z"
         id="path4356-73" />
      <path
         inkscape:connector-curvature="0"
         style="color:#000000;display:inline;overflow:visible;visibility:visible;opacity:0.1;fill:#000000;fill-opacity:1;fill-rule:nonzero;stroke:none;stroke-width:24.05768013;stroke-linecap:butt;stroke-linejoin:miter;stroke-miterlimit:4;stroke-dasharray:none;stroke-dashoffset:0;stroke-opacity:1;marker:none;filter:url(#filter1092);enable-background:accumulate"
         d="m 128.2217,15.565719 c -8.07053,-0.08976 -10.89349,0.209916 -12.02867,9.968384 l -0.43252,3.44846 c -0.99615,6.329009 -1.18656,9.194899 -7.17456,10.745745 -0.40124,0.08971 -0.80183,0.179658 -1.20111,0.27471 -0.0946,0.01946 -0.17785,0.04225 -0.27471,0.06137 l 0.0119,0.0031 c -1.51178,0.364716 -3.00739,0.76973 -4.48883,1.20988 l 0.015,-0.01754 c -0.24745,0.08451 -0.47294,0.151893 -0.70725,0.225027 -0.22421,0.06857 -0.44863,0.134339 -0.67216,0.204571 -6.01723,1.687943 -7.609185,-0.699716 -11.651682,-5.701679 l -2.101091,-2.770486 c -2.931185,-3.941745 -5.042226,-5.624112 -7.291435,-5.806855 -0.281135,-0.02285 -0.566074,-0.02254 -0.853359,0 -2.010851,0.157788 -4.215277,1.39187 -7.253443,3.191284 -7.034133,3.957532 -9.328917,5.625563 -5.432784,14.644258 l 1.347234,3.20297 c 2.478397,6.43781 3.768128,8.92877 -1.949263,13.92243 l 0.151977,-0.035 c -1.181703,1.12008 -2.331264,2.27259 -3.451395,3.45431 l 0.03218,-0.15198 c -4.993672,5.7174 -7.48462,4.42766 -13.922421,1.94927 l -3.203012,-1.35018 c -2.818333,-1.21754 -4.918941,-1.82957 -6.595905,-1.88203 -3.68933,-0.11552 -5.327541,2.47885 -8.048351,7.31481 -4.112971,6.94439 -5.267931,9.53882 2.615567,15.40117 l 2.770456,2.10123 c 5.001957,4.0425 7.389623,5.63446 5.701647,11.651712 -0.07031,0.22351 -0.135967,0.44791 -0.204569,0.67216 -0.07323,0.23429 -0.137556,0.4598 -0.222105,0.70721 l 0.01467,-0.015 c -0.44015,1.48148 -0.845172,2.97708 -1.209884,4.48886 l -0.0031,-0.0119 c -0.019,0.0969 -0.04182,0.18035 -0.06135,0.27472 -0.09505,0.39927 -0.185017,0.79984 -0.274706,1.20109 -1.550843,5.98802 -4.416731,6.17845 -10.745749,7.17457 l -3.448457,0.43253 c -9.758471,1.13519 -10.058121,3.95816 -9.968383,12.02867 -0.08976,8.07052 0.209904,10.89353 9.968383,12.02869 l 3.448457,0.4325 c 6.32901,0.99614 9.194913,1.18656 10.745749,7.17458 0.0897,0.40125 0.179654,0.80185 0.274706,1.20112 0.01946,0.0946 0.04224,0.17782 0.06135,0.27467 l 0.0031,-0.0119 c 0.364712,1.51178 0.769734,3.00738 1.209884,4.48883 l -0.01754,-0.015 c 0.08456,0.24747 0.151829,0.47291 0.225027,0.70723 0.06857,0.22419 0.134277,0.44867 0.20457,0.67218 1.687968,6.01723 -0.699688,7.60919 -5.701647,11.65166 l -2.770458,2.10126 c -7.883487,5.86233 -6.728533,8.45383 -2.615565,15.39823 3.957533,7.03411 5.625577,9.32892 14.644258,5.43278 l 3.202975,-1.34725 c 6.437783,-2.47837 8.928742,-3.76811 13.922416,1.94928 l -0.035,-0.152 c 1.120082,1.18172 2.272609,2.33132 3.454312,3.4514 l -0.151978,-0.0324 c 5.717391,4.99369 4.427656,7.48463 1.949262,13.92245 l -1.350166,3.20294 c -3.896136,9.01868 -1.601351,10.68965 5.432786,14.6472 6.944385,4.11294 9.538815,5.26501 15.401165,-2.6185 l 2.101226,-2.77048 c 4.042487,-5.00196 5.634462,-7.38959 11.651671,-5.70164 0.22351,0.0703 0.44796,0.13604 0.67217,0.2046 0.23433,0.0734 0.45978,0.14032 0.70723,0.22504 l -0.0151,-0.0176 c 1.48143,0.44014 2.97704,0.84518 4.48882,1.20989 l -0.012,0.004 c 0.0969,0.019 0.18033,0.0418 0.27468,0.0613 0.3993,0.0952 0.79987,0.18502 1.20112,0.27473 5.98801,1.55081 6.17842,4.41672 7.17457,10.74572 l 0.43251,3.44844 c 1.13518,9.75849 3.95815,10.05814 12.02869,9.9684 8.07048,0.0898 10.89347,-0.20991 12.02869,-9.9684 l 0.43251,-3.44844 c 0.99616,-6.32901 1.18654,-9.19492 7.17458,-10.74572 0.40124,-0.0899 0.80182,-0.17968 1.2011,-0.27473 0.0946,-0.0195 0.17783,-0.0419 0.27473,-0.0613 l -0.012,-0.004 c 1.51181,-0.36471 3.00737,-0.76975 4.48885,-1.20989 l -0.015,0.0176 c 0.24742,-0.0844 0.47288,-0.15189 0.70721,-0.22504 0.22424,-0.0686 0.44867,-0.1342 0.67217,-0.2046 6.01724,-1.68795 7.60922,0.69969 11.6517,5.70164 l 2.10122,2.77048 c 5.86234,7.8835 8.45384,6.72857 15.39824,2.61556 7.03415,-3.95753 9.32891,-5.62557 5.43278,-14.64426 l -1.34724,-3.20294 c -2.47845,-6.43775 -3.76813,-8.92876 1.94927,-13.92245 l -0.15199,0.0351 c 1.18173,-1.12009 2.33133,-2.27263 3.4514,-3.45432 l -0.0321,0.15198 c 4.99368,-5.71737 7.4846,-4.42767 13.9224,-1.94926 l 3.20299,1.35015 c 9.01867,3.89613 10.68669,1.60137 14.64426,-5.43278 4.11296,-6.9444 5.26792,-9.53882 -2.61554,-15.40116 l -2.77049,-2.10124 c -5.00196,-4.04246 -7.38962,-5.63445 -5.70164,-11.65167 0.0703,-0.22348 0.13588,-0.44797 0.2046,-0.67218 0.0732,-0.23434 0.13766,-0.45976 0.22207,-0.70723 l -0.015,0.0151 c 0.44015,-1.48147 0.84513,-2.97707 1.20986,-4.48885 l 0.004,0.0119 c 0.0189,-0.0969 0.0418,-0.18033 0.0613,-0.27471 0.0952,-0.39925 0.18502,-0.79983 0.27471,-1.20113 1.55086,-5.988 4.41673,-6.1784 10.74576,-7.17455 l 3.44846,-0.43252 c 9.75846,-1.13516 10.0581,-3.95816 9.96836,-12.02866 0.0899,-8.07051 -0.20988,-10.89348 -9.96836,-12.0287 l -3.44846,-0.43253 c -6.32903,-0.9961 -9.1949,-1.1865 -10.74576,-7.17453 -0.0897,-0.40128 -0.17967,-0.80184 -0.27471,-1.20111 -0.0195,-0.0946 -0.0419,-0.17788 -0.0613,-0.27473 l -0.004,0.0119 c -0.36473,-1.51178 -0.7697,-3.00738 -1.20986,-4.48883 l 0.0176,0.015 c -0.0844,-0.2474 -0.15189,-0.47289 -0.22503,-0.70722 -0.0687,-0.22421 -0.13421,-0.44866 -0.20457,-0.67215 -1.68797,-6.017262 0.69969,-7.609212 5.70163,-11.651712 l 2.77046,-2.10123 c 7.88352,-5.86233 6.72855,-8.45383 2.61556,-15.39823 -2.72081,-4.83596 -4.35899,-7.43316 -8.04834,-7.31776 -1.67695,0.0525 -3.77759,0.66742 -6.59592,1.88497 l -3.20296,1.34724 c -6.43771,2.47844 -8.92875,3.76814 -13.92244,-1.94926 l 0.0348,0.15197 c -1.12007,-1.18172 -2.2726,-2.33129 -3.45431,-3.45139 l 0.15198,0.0322 c -5.71737,-4.99367 -4.42768,-7.48462 -1.94929,-13.92243 l 1.35019,-3.20296 c 3.89613,-9.018693 1.60136,-10.686726 -5.43279,-14.644265 -3.47219,-2.056483 -5.85758,-3.374021 -8.10681,-3.191287 -2.24919,0.182739 -4.3632,1.865109 -7.29435,5.806853 l -2.10121,2.770457 c -4.0425,5.001956 -5.63444,7.389606 -11.65173,5.701648 -0.22347,-0.07037 -0.44793,-0.135982 -0.67215,-0.204572 -0.23432,-0.07324 -0.4598,-0.137537 -0.70723,-0.222105 l 0.0151,0.01465 c -1.48148,-0.440152 -2.97703,-0.84517 -4.48884,-1.209885 l 0.0119,-0.0031 c -0.0969,-0.01901 -0.18035,-0.04182 -0.27473,-0.06137 -0.39925,-0.09504 -0.79983,-0.18502 -1.2011,-0.274709 -5.98801,-1.550849 -6.17841,-4.416736 -7.17455,-10.745748 l -0.43249,-3.448428 c -1.13461,-9.758432 -3.9576,-10.058087 -12.02812,-9.968346 z m -0.0176,46.375919 c 0.006,-10e-6 0.0119,-10e-6 0.0176,0 7.57912,4.5e-4 14.90416,1.30915 21.74868,3.71148 a 17.955363,17.955363 0 0 0 8.17692,10.29278 17.955363,17.955363 0 0 0 12.97266,1.93171 c 10.77821,9.26303 18.59847,22.00088 21.60544,36.731932 0.75775,3.71083 -2.0779,7.18372 -5.86532,7.18329 H 168.3378 c -2.64728,2.5e-4 -4.98034,-1.7385 -5.73671,-4.27546 -4.53986,-15.22717 -18.47699,-25.625512 -34.36475,-25.647202 -2.79136,0.0151 -5.57257,0.35221 -8.28507,1.01115 -2.58151,0.62691 -5.26735,-0.52262 -6.59592,-2.82304 l -9.24653,-16.01197 c -1.88968,-3.27476 -0.30754,-7.45951 3.276,-8.66497 6.71034,-2.25871 13.73912,-3.42025 20.81936,-3.4397 z m -39.362007,15.106 c 2.036588,0.0954 3.884553,1.22097 4.903821,2.98673 l 9.246556,16.01195 c 1.32488,2.29451 0.98368,5.187002 -0.83874,7.110232 -6.303584,6.65343 -9.824015,15.4593 -9.84272,24.62436 0.01056,9.17029 3.524343,17.98438 9.8281,24.64478 1.82103,1.92274 2.16217,4.81351 0.83874,7.10734 l -9.220235,15.97395 c -1.892586,3.27837 -6.314962,3.99874 -9.150113,1.49046 C 73.597526,167.26107 66.27198,154.1965 63.566061,139.97909 a 17.955363,17.955363 0 0 0 4.804465,-12.20111 17.955363,17.955363 0 0 0 -4.807383,-12.19528 c 2.700022,-14.22384 10.021038,-27.295822 21.032673,-37.038782 1.16677,-1.03234 2.690072,-1.56915 4.246277,-1.49628 z m 79.510347,56.715472 h 18.44637 c 3.78734,-3.7e-4 6.62302,3.47251 5.86529,7.18331 -3.00523,14.7223 -10.81849,27.45519 -21.58799,36.7173 a 17.955363,17.955363 0 0 0 -4.37485,-0.45296 17.955363,17.955363 0 0 0 -8.55392,2.39931 17.955363,17.955363 0 0 0 -8.15938,10.26648 c -6.84642,2.41268 -14.17602,3.72954 -21.76035,3.73777 -0.007,5e-5 -0.0186,5e-5 -0.0292,0 -7.07718,-0.0282 -14.10269,-1.19811 -20.80765,-3.46306 -3.57928,-1.20847 -5.15782,-5.38971 -3.27018,-8.66209 l 9.23191,-15.9915 c 1.32859,-2.30039 4.01442,-3.44994 6.59594,-2.82305 2.71424,0.65941 5.49771,0.99622 8.29089,1.01116 15.89245,-0.0163 29.83527,-10.41556 34.37647,-25.64717 0.75637,-2.53695 3.08939,-4.27573 5.73672,-4.2755 z"
         id="path4356-7" />
    </g>
    <g
       inkscape:groupmode="layer"
       id="layer3"
       inkscape:label="Pictogram"
       style="display:inline">
      <path
         inkscape:connector-curvature="0"
         style="color:#000000;display:inline;overflow:visible;visibility:visible;opacity:1;fill:url(#linearGradient1066);fill-opacity:1;fill-rule:nonzero;stroke:none;stroke-width:24.05768013;stroke-linecap:butt;stroke-linejoin:miter;stroke-miterlimit:4;stroke-dasharray:none;stroke-dashoffset:0;stroke-opacity:1;marker:none;enable-background:accumulate"
         d="m 128.2217,15.565633 c -8.07053,-0.08976 -10.89349,0.209916 -12.02867,9.968384 l -0.43252,3.448459 c -0.99615,6.329009 -1.18656,9.194899 -7.17456,10.745745 -0.40124,0.08971 -0.80183,0.179658 -1.20111,0.27471 -0.0946,0.01946 -0.17785,0.04225 -0.27471,0.06137 l 0.0119,0.0031 c -1.51178,0.364716 -3.00739,0.76973 -4.48883,1.20988 l 0.015,-0.01754 c -0.24745,0.08451 -0.47294,0.151893 -0.70725,0.225027 -0.22421,0.06857 -0.44863,0.134339 -0.67216,0.204571 -6.017229,1.687943 -7.609184,-0.699716 -11.651681,-5.701679 l -2.101091,-2.770486 c -2.931185,-3.941745 -5.042226,-5.624112 -7.291435,-5.806855 -0.281135,-0.02285 -0.566074,-0.02254 -0.853359,0 -2.010851,0.157788 -4.215277,1.39187 -7.253443,3.191284 -7.034133,3.957532 -9.328917,5.625563 -5.432784,14.644263 l 1.347234,3.20297 c 2.478397,6.437804 3.768128,8.928768 -1.949263,13.922424 l 0.151977,-0.03499 c -1.181703,1.120086 -2.331264,2.272595 -3.451395,3.454311 l 0.03218,-0.151975 c -4.993672,5.717391 -7.48462,4.427658 -13.922421,1.949264 l -3.203012,-1.350178 c -2.818333,-1.217536 -4.918941,-1.829575 -6.595905,-1.882035 -3.68933,-0.11552 -5.327541,2.478855 -8.048351,7.314819 -4.112971,6.944386 -5.267932,9.538817 2.615567,15.401169 l 2.770456,2.101226 c 5.001957,4.042498 7.389623,5.634456 5.701647,11.651709 -0.07031,0.22351 -0.135967,0.44791 -0.204569,0.67216 -0.07323,0.23429 -0.137556,0.4598 -0.222105,0.70721 l 0.01467,-0.015 c -0.44015,1.48148 -0.845172,2.97708 -1.209884,4.48886 l -0.0031,-0.0119 c -0.019,0.0969 -0.04182,0.18035 -0.06135,0.27472 -0.09505,0.39927 -0.185017,0.79984 -0.274706,1.20109 -1.550843,5.98802 -4.416731,6.17845 -10.745749,7.17457 l -3.448458,0.43253 c -9.758471,1.13519 -10.058121,3.95816 -9.968383,12.02867 -0.08976,8.07052 0.209904,10.89353 9.968383,12.02869 l 3.448458,0.4325 c 6.32901,0.99614 9.194913,1.18656 10.745749,7.17458 0.0897,0.40125 0.179654,0.80185 0.274706,1.20112 0.01946,0.0946 0.04224,0.17782 0.06135,0.27467 l 0.0031,-0.0119 c 0.364712,1.51178 0.769734,3.00738 1.209884,4.48883 l -0.01754,-0.015 c 0.08456,0.24747 0.151829,0.47291 0.225027,0.70723 0.06857,0.22419 0.134277,0.44867 0.20457,0.67218 1.687968,6.01723 -0.699688,7.60919 -5.701647,11.65166 l -2.770458,2.10126 c -7.883488,5.86233 -6.728533,8.45383 -2.615565,15.39823 3.957533,7.03411 5.625577,9.32892 14.644258,5.43278 l 3.202975,-1.34725 c 6.437783,-2.47837 8.928742,-3.76811 13.922416,1.94928 l -0.035,-0.152 c 1.120082,1.18172 2.272609,2.33132 3.454312,3.4514 l -0.151978,-0.0324 c 5.717391,4.99369 4.427656,7.48463 1.949262,13.92245 l -1.350166,3.20294 c -3.896136,9.01868 -1.601351,10.68965 5.432786,14.6472 6.944385,4.11294 9.538815,5.26501 15.401165,-2.6185 l 2.101226,-2.77048 c 4.042487,-5.00196 5.634462,-7.38959 11.65167,-5.70164 0.22351,0.0703 0.44796,0.13604 0.67217,0.2046 0.23433,0.0734 0.45978,0.14032 0.70723,0.22504 l -0.0151,-0.0176 c 1.48143,0.44014 2.97704,0.84518 4.48882,1.20989 l -0.012,0.004 c 0.0969,0.019 0.18033,0.0418 0.27468,0.0613 0.3993,0.0952 0.79987,0.18502 1.20112,0.27473 5.98801,1.55081 6.17842,4.41672 7.17457,10.74572 l 0.43251,3.44844 c 1.13518,9.75849 3.95815,10.05814 12.02869,9.9684 8.07048,0.0898 10.89347,-0.20991 12.02869,-9.9684 l 0.43251,-3.44844 c 0.99616,-6.32901 1.18654,-9.19492 7.17458,-10.74572 0.40124,-0.0899 0.80182,-0.17968 1.2011,-0.27473 0.0946,-0.0195 0.17783,-0.0419 0.27473,-0.0613 l -0.012,-0.004 c 1.51181,-0.36471 3.00737,-0.76975 4.48885,-1.20989 l -0.015,0.0176 c 0.24742,-0.0844 0.47288,-0.15189 0.70721,-0.22504 0.22424,-0.0686 0.44867,-0.1342 0.67217,-0.2046 6.01724,-1.68795 7.60922,0.69969 11.6517,5.70164 l 2.10122,2.77048 c 5.86234,7.8835 8.45384,6.72857 15.39824,2.61556 7.03415,-3.95753 9.32891,-5.62557 5.43278,-14.64426 l -1.34724,-3.20294 c -2.47845,-6.43775 -3.76813,-8.92876 1.94927,-13.92245 l -0.15199,0.0351 c 1.18173,-1.12009 2.33133,-2.27263 3.4514,-3.45432 l -0.0321,0.15198 c 4.99368,-5.71737 7.4846,-4.42767 13.9224,-1.94926 l 3.20299,1.35015 c 9.01867,3.89613 10.68669,1.60137 14.64426,-5.43278 4.11296,-6.9444 5.26792,-9.53882 -2.61554,-15.40116 l -2.77049,-2.10124 c -5.00196,-4.04246 -7.38962,-5.63445 -5.70164,-11.65167 0.0703,-0.22348 0.13588,-0.44797 0.2046,-0.67218 0.0732,-0.23434 0.13766,-0.45976 0.22207,-0.70723 l -0.015,0.0151 c 0.44015,-1.48147 0.84513,-2.97707 1.20986,-4.48885 l 0.004,0.0119 c 0.0189,-0.0969 0.0418,-0.18033 0.0613,-0.27471 0.0952,-0.39925 0.18502,-0.79983 0.27471,-1.20113 1.55086,-5.988 4.41673,-6.1784 10.74576,-7.17455 l 3.44846,-0.43252 c 9.75846,-1.13516 10.0581,-3.95816 9.96836,-12.02866 0.0899,-8.07051 -0.20988,-10.89348 -9.96836,-12.0287 l -3.44846,-0.43253 c -6.32903,-0.9961 -9.1949,-1.1865 -10.74576,-7.17453 -0.0897,-0.40128 -0.17967,-0.80184 -0.27471,-1.20111 -0.0195,-0.0946 -0.0419,-0.17788 -0.0613,-0.27473 l -0.004,0.0119 c -0.36473,-1.51178 -0.7697,-3.00738 -1.20986,-4.48883 l 0.0176,0.015 c -0.0844,-0.2474 -0.15189,-0.47289 -0.22503,-0.70722 -0.0687,-0.22421 -0.13421,-0.44866 -0.20457,-0.67215 -1.68797,-6.017254 0.69969,-7.609206 5.70163,-11.65171 l 2.77046,-2.101226 c 7.88352,-5.862336 6.72855,-8.453833 2.61556,-15.398234 -2.72081,-4.835963 -4.35899,-7.433163 -8.04834,-7.317755 -1.67695,0.05252 -3.77759,0.667417 -6.59592,1.884969 l -3.20296,1.347238 c -6.43771,2.478438 -8.92875,3.768142 -13.92244,-1.949264 l 0.0348,0.151976 c -1.12007,-1.181718 -2.2726,-2.331293 -3.45431,-3.451396 l 0.15198,0.03217 c -5.71737,-4.99367 -4.42768,-7.484618 -1.94929,-13.922424 l 1.35019,-3.202966 c 3.89613,-9.01869 1.60136,-10.686723 -5.43279,-14.644262 -3.47219,-2.056483 -5.85758,-3.374021 -8.10681,-3.191287 -2.24919,0.182739 -4.3632,1.865109 -7.29435,5.806853 l -2.10121,2.770457 c -4.0425,5.001956 -5.63444,7.389606 -11.65173,5.701648 -0.22347,-0.07037 -0.44793,-0.135982 -0.67215,-0.204572 -0.23432,-0.07324 -0.4598,-0.137537 -0.70723,-0.222105 l 0.0151,0.01465 c -1.48148,-0.440152 -2.97703,-0.84517 -4.48884,-1.209885 l 0.0119,-0.0031 c -0.0969,-0.01901 -0.18035,-0.04182 -0.27473,-0.06137 -0.39925,-0.09504 -0.79983,-0.18502 -1.2011,-0.274709 -5.98801,-1.550849 -6.17841,-4.416736 -7.17455,-10.745748 l -0.43249,-3.448427 c -1.13461,-9.758432 -3.9576,-10.058087 -12.02812,-9.968346 z m -0.0176,46.375923 c 0.006,-1.4e-5 0.0119,-1.4e-5 0.0176,0 7.57912,4.48e-4 14.90416,1.309142 21.74868,3.711479 a 17.955363,17.955363 0 0 0 8.17692,10.292775 17.955363,17.955363 0 0 0 12.97266,1.931713 c 10.77821,9.263024 18.59847,22.000883 21.60544,36.731927 0.75775,3.71083 -2.0779,7.18372 -5.86532,7.18329 H 168.3378 c -2.64728,2.5e-4 -4.98034,-1.7385 -5.73671,-4.27546 -4.53986,-15.22717 -18.47699,-25.625505 -34.36475,-25.647202 -2.79136,0.0151 -5.57257,0.352211 -8.28507,1.011157 -2.58151,0.626911 -5.26735,-0.522621 -6.59592,-2.823046 l -9.24653,-16.011964 c -1.88968,-3.27476 -0.30754,-7.459512 3.276,-8.664976 6.71034,-2.258707 13.73912,-3.420244 20.81936,-3.439693 z M 88.842094,77.047553 c 2.036588,0.09545 3.884553,1.220966 4.903821,2.986725 l 9.246555,16.011955 c 1.32488,2.294505 0.98368,5.186997 -0.83874,7.110227 -6.303583,6.65343 -9.824014,15.4593 -9.842719,24.62436 0.01056,9.17029 3.524343,17.98438 9.828099,24.64478 1.82103,1.92274 2.16217,4.81351 0.83874,7.10734 l -9.220234,15.97395 c -1.892586,3.27837 -6.314962,3.99874 -9.150113,1.49046 C 73.597527,167.26098 66.271981,154.19641 63.566062,139.979 a 17.955363,17.955363 0 0 0 4.804465,-12.20111 17.955363,17.955363 0 0 0 -4.807383,-12.19528 c 2.700022,-14.22384 10.021038,-27.295823 21.032673,-37.038775 1.16677,-1.032345 2.690072,-1.569151 4.246277,-1.496282 z m 79.510346,56.715467 h 18.44637 c 3.78734,-3.7e-4 6.62302,3.47251 5.86529,7.18331 -3.00523,14.7223 -10.81849,27.45519 -21.58799,36.7173 a 17.955363,17.955363 0 0 0 -4.37485,-0.45296 17.955363,17.955363 0 0 0 -8.55392,2.39931 17.955363,17.955363 0 0 0 -8.15938,10.26648 c -6.84642,2.41268 -14.17602,3.72954 -21.76035,3.73777 -0.007,5e-5 -0.0186,5e-5 -0.0292,0 -7.07718,-0.0282 -14.10269,-1.19811 -20.80765,-3.46306 -3.57928,-1.20847 -5.15782,-5.38971 -3.27018,-8.66209 l 9.23191,-15.9915 c 1.32859,-2.30039 4.01442,-3.44994 6.59594,-2.82305 2.71424,0.65941 5.49771,0.99622 8.29089,1.01116 15.89245,-0.0163 29.83527,-10.41556 34.37647,-25.64717 0.75637,-2.53695 3.08939,-4.27573 5.73672,-4.2755 z"
         id="path4356" />
      <path
         inkscape:connector-curvature="0"
         style="color:#000000;display:inline;overflow:visible;visibility:visible;opacity:0.25;fill:#ffffff;fill-opacity:1;fill-rule:nonzero;stroke:none;stroke-width:24.05768013;stroke-linecap:butt;stroke-linejoin:miter;stroke-miterlimit:4;stroke-dasharray:none;stroke-dashoffset:0;stroke-opacity:1;marker:none;enable-background:accumulate"
         d="m -264.45825,80.1483 c -8.07053,-0.08976 -10.89349,0.209916 -12.02867,9.968384 l -0.43252,3.44846 c -0.99615,6.32901 -1.18656,9.194896 -7.17456,10.745736 -0.40124,0.0897 -0.80183,0.17966 -1.20111,0.27471 -0.0946,0.0195 -0.17785,0.0422 -0.27471,0.0614 l 0.0119,0.003 c -1.51178,0.36472 -3.00739,0.76973 -4.48883,1.20988 l 0.015,-0.0175 c -0.24745,0.0845 -0.47294,0.1519 -0.70725,0.22503 -0.22421,0.0686 -0.44863,0.13434 -0.67216,0.20457 -6.01723,1.68795 -7.60918,-0.69971 -11.65168,-5.70168 l -2.10109,-2.770476 c -2.93119,-3.94175 -5.04223,-5.62411 -7.29144,-5.80686 -0.28113,-0.0228 -0.56607,-0.0225 -0.85336,0 -2.01085,0.15779 -4.21527,1.39187 -7.25344,3.19129 -7.03413,3.95753 -9.32892,5.625556 -5.43278,14.644256 l 1.34723,3.20297 c 2.4784,6.4378 3.76813,8.92877 -1.94926,13.92242 l 0.15198,-0.035 c -1.18171,1.12009 -2.33127,2.2726 -3.4514,3.45431 l 0.0322,-0.15197 c -4.99367,5.71739 -7.48462,4.42766 -13.92242,1.94926 l -3.20301,-1.35017 c -2.81834,-1.21754 -4.91894,-1.82958 -6.59591,-1.88204 -3.68933,-0.11552 -5.32754,2.47886 -8.04835,7.31482 -4.11297,6.94439 -5.26793,9.53882 2.61557,15.40117 l 2.77045,2.10122 c 5.00196,4.0425 7.38963,5.63446 5.70165,11.65171 -0.0703,0.22351 -0.13597,0.44791 -0.20457,0.67216 -0.0732,0.23429 -0.13755,0.4598 -0.2221,0.70721 l 0.0147,-0.015 c -0.44015,1.48148 -0.84517,2.97708 -1.20989,4.48886 l -0.003,-0.0119 c -0.019,0.0969 -0.0418,0.18035 -0.0613,0.27472 -0.0951,0.39927 -0.18501,0.79984 -0.2747,1.20109 -1.55085,5.98802 -4.41673,6.17845 -10.74575,7.17457 l -3.44846,0.43253 c -9.75847,1.13519 -10.05812,3.95816 -9.96838,12.02867 -0.0898,8.07052 0.2099,10.89353 9.96838,12.02869 l 3.44846,0.4325 c 6.32901,0.99614 9.19491,1.18656 10.74575,7.17458 0.0897,0.40125 0.17965,0.80185 0.2747,1.20112 0.0195,0.0946 0.0422,0.17782 0.0613,0.27467 l 0.003,-0.0119 c 0.36472,1.51178 0.76974,3.00738 1.20989,4.48883 l -0.0175,-0.015 c 0.0846,0.24747 0.15183,0.47291 0.22502,0.70723 0.0686,0.22419 0.13428,0.44867 0.20457,0.67218 1.68797,6.01723 -0.69968,7.60919 -5.70164,11.65166 l -2.77046,2.10126 c -7.88349,5.86233 -6.72853,8.45383 -2.61557,15.39823 3.95754,7.03411 5.62558,9.32892 14.64426,5.43278 l 3.20298,-1.34725 c 6.43778,-2.47837 8.92874,-3.76811 13.92241,1.94928 l -0.035,-0.152 c 1.12009,1.18172 2.27261,2.33132 3.45432,3.4514 l -0.15198,-0.0324 c 5.71739,4.99369 4.42765,7.48463 1.94926,13.92245 l -1.35017,3.20294 c -3.89613,9.01868 -1.60135,10.68965 5.43279,14.6472 6.94438,4.11294 9.53881,5.26501 15.40116,-2.6185 l 2.10123,-2.77048 c 4.04249,-5.00196 5.63446,-7.38959 11.65167,-5.70164 0.22351,0.0703 0.44796,0.13604 0.67217,0.2046 0.23433,0.0734 0.45978,0.14032 0.70723,0.22504 l -0.0151,-0.0176 c 1.48143,0.44014 2.97704,0.84518 4.48882,1.20989 l -0.012,0.004 c 0.0969,0.019 0.18033,0.0418 0.27468,0.0613 0.3993,0.0952 0.79987,0.18502 1.20112,0.27473 5.98801,1.55081 6.17842,4.41672 7.17457,10.74572 l 0.43251,3.44844 c 1.13518,9.75849 3.95815,10.05814 12.02869,9.9684 8.07048,0.0898 10.89347,-0.20991 12.02869,-9.9684 l 0.43251,-3.44844 c 0.99616,-6.32901 1.18654,-9.19492 7.17458,-10.74572 0.40124,-0.0899 0.80182,-0.17968 1.2011,-0.27473 0.0946,-0.0195 0.17783,-0.0419 0.27473,-0.0613 l -0.012,-0.004 c 1.51181,-0.36471 3.00737,-0.76975 4.48885,-1.20989 l -0.015,0.0176 c 0.24742,-0.0844 0.47288,-0.15189 0.70721,-0.22504 0.22424,-0.0686 0.44867,-0.1342 0.67217,-0.2046 6.01724,-1.68795 7.60922,0.69969 11.6517,5.70164 l 2.10122,2.77048 c 5.86234,7.8835 8.45384,6.72857 15.39824,2.61556 7.03415,-3.95753 9.32891,-5.62557 5.43278,-14.64426 l -1.34724,-3.20294 c -2.47845,-6.43775 -3.76813,-8.92876 1.94927,-13.92245 l -0.15199,0.0351 c 1.18173,-1.12009 2.33133,-2.27263 3.4514,-3.45432 l -0.0321,0.15198 c 4.99368,-5.71737 7.4846,-4.42767 13.9224,-1.94926 l 3.20299,1.35015 c 9.01867,3.89613 10.68669,1.60137 14.64426,-5.43278 4.11296,-6.9444 5.26792,-9.53882 -2.61554,-15.40116 l -2.77049,-2.10124 c -5.00196,-4.04246 -7.38962,-5.63445 -5.70164,-11.65167 0.0703,-0.22348 0.13588,-0.44797 0.2046,-0.67218 0.0732,-0.23434 0.13766,-0.45976 0.22207,-0.70723 l -0.015,0.0151 c 0.44015,-1.48147 0.84513,-2.97707 1.20986,-4.48885 l 0.004,0.0119 c 0.0189,-0.0969 0.0418,-0.18033 0.0613,-0.27471 0.0952,-0.39925 0.18502,-0.79983 0.27471,-1.20113 1.55086,-5.988 4.41673,-6.1784 10.74576,-7.17455 l 3.44846,-0.43252 c 9.75846,-1.13516 10.0581,-3.95816 9.96836,-12.02866 0.0899,-8.07051 -0.20988,-10.89348 -9.96836,-12.0287 l -3.44846,-0.43253 c -6.32903,-0.9961 -9.1949,-1.1865 -10.74576,-7.17453 -0.0897,-0.40128 -0.17967,-0.80184 -0.27471,-1.20111 -0.0195,-0.0946 -0.0419,-0.17788 -0.0613,-0.27473 l -0.004,0.0119 c -0.36473,-1.51178 -0.7697,-3.00738 -1.20986,-4.48883 l 0.0176,0.015 c -0.0844,-0.2474 -0.15189,-0.47289 -0.22503,-0.70722 -0.0687,-0.22421 -0.13421,-0.44866 -0.20457,-0.67215 -1.68797,-6.01725 0.69969,-7.6092 5.70163,-11.65171 l 2.77046,-2.10122 c 7.88352,-5.86234 6.72855,-8.45384 2.61556,-15.39824 -2.72081,-4.83596 -4.35899,-7.43316 -8.04834,-7.31775 -1.67695,0.0525 -3.77759,0.66742 -6.59592,1.88497 l -3.20296,1.34724 c -6.43771,2.47843 -8.92875,3.76814 -13.92244,-1.94927 l 0.0348,0.15198 c -1.12007,-1.18172 -2.2726,-2.3313 -3.45431,-3.4514 l 0.15198,0.0322 c -5.71737,-4.99367 -4.42768,-7.48462 -1.94929,-13.92242 l 1.35019,-3.20297 c 3.89613,-9.01869 1.60136,-10.686716 -5.43279,-14.644256 -3.47219,-2.05648 -5.85758,-3.37402 -8.10681,-3.19129 -2.24919,0.18274 -4.3632,1.86511 -7.29435,5.80686 l -2.10121,2.770446 c -4.0425,5.00196 -5.63444,7.38961 -11.65173,5.70165 -0.22347,-0.0704 -0.44793,-0.13598 -0.67215,-0.20457 -0.23432,-0.0732 -0.4598,-0.13754 -0.70723,-0.22211 l 0.0151,0.0147 c -1.48148,-0.44015 -2.97703,-0.84517 -4.48884,-1.20988 l 0.0119,-0.003 c -0.0969,-0.019 -0.18035,-0.0418 -0.27473,-0.0614 -0.39925,-0.095 -0.79983,-0.18502 -1.2011,-0.27471 -5.98801,-1.55085 -6.17841,-4.416736 -7.17455,-10.745746 l -0.43249,-3.44843 c -1.13461,-9.758428 -3.9576,-10.058083 -12.02812,-9.968342 z m -0.0176,46.37592 c 0.006,-1e-5 0.0119,-1e-5 0.0176,0 7.57912,4.5e-4 14.90416,1.30914 21.74868,3.71148 a 17.955363,17.955363 0 0 0 8.17692,10.29277 17.955363,17.955363 0 0 0 12.97266,1.93172 c 10.77821,9.26302 18.59847,22.00088 21.60544,36.73192 0.75775,3.71083 -2.0779,7.18372 -5.86532,7.18329 h -18.52228 c -2.64728,2.5e-4 -4.98034,-1.7385 -5.73671,-4.27546 -4.53986,-15.22717 -18.47699,-25.6255 -34.36475,-25.6472 -2.79136,0.0151 -5.57257,0.35221 -8.28507,1.01116 -2.58151,0.62691 -5.26735,-0.52262 -6.59592,-2.82305 l -9.24653,-16.01196 c -1.88968,-3.27476 -0.30754,-7.45951 3.276,-8.66498 6.71034,-2.2587 13.73912,-3.42024 20.81936,-3.43969 z m -39.36201,15.106 c 2.03659,0.0954 3.88456,1.22096 4.90383,2.98672 l 9.24655,16.01196 c 1.32488,2.2945 0.98368,5.18699 -0.83874,7.11022 -6.30358,6.65343 -9.82401,15.4593 -9.84272,24.62436 0.0106,9.17029 3.52434,17.98438 9.8281,24.64478 1.82103,1.92274 2.16217,4.81351 0.83874,7.10734 l -9.22023,15.97395 c -1.89259,3.27837 -6.31497,3.99874 -9.15012,1.49046 -11.00997,-9.73637 -18.33552,-22.80094 -21.04144,-37.01835 a 17.955363,17.955363 0 0 0 4.80447,-12.20111 17.955363,17.955363 0 0 0 -4.80739,-12.19528 c 2.70003,-14.22384 10.02104,-27.29582 21.03268,-37.03877 1.16677,-1.03235 2.69007,-1.56915 4.24627,-1.49628 z m 79.51035,56.71546 h 18.44637 c 3.78734,-3.7e-4 6.62302,3.47251 5.86529,7.18331 -3.00523,14.7223 -10.81849,27.45519 -21.58799,36.7173 a 17.955363,17.955363 0 0 0 -4.37485,-0.45296 17.955363,17.955363 0 0 0 -8.55392,2.39931 17.955363,17.955363 0 0 0 -8.15938,10.26648 c -6.84642,2.41268 -14.17602,3.72954 -21.76035,3.73777 -0.007,5e-5 -0.0186,5e-5 -0.0292,0 -7.07718,-0.0282 -14.10269,-1.19811 -20.80765,-3.46306 -3.57928,-1.20847 -5.15782,-5.38971 -3.27018,-8.66209 l 9.23191,-15.9915 c 1.32859,-2.30039 4.01442,-3.44994 6.59594,-2.82305 2.71424,0.65941 5.49771,0.99622 8.29089,1.01116 15.89245,-0.0163 29.83527,-10.41556 34.37647,-25.64717 0.75637,-2.53695 3.08939,-4.27573 5.73672,-4.2755 z"
         id="path4356-2"
         clip-path="url(#clipPath1014)"
         transform="translate(392.67995,-64.58266)" />
      <path
         inkscape:connector-curvature="0"
         style="color:#000000;display:inline;overflow:visible;visibility:visible;opacity:1;fill:#cecece;fill-opacity:1;fill-rule:nonzero;stroke:none;stroke-width:5.88999224;stroke-linecap:butt;stroke-linejoin:miter;stroke-miterlimit:4;stroke-dasharray:17.66997727, 17.66997727;stroke-dashoffset:0;stroke-opacity:1;marker:none;enable-background:accumulate"
         d="m 128.2217,49.971314 c -36.822026,0 -67.668624,25.619729 -75.731644,59.991476 a 17.955363,17.955363 0 0 1 11.073058,5.61982 c 2.700022,-14.22384 10.021038,-27.295823 21.032673,-37.038775 1.16677,-1.032345 2.690072,-1.569151 4.246277,-1.496282 2.036588,0.09545 3.884553,1.220966 4.903822,2.986725 l 9.246554,16.011955 c 1.32488,2.294505 0.98368,5.186997 -0.83874,7.110227 -6.303583,6.65343 -9.824014,15.4593 -9.842718,24.62436 0.01056,9.17029 3.524342,17.98438 9.828098,24.64478 1.82103,1.92274 2.16217,4.81351 0.83874,7.10734 l -9.220234,15.97395 c -1.892586,3.27837 -6.314962,3.99874 -9.150113,1.49046 C 73.597497,167.26098 66.271951,154.19641 63.566032,139.979 a 17.955363,17.955363 0 0 1 -11.073059,5.61984 c 8.065279,34.36864 38.908915,59.98562 75.728727,59.98562 7.80401,0 15.33548,-1.16188 22.44421,-3.30233 a 17.955363,17.955363 0 0 1 -0.67798,-12.40567 c -6.84642,2.41268 -14.17602,3.72954 -21.76035,3.73777 -0.007,5e-5 -0.0187,5e-5 -0.0292,0 -7.07718,-0.0282 -14.10269,-1.19811 -20.80765,-3.46306 -3.57928,-1.20847 -5.15782,-5.38971 -3.27018,-8.66209 l 9.23191,-15.9915 c 1.32859,-2.30039 4.01442,-3.44994 6.59594,-2.82305 2.71424,0.65941 5.49771,0.99622 8.29089,1.01116 15.89245,-0.0163 29.83527,-10.41556 34.37647,-25.64717 0.75637,-2.53695 3.08939,-4.27573 5.73672,-4.2755 h 18.44633 c 3.78736,-3.7e-4 6.62304,3.47251 5.86531,7.18331 -3.00522,14.7223 -10.81849,27.45519 -21.58799,36.7173 a 17.955363,17.955363 0 0 1 10.43307,6.76834 c 15.08342,-14.1931 24.51909,-34.32084 24.51909,-56.65408 0,-22.33772 -9.43916,-42.469299 -24.52791,-56.66285 a 17.955363,17.955363 0 0 1 -10.38042,6.762483 c 10.77822,9.263024 18.59848,22.000883 21.60545,36.731927 0.75775,3.71083 -2.07792,7.18372 -5.86531,7.18329 h -18.52226 c -2.64728,2.5e-4 -4.98034,-1.7385 -5.73672,-4.27546 -4.53985,-15.22717 -18.47697,-25.625505 -34.36475,-25.647202 -2.79136,0.0151 -5.57257,0.352211 -8.28507,1.011157 -2.58149,0.626911 -5.26734,-0.522621 -6.59593,-2.823046 l -9.24655,-16.011964 c -1.8897,-3.27476 -0.30754,-7.459512 3.276,-8.664976 6.71033,-2.258707 13.73912,-3.420244 20.81934,-3.439693 0.006,-1.4e-5 0.0119,-1.4e-5 0.0175,0 7.57913,4.48e-4 14.90417,1.309142 21.74868,3.711479 a 17.955363,17.955363 0 0 1 0.68674,-12.382305 c -7.10609,-2.138738 -14.63453,-3.299416 -22.43536,-3.299416 z m 0,53.866096 a 23.940484,23.940484 0 0 1 23.9405,23.94048 23.940484,23.940484 0 0 1 -23.9405,23.94049 23.940484,23.940484 0 0 1 -23.94046,-23.94049 23.940484,23.940484 0 0 1 23.94046,-23.94048 z"
         id="path4451" />
      <path
         inkscape:connector-curvature="0"
         style="display:inline;opacity:1;fill:#b3b3b3;fill-opacity:1;stroke:none;stroke-width:4.48884106;stroke-linecap:round;stroke-linejoin:round;stroke-miterlimit:4;stroke-dasharray:none;stroke-dashoffset:0;stroke-opacity:1;enable-background:new"
         d="m 166.70123,51.426685 a 8.9776818,8.9776818 0 0 0 -7.34987,4.480075 8.9776818,8.9776818 0 0 0 3.28479,12.262477 8.9776818,8.9776818 0 0 0 12.26249,-3.284797 8.9776818,8.9776818 0 0 0 -3.28481,-12.265415 8.9776818,8.9776818 0 0 0 -4.9126,-1.19234 z M 50.415135,118.80022 a 8.9776818,8.9776818 0 0 0 -8.977684,8.97767 8.9776818,8.9776818 0 0 0 8.977684,8.97769 8.9776818,8.9776818 0 0 0 8.97768,-8.97769 8.9776818,8.9776818 0 0 0 -8.97768,-8.97767 z m 116.499445,67.38521 a 8.9776818,8.9776818 0 0 0 -4.27843,1.2011 8.9776818,8.9776818 0 0 0 -3.28479,12.26248 8.9776818,8.9776818 0 0 0 12.26247,3.28482 8.9776818,8.9776818 0 0 0 3.28481,-12.26251 8.9776818,8.9776818 0 0 0 -7.98406,-4.48589 z"
         id="circle1245" />
    </g>
  </g>
</svg>
