<?xml version="1.0" encoding="UTF-8" standalone="no"?>
<!-- Created with Inkscape (http://www.inkscape.org/) -->

<svg
   xmlns:dc="http://purl.org/dc/elements/1.1/"
   xmlns:cc="http://creativecommons.org/ns#"
   xmlns:rdf="http://www.w3.org/1999/02/22-rdf-syntax-ns#"
   xmlns:svg="http://www.w3.org/2000/svg"
   xmlns="http://www.w3.org/2000/svg"
   xmlns:xlink="http://www.w3.org/1999/xlink"
   xmlns:sodipodi="http://sodipodi.sourceforge.net/DTD/sodipodi-0.dtd"
   xmlns:inkscape="http://www.inkscape.org/namespaces/inkscape"
   width="256px"
   height="256px"
   viewBox="0 0 256 256"
   version="1.1"
   id="SVGRoot"
   inkscape:version="0.92.3 (2405546, 2018-03-11)"
   sodipodi:docname="software-store.svg">
  <sodipodi:namedview
     id="base"
     pagecolor="#ffffff"
     bordercolor="#666666"
     borderopacity="1.0"
     inkscape:pageopacity="0.0"
     inkscape:pageshadow="2"
     inkscape:zoom="0.5"
     inkscape:cx="-129.652"
     inkscape:cy="-115.13265"
     inkscape:document-units="px"
     inkscape:current-layer="layer3"
     showgrid="false"
     inkscape:window-width="1299"
     inkscape:window-height="704"
     inkscape:window-x="67"
     inkscape:window-y="27"
     inkscape:window-maximized="1"
     inkscape:grid-bbox="true"
     inkscape:snap-bbox="true"
     inkscape:snap-page="true"
     inkscape:bbox-paths="true"
     inkscape:snap-bbox-edge-midpoints="true"
     inkscape:bbox-nodes="true"
     inkscape:snap-bbox-midpoints="true" />
  <defs
     id="defs848">
    <linearGradient
       id="linearGradient905">
      <stop
         style="stop-color:#f34f17;stop-opacity:1"
         offset="0"
         id="stop903" />
      <stop
         style="stop-color:#f37e40;stop-opacity:1"
         offset="1"
         id="stop901" />
    </linearGradient>
    <clipPath
       clipPathUnits="userSpaceOnUse"
       id="clipPath1082-3">
      <path
         sodipodi:nodetypes="sssssssss"
         inkscape:connector-curvature="0"
         id="path1084-6"
         d="M 361.9375,-212 C 507.2348,-212 528,-191.28677 528,-46.125 V 70.125 C 528,215.28618 507.2348,236 361.9375,236 H 214.0625 C 68.7652,236 48,215.28618 48,70.125 V -46.125 C 48,-191.28677 68.7652,-212 214.0625,-212 Z"
         style="display:inline;opacity:1;fill:#8c59d9;fill-opacity:1;stroke:none;stroke-width:2;stroke-linecap:round;stroke-linejoin:round;stroke-miterlimit:4;stroke-dasharray:none;stroke-dashoffset:0;stroke-opacity:1;enable-background:new" />
    </clipPath>
    <clipPath
       clipPathUnits="userSpaceOnUse"
       id="clipPath1025">
      <path
         style="opacity:1;fill:#8c59d9;fill-opacity:1;stroke:none;stroke-width:2;stroke-linecap:round;stroke-linejoin:round;stroke-miterlimit:4;stroke-dasharray:none;stroke-dashoffset:0;stroke-opacity:1"
         d="M 329.9375,32 C 475.2348,32 496,52.71323 496,197.875 v 116.25 C 496,459.28618 475.2348,480 329.9375,480 H 182.0625 C 36.7652,480 16,459.28618 16,314.125 V 197.875 C 16,52.71323 36.7652,32 182.0625,32 Z"
         id="path1027"
         inkscape:connector-curvature="0"
         sodipodi:nodetypes="sssssssss" />
    </clipPath>
    <clipPath
       clipPathUnits="userSpaceOnUse"
       id="clipPath4277-8">
      <rect
         style="color:#000000;display:inline;overflow:visible;visibility:visible;opacity:0.81999972;fill:#88b637;fill-opacity:1;fill-rule:nonzero;stroke:none;stroke-width:2;stroke-linecap:butt;stroke-linejoin:miter;stroke-miterlimit:4;stroke-dasharray:none;stroke-dashoffset:0;stroke-opacity:1;marker:none;enable-background:accumulate"
         id="rect4279-6"
         width="512"
         height="512"
         x="5.5999999e-07"
         y="0"
         ry="1" />
    </clipPath>
    <linearGradient
       id="linearGradient3650-7-9">
      <stop
         style="stop-color:#5884f4;stop-opacity:1"
         offset="0"
         id="stop4366" />
      <stop
         id="stop4368"
         offset="1"
         style="stop-color:#80a3fa;stop-opacity:1" />
    </linearGradient>
    <clipPath
       clipPathUnits="userSpaceOnUse"
       id="clipPath1082-3-3">
      <path
         sodipodi:nodetypes="sssssssss"
         inkscape:connector-curvature="0"
         id="path1084-6-5"
         d="M 361.9375,-212 C 507.2348,-212 528,-191.28677 528,-46.125 V 70.125 C 528,215.28618 507.2348,236 361.9375,236 H 214.0625 C 68.7652,236 48,215.28618 48,70.125 V -46.125 C 48,-191.28677 68.7652,-212 214.0625,-212 Z"
         style="display:inline;opacity:1;fill:#8c59d9;fill-opacity:1;stroke:none;stroke-width:2;stroke-linecap:round;stroke-linejoin:round;stroke-miterlimit:4;stroke-dasharray:none;stroke-dashoffset:0;stroke-opacity:1;enable-background:new" />
    </clipPath>
    <clipPath
       clipPathUnits="userSpaceOnUse"
       id="clipPath1082-3-3-6">
      <path
         sodipodi:nodetypes="sssssssss"
         inkscape:connector-curvature="0"
         id="path1084-6-5-2"
         d="M 361.9375,-212 C 507.2348,-212 528,-191.28677 528,-46.125 V 70.125 C 528,215.28618 507.2348,236 361.9375,236 H 214.0625 C 68.7652,236 48,215.28618 48,70.125 V -46.125 C 48,-191.28677 68.7652,-212 214.0625,-212 Z"
         style="display:inline;opacity:1;fill:#8c59d9;fill-opacity:1;stroke:none;stroke-width:2;stroke-linecap:round;stroke-linejoin:round;stroke-miterlimit:4;stroke-dasharray:none;stroke-dashoffset:0;stroke-opacity:1;enable-background:new" />
    </clipPath>
    <clipPath
       clipPathUnits="userSpaceOnUse"
       id="clipPath1082-3-36">
      <path
         sodipodi:nodetypes="sssssssss"
         inkscape:connector-curvature="0"
         id="path1084-6-7"
         d="M 361.9375,-212 C 507.2348,-212 528,-191.28677 528,-46.125 V 70.125 C 528,215.28618 507.2348,236 361.9375,236 H 214.0625 C 68.7652,236 48,215.28618 48,70.125 V -46.125 C 48,-191.28677 68.7652,-212 214.0625,-212 Z"
         style="display:inline;opacity:1;fill:#8c59d9;fill-opacity:1;stroke:none;stroke-width:2;stroke-linecap:round;stroke-linejoin:round;stroke-miterlimit:4;stroke-dasharray:none;stroke-dashoffset:0;stroke-opacity:1;enable-background:new" />
    </clipPath>
    <linearGradient
       gradientTransform="translate(-23.999992,-28.000026)"
       inkscape:collect="always"
       xlink:href="#linearGradient7537"
       id="linearGradient947"
       x1="208"
       y1="284"
       x2="96"
       y2="28"
       gradientUnits="userSpaceOnUse" />
    <linearGradient
       id="linearGradient7537">
      <stop
         style="stop-color:#f37e40;stop-opacity:1"
         offset="0"
         id="stop7539" />
      <stop
         style="stop-color:#f34f17;stop-opacity:1"
         offset="1"
         id="stop7541" />
    </linearGradient>
    <filter
       inkscape:collect="always"
       style="color-interpolation-filters:sRGB"
       id="filter936"
       x="-0.0070588236"
       width="1.0141176"
       y="-0.039999999"
       height="1.08">
      <feGaussianBlur
         inkscape:collect="always"
         stdDeviation="0.65882344"
         id="feGaussianBlur938" />
    </filter>
    <filter
       inkscape:collect="always"
       style="color-interpolation-filters:sRGB"
       id="filter959"
       x="-0.014117647"
       width="1.0282353"
       y="-0.079999998"
       height="1.16">
      <feGaussianBlur
         inkscape:collect="always"
         stdDeviation="1.3176469"
         id="feGaussianBlur961" />
    </filter>
    <linearGradient
       inkscape:collect="always"
       xlink:href="#linearGradient905"
       id="linearGradient985"
       x1="84.145706"
       y1="0"
       x2="172.53406"
       y2="256"
       gradientUnits="userSpaceOnUse" />
    <filter
       inkscape:collect="always"
       style="color-interpolation-filters:sRGB"
       id="filter1011"
       x="-0.01216914"
       width="1.0243383"
       y="-0.011835498"
       height="1.023671">
      <feGaussianBlur
         inkscape:collect="always"
         stdDeviation="1.1046453"
         id="feGaussianBlur1013" />
    </filter>
    <filter
       inkscape:collect="always"
       style="color-interpolation-filters:sRGB"
       id="filter1039"
       x="-0.02433828"
       width="1.0486766"
       y="-0.023670995"
       height="1.047342">
      <feGaussianBlur
         inkscape:collect="always"
         stdDeviation="2.2092905"
         id="feGaussianBlur1041" />
    </filter>
  </defs>
  <metadata
     id="metadata851">
    <rdf:RDF>
      <cc:Work
         rdf:about="">
        <dc:format>image/svg+xml</dc:format>
        <dc:type
           rdf:resource="http://purl.org/dc/dcmitype/StillImage" />
        <dc:title />
      </cc:Work>
    </rdf:RDF>
  </metadata>
  <g
     id="layer1"
     inkscape:groupmode="layer"
     inkscape:label="Icon">
    <g
       inkscape:groupmode="layer"
       id="layer8"
       inkscape:label="Baseplate"
       style="display:none">
      <text
         y="-36.254883"
         xml:space="preserve"
         x="-4.9931641"
         style="font-style:normal;font-variant:normal;font-weight:normal;font-stretch:normal;font-size:18.66666603px;line-height:0%;font-family:Ubuntu;-inkscape-font-specification:Ubuntu;display:inline;fill:#000000;fill-opacity:1;stroke:none;enable-background:new"
         inkscape:label="context"
         id="context"><tspan
           style="font-style:normal;font-variant:normal;font-weight:normal;font-stretch:normal;font-size:18.66666603px;line-height:1.25;font-family:Ubuntu;-inkscape-font-specification:Ubuntu"
           y="-36.254883"
           x="-4.9931641"
           sodipodi:role="line"
           id="tspan3933">apps</tspan></text>
      <text
         y="-36.254883"
         xml:space="preserve"
         x="122.48828"
         style="font-style:normal;font-variant:normal;font-weight:bold;font-stretch:normal;font-size:18.66666603px;line-height:0%;font-family:Ubuntu;-inkscape-font-specification:'Ubuntu Bold';text-align:start;writing-mode:lr-tb;text-anchor:start;display:inline;fill:#000000;fill-opacity:1;stroke:none;enable-background:new"
         inkscape:label="icon-name"
         id="icon-name"><tspan
           style="font-style:normal;font-variant:normal;font-weight:bold;font-stretch:normal;font-size:18.66666603px;line-height:1.25;font-family:Ubuntu;-inkscape-font-specification:'Ubuntu Bold'"
           y="-36.254883"
           x="122.48828"
           sodipodi:role="line"
           id="tspan3937">software-store</tspan></text>
      <rect
         style="display:inline;overflow:visible;visibility:visible;fill:#cdcdcd;fill-opacity:1;fill-rule:nonzero;stroke:none;stroke-width:2;marker:none;enable-background:accumulate"
         id="rect3951"
         width="256"
         height="256"
         x="0"
         y="0"
         inkscape:label="plate" />
    </g>
    <g
       inkscape:groupmode="layer"
       id="layer7"
       inkscape:label="Shadows">
      <path
         sodipodi:nodetypes="cscccccscsccsccccccccsc"
         inkscape:connector-curvature="0"
         id="path937-6"
         style="font-style:normal;font-variant:normal;font-weight:500;font-stretch:normal;font-family:Ubuntu;-inkscape-font-specification:'Ubuntu Medium';display:inline;opacity:0.2;fill:#000000;fill-opacity:1;stroke-width:8.0807991;filter:url(#filter1039);enable-background:new"
         d="m 193.39588,242 c -3.01682,-8.83501 -6.1414,-17.56228 -9.37374,-26.1818 -3.23232,-8.61952 -16.70031,-50.42416 -19.71714,-59.47467 H 90.608107 c -3.016828,9.05051 -16.484825,50.9629 -19.717144,59.79791 C 67.874118,224.76096 64.857289,233.38048 61.84046,242 H 19.497076 C 27.90111,218.08083 35.874161,195.9933 43.416235,175.73747 50.958324,155.48159 58.284922,136.30315 65.396014,118.20215 72.722597,100.10116 79.94145,82.862126 87.052554,66.485041 94.163661,50.107956 101.49027,33.946345 109.03235,18.000237 h 38.46458 c 7.54209,15.946108 14.86869,32.107719 21.97978,48.484804 7.11111,16.377085 14.22222,33.616119 21.33331,51.717109 7.3266,18.101 14.76094,37.27944 22.30302,57.53532 7.75755,20.25583 15.83835,42.34336 24.24238,66.26253 z M 127.45658,61.313328 c -4.95623,11.420861 -10.66667,25.319827 -17.13131,41.696932 -6.24914,16.37709 -12.821544,34.15484 -19.717163,53.33327 H 164.305 C 157.40939,137.1651 150.72927,119.2796 144.26462,102.68703 137.79999,86.094445 132.1973,72.303209 127.45658,61.313328 Z" />
      <path
         sodipodi:nodetypes="cscccccscsccsccccccccsc"
         inkscape:connector-curvature="0"
         id="path937-9"
         style="font-style:normal;font-variant:normal;font-weight:500;font-stretch:normal;font-family:Ubuntu;-inkscape-font-specification:'Ubuntu Medium';display:inline;opacity:0.1;fill:#000000;fill-opacity:1;stroke-width:8.0807991;filter:url(#filter1011);enable-background:new"
         d="m 193.39588,239.99976 c -3.01682,-8.83501 -6.1414,-17.56228 -9.37374,-26.1818 -3.23232,-8.61952 -16.70031,-50.42416 -19.71714,-59.47467 H 90.608107 c -3.016828,9.05051 -16.484825,50.9629 -19.717144,59.79791 -3.016845,8.61952 -6.033674,17.23904 -9.050503,25.85856 H 19.497076 C 27.90111,216.08059 35.874161,193.99306 43.416235,173.73723 50.958324,153.48135 58.284922,134.30291 65.396014,116.20191 72.722597,98.100921 79.94145,80.861885 87.052554,64.4848 94.163661,48.107715 101.49027,31.946104 109.03235,15.999996 h 38.46458 c 7.54209,15.946108 14.86869,32.107719 21.97978,48.484804 7.11111,16.377085 14.22222,33.616121 21.33331,51.71711 7.3266,18.101 14.76094,37.27944 22.30302,57.53532 7.75755,20.25583 15.83835,42.34336 24.24238,66.26253 z M 127.45658,59.313087 c -4.95623,11.420861 -10.66667,25.319827 -17.13131,41.696933 -6.24914,16.37709 -12.821544,34.15484 -19.717163,53.33327 H 164.305 C 157.40939,135.16486 150.72927,117.27936 144.26461,100.68679 137.79999,84.094204 132.1973,70.302968 127.45658,59.313087 Z" />
    </g>
    <g
       inkscape:groupmode="layer"
       id="layer3"
       inkscape:label="Shape"
       style="display:inline">
      <path
         sodipodi:nodetypes="cscccccscsccsccccccccsc"
         inkscape:connector-curvature="0"
         id="path937"
         style="font-style:normal;font-variant:normal;font-weight:500;font-stretch:normal;font-family:Ubuntu;-inkscape-font-specification:'Ubuntu Medium';display:inline;fill:url(#linearGradient985);fill-opacity:1;stroke-width:8.0807991;enable-background:new"
         d="m 193.39589,239.99976 c -3.01682,-8.83501 -6.1414,-17.56228 -9.37374,-26.1818 -3.23232,-8.61952 -16.70031,-50.42416 -19.71714,-59.47467 H 90.608107 c -3.016828,9.05051 -16.484825,50.9629 -19.717144,59.79791 -3.016845,8.61952 -6.033674,17.23904 -9.050503,25.85856 H 19.497076 C 27.90111,216.08059 35.874161,193.99306 43.416235,173.73723 50.958324,153.48135 58.284922,134.30291 65.396014,116.20191 72.722597,98.100925 79.94145,80.861889 87.052554,64.484804 94.163661,48.107719 101.49027,31.946108 109.03235,16 h 38.46459 c 7.54209,15.946108 14.86869,32.107719 21.97978,48.484804 7.11111,16.377085 14.22222,33.616121 21.33331,51.717106 7.3266,18.101 14.76094,37.27944 22.30302,57.53532 7.75755,20.25583 15.83835,42.34336 24.24238,66.26253 z M 127.45658,59.313091 c -4.95623,11.420861 -10.66667,25.319827 -17.13131,41.696929 -6.24914,16.37709 -12.821544,34.15484 -19.717163,53.33327 H 164.30501 C 157.4094,135.16486 150.72928,117.27936 144.26462,100.68679 137.79999,84.094208 132.1973,70.302972 127.45658,59.313091 Z" />
      <path
         style="font-style:normal;font-variant:normal;font-weight:500;font-stretch:normal;font-family:Ubuntu;-inkscape-font-specification:'Ubuntu Medium';display:inline;opacity:0.2;fill:#ffffff;fill-opacity:1;stroke-width:8.0807991;enable-background:new"
         d="m 147.07554,16.000186 v 0.0033 h 0.42094 c -4.1e-4,-8.75e-4 4.1e-4,-0.0023 0,-0.0033 z m 0.42094,0.0033 c -6.80462,14.386925 -13.58649,28.571459 -20.0399,43.309615 4.7071,10.929535 10.41427,24.965102 16.80731,41.373929 6.46464,16.59257 13.14581,34.4774 20.04142,53.65583 3.01682,9.0505 16.48452,50.85559 19.71684,59.47511 3.23234,8.61952 6.3564,17.34704 9.37323,26.18205 h 43.95806 C 228.94941,216.08084 220.8698,193.99422 213.11224,173.73837 205.57016,153.4825 198.13527,134.30508 190.80866,116.20409 183.69757,98.103097 176.58661,80.862959 169.4755,64.485874 162.3648,48.109694 155.03812,31.948734 147.49648,16.003476 Z"
         id="path937-35"
         inkscape:connector-curvature="0"
         sodipodi:nodetypes="ccccccccccccccsc" />
      <rect
         style="color:#000000;display:inline;overflow:visible;visibility:visible;opacity:0.2;fill:#000000;fill-opacity:1;fill-rule:nonzero;stroke:none;stroke-width:3.29411721;stroke-linecap:butt;stroke-linejoin:miter;stroke-miterlimit:4;stroke-dasharray:3.2941172, 3.2941172;stroke-dashoffset:0;stroke-opacity:1;marker:none;filter:url(#filter959);enable-background:accumulate"
         id="rect4270-1"
         width="223.99997"
         height="39.529408"
         x="16.000019"
         y="149.76459"
         ry="19.764704" />
      <rect
         style="color:#000000;display:inline;overflow:visible;visibility:visible;opacity:0.1;fill:#000000;fill-opacity:1;fill-rule:nonzero;stroke:none;stroke-width:3.29411721;stroke-linecap:butt;stroke-linejoin:miter;stroke-miterlimit:4;stroke-dasharray:3.2941172, 3.2941172;stroke-dashoffset:0;stroke-opacity:1;marker:none;filter:url(#filter936);enable-background:accumulate"
         id="rect4270-9"
         width="223.99997"
         height="39.529408"
         x="16.000019"
         y="147.76468"
         ry="19.764704" />
      <rect
         style="color:#000000;display:inline;overflow:visible;visibility:visible;opacity:1;fill:#fcd3c5;fill-opacity:1;fill-rule:nonzero;stroke:none;stroke-width:3.55764699;stroke-linecap:butt;stroke-linejoin:miter;stroke-miterlimit:4;stroke-dasharray:3.55764686, 3.55764686;stroke-dashoffset:0;stroke-opacity:1;marker:none;enable-background:accumulate"
         id="rect4270"
         width="241.91998"
         height="42.691765"
         x="7.0400105"
         y="146.1835"
         ry="21.345882" />
      <path
         style="color:#000000;display:inline;overflow:visible;visibility:visible;opacity:0.4;fill:#fda463;fill-opacity:1;fill-rule:nonzero;stroke:none;stroke-width:3.29411721;stroke-linecap:butt;stroke-linejoin:miter;stroke-miterlimit:4;stroke-dasharray:3.2941172, 3.2941172;stroke-dashoffset:0;stroke-opacity:1;marker:none;enable-background:accumulate"
         d="m 35.764732,160.94117 c -3.649882,0 -6.588234,2.93835 -6.588234,6.58823 0,3.64988 2.938352,6.58824 6.588234,6.58824 h 65.264698 53.32352 66.49999 c 3.30771,0 5.97059,-2.66289 5.97059,-5.9706 v -1.23529 c 0,-3.3077 -2.66288,-5.97058 -5.97059,-5.97058 h -66.49999 -53.32352 z"
         id="rect4272"
         inkscape:connector-curvature="0" />
    </g>
  </g>
</svg>
