<?xml version="1.0" encoding="UTF-8" standalone="no"?>
<!-- Created with Inkscape (http://www.inkscape.org/) -->

<svg
   xmlns:dc="http://purl.org/dc/elements/1.1/"
   xmlns:cc="http://creativecommons.org/ns#"
   xmlns:rdf="http://www.w3.org/1999/02/22-rdf-syntax-ns#"
   xmlns:svg="http://www.w3.org/2000/svg"
   xmlns="http://www.w3.org/2000/svg"
   xmlns:sodipodi="http://sodipodi.sourceforge.net/DTD/sodipodi-0.dtd"
   xmlns:inkscape="http://www.inkscape.org/namespaces/inkscape"
   width="256px"
   height="256px"
   viewBox="0 0 256 256"
   version="1.1"
   id="SVGRoot"
   inkscape:version="0.92.3 (2405546, 2018-03-11)"
   sodipodi:docname="weather-app.svg">
  <sodipodi:namedview
     id="base"
     pagecolor="#ffffff"
     bordercolor="#666666"
     borderopacity="1.0"
     inkscape:pageopacity="0.0"
     inkscape:pageshadow="2"
     inkscape:zoom="1.4142136"
     inkscape:cx="124.5838"
     inkscape:cy="165.78363"
     inkscape:document-units="px"
     inkscape:current-layer="layer3"
     showgrid="false"
     inkscape:window-width="1299"
     inkscape:window-height="704"
     inkscape:window-x="67"
     inkscape:window-y="27"
     inkscape:window-maximized="1"
     inkscape:grid-bbox="true"
     inkscape:snap-bbox="true"
     inkscape:snap-page="true"
     inkscape:bbox-paths="true"
     inkscape:snap-bbox-edge-midpoints="true"
     inkscape:bbox-nodes="true"
     inkscape:snap-bbox-midpoints="true"
     inkscape:snap-global="true" />
  <defs
     id="defs848">
    <clipPath
       clipPathUnits="userSpaceOnUse"
       id="clipPath1082-3">
      <path
         sodipodi:nodetypes="sssssssss"
         inkscape:connector-curvature="0"
         id="path1084-6"
         d="M 361.9375,-212 C 507.2348,-212 528,-191.28677 528,-46.125 V 70.125 C 528,215.28618 507.2348,236 361.9375,236 H 214.0625 C 68.7652,236 48,215.28618 48,70.125 V -46.125 C 48,-191.28677 68.7652,-212 214.0625,-212 Z"
         style="display:inline;opacity:1;fill:#8c59d9;fill-opacity:1;stroke:none;stroke-width:2;stroke-linecap:round;stroke-linejoin:round;stroke-miterlimit:4;stroke-dasharray:none;stroke-dashoffset:0;stroke-opacity:1;enable-background:new" />
    </clipPath>
    <clipPath
       clipPathUnits="userSpaceOnUse"
       id="clipPath1025">
      <path
         style="opacity:1;fill:#8c59d9;fill-opacity:1;stroke:none;stroke-width:2;stroke-linecap:round;stroke-linejoin:round;stroke-miterlimit:4;stroke-dasharray:none;stroke-dashoffset:0;stroke-opacity:1"
         d="M 329.9375,32 C 475.2348,32 496,52.71323 496,197.875 v 116.25 C 496,459.28618 475.2348,480 329.9375,480 H 182.0625 C 36.7652,480 16,459.28618 16,314.125 V 197.875 C 16,52.71323 36.7652,32 182.0625,32 Z"
         id="path1027"
         inkscape:connector-curvature="0"
         sodipodi:nodetypes="sssssssss" />
    </clipPath>
    <clipPath
       clipPathUnits="userSpaceOnUse"
       id="clipPath4277-8">
      <rect
         style="color:#000000;display:inline;overflow:visible;visibility:visible;opacity:0.81999972;fill:#88b637;fill-opacity:1;fill-rule:nonzero;stroke:none;stroke-width:2;stroke-linecap:butt;stroke-linejoin:miter;stroke-miterlimit:4;stroke-dasharray:none;stroke-dashoffset:0;stroke-opacity:1;marker:none;enable-background:accumulate"
         id="rect4279-6"
         width="512"
         height="512"
         x="5.5999999e-07"
         y="0"
         ry="1" />
    </clipPath>
    <linearGradient
       id="linearGradient3650-7-9">
      <stop
         style="stop-color:#5884f4;stop-opacity:1"
         offset="0"
         id="stop4366" />
      <stop
         id="stop4368"
         offset="1"
         style="stop-color:#80a3fa;stop-opacity:1" />
    </linearGradient>
    <clipPath
       clipPathUnits="userSpaceOnUse"
       id="clipPath1082-3-3">
      <path
         sodipodi:nodetypes="sssssssss"
         inkscape:connector-curvature="0"
         id="path1084-6-5"
         d="M 361.9375,-212 C 507.2348,-212 528,-191.28677 528,-46.125 V 70.125 C 528,215.28618 507.2348,236 361.9375,236 H 214.0625 C 68.7652,236 48,215.28618 48,70.125 V -46.125 C 48,-191.28677 68.7652,-212 214.0625,-212 Z"
         style="display:inline;opacity:1;fill:#8c59d9;fill-opacity:1;stroke:none;stroke-width:2;stroke-linecap:round;stroke-linejoin:round;stroke-miterlimit:4;stroke-dasharray:none;stroke-dashoffset:0;stroke-opacity:1;enable-background:new" />
    </clipPath>
    <clipPath
       clipPathUnits="userSpaceOnUse"
       id="clipPath1082-3-3-6">
      <path
         sodipodi:nodetypes="sssssssss"
         inkscape:connector-curvature="0"
         id="path1084-6-5-2"
         d="M 361.9375,-212 C 507.2348,-212 528,-191.28677 528,-46.125 V 70.125 C 528,215.28618 507.2348,236 361.9375,236 H 214.0625 C 68.7652,236 48,215.28618 48,70.125 V -46.125 C 48,-191.28677 68.7652,-212 214.0625,-212 Z"
         style="display:inline;opacity:1;fill:#8c59d9;fill-opacity:1;stroke:none;stroke-width:2;stroke-linecap:round;stroke-linejoin:round;stroke-miterlimit:4;stroke-dasharray:none;stroke-dashoffset:0;stroke-opacity:1;enable-background:new" />
    </clipPath>
    <clipPath
       clipPathUnits="userSpaceOnUse"
       id="clipPath1082-3-36">
      <path
         sodipodi:nodetypes="sssssssss"
         inkscape:connector-curvature="0"
         id="path1084-6-7"
         d="M 361.9375,-212 C 507.2348,-212 528,-191.28677 528,-46.125 V 70.125 C 528,215.28618 507.2348,236 361.9375,236 H 214.0625 C 68.7652,236 48,215.28618 48,70.125 V -46.125 C 48,-191.28677 68.7652,-212 214.0625,-212 Z"
         style="display:inline;opacity:1;fill:#8c59d9;fill-opacity:1;stroke:none;stroke-width:2;stroke-linecap:round;stroke-linejoin:round;stroke-miterlimit:4;stroke-dasharray:none;stroke-dashoffset:0;stroke-opacity:1;enable-background:new" />
    </clipPath>
    <clipPath
       clipPathUnits="userSpaceOnUse"
       id="clipPath1083">
      <path
         sodipodi:nodetypes="sssssssss"
         inkscape:connector-curvature="0"
         id="path1085"
         d="M 188.96875,44 C 261.6174,44 272,54.356615 272,126.9375 v 58.125 C 272,257.64309 261.6174,268 188.96875,268 h -73.9375 C 42.3826,268 32,257.64309 32,185.0625 v -58.125 C 32,54.356615 42.3826,44 115.03125,44 Z"
         style="opacity:1;fill:#46a926;fill-opacity:1;stroke:none;stroke-width:2;stroke-linecap:round;stroke-linejoin:round;stroke-miterlimit:4;stroke-dasharray:none;stroke-dashoffset:0;stroke-opacity:1" />
    </clipPath>
    <clipPath
       clipPathUnits="userSpaceOnUse"
       id="clipPath4382">
      <path
         style="color:#000000;display:inline;overflow:visible;visibility:visible;opacity:1;fill:#fac82e;fill-opacity:1;fill-rule:nonzero;stroke:none;stroke-width:3;stroke-linecap:butt;stroke-linejoin:miter;stroke-miterlimit:4;stroke-dasharray:none;stroke-dashoffset:0;stroke-opacity:1;marker:none;enable-background:accumulate"
         d="M 545.38086,104.41016 521.92969,145.0293 H 475.0293 v 46.90039 L 434.41016,215.38086 457.86133,256 l -23.45117,40.61914 70.35351,40.61719 40.61719,70.35351 L 586,384.13867 626.61914,407.58984 667.23633,337.23633 737.58984,296.61914 714.13867,256 737.58984,215.38086 667.23633,174.76367 626.61914,104.41016 586,127.86133 Z"
         id="path4384"
         inkscape:connector-curvature="0" />
    </clipPath>
    <filter
       inkscape:collect="always"
       style="color-interpolation-filters:sRGB"
       id="filter4422"
       x="-0.059999999"
       width="1.12"
       y="-0.060000002"
       height="1.12">
      <feGaussianBlur
         inkscape:collect="always"
         stdDeviation="5.5485984"
         id="feGaussianBlur4424" />
    </filter>
    <filter
       inkscape:collect="always"
       style="color-interpolation-filters:sRGB"
       id="filter1369"
       x="-0.050869565"
       width="1.101739"
       y="-0.073124997"
       height="1.14625">
      <feGaussianBlur
         inkscape:collect="always"
         stdDeviation="1.95"
         id="feGaussianBlur1371" />
    </filter>
    <filter
       inkscape:collect="always"
       style="color-interpolation-filters:sRGB"
       id="filter939"
       x="-0.012"
       width="1.024"
       y="-0.012"
       height="1.024">
      <feGaussianBlur
         inkscape:collect="always"
         stdDeviation="1.1199999"
         id="feGaussianBlur941" />
    </filter>
    <filter
       inkscape:collect="always"
       style="color-interpolation-filters:sRGB"
       id="filter964"
       x="-0.024"
       width="1.048"
       y="-0.024"
       height="1.048">
      <feGaussianBlur
         inkscape:collect="always"
         stdDeviation="2.2399998"
         id="feGaussianBlur966" />
    </filter>
  </defs>
  <metadata
     id="metadata851">
    <rdf:RDF>
      <cc:Work
         rdf:about="">
        <dc:format>image/svg+xml</dc:format>
        <dc:type
           rdf:resource="http://purl.org/dc/dcmitype/StillImage" />
        <dc:title></dc:title>
      </cc:Work>
    </rdf:RDF>
  </metadata>
  <g
     id="layer1"
     inkscape:groupmode="layer"
     inkscape:label="Icon">
    <g
       inkscape:groupmode="layer"
       id="layer8"
       inkscape:label="Baseplate"
       style="display:none">
      <text
         y="-36.254883"
         xml:space="preserve"
         x="-4.9931641"
         style="font-style:normal;font-variant:normal;font-weight:normal;font-stretch:normal;font-size:18.66666603px;line-height:0%;font-family:Ubuntu;-inkscape-font-specification:Ubuntu;display:inline;fill:#000000;fill-opacity:1;stroke:none;enable-background:new"
         inkscape:label="context"
         id="context"><tspan
           style="font-style:normal;font-variant:normal;font-weight:normal;font-stretch:normal;font-size:18.66666603px;line-height:1.25;font-family:Ubuntu;-inkscape-font-specification:Ubuntu"
           y="-36.254883"
           x="-4.9931641"
           sodipodi:role="line"
           id="tspan3933">apps</tspan></text>
      <text
         y="-36.254883"
         xml:space="preserve"
         x="122.48828"
         style="font-style:normal;font-variant:normal;font-weight:bold;font-stretch:normal;font-size:18.66666603px;line-height:0%;font-family:Ubuntu;-inkscape-font-specification:'Ubuntu Bold';text-align:start;writing-mode:lr-tb;text-anchor:start;display:inline;fill:#000000;fill-opacity:1;stroke:none;enable-background:new"
         inkscape:label="icon-name"
         id="icon-name"><tspan
           style="font-style:normal;font-variant:normal;font-weight:bold;font-stretch:normal;font-size:18.66666603px;line-height:1.25;font-family:Ubuntu;-inkscape-font-specification:'Ubuntu Bold'"
           y="-36.254883"
           x="122.48828"
           sodipodi:role="line"
           id="tspan3937">weather-app</tspan></text>
      <rect
         style="display:inline;overflow:visible;visibility:visible;fill:#cdcdcd;fill-opacity:1;fill-rule:nonzero;stroke:none;stroke-width:2;marker:none;enable-background:accumulate"
         id="rect3951"
         width="256"
         height="256"
         x="0"
         y="0"
         inkscape:label="plate" />
    </g>
    <g
       inkscape:groupmode="layer"
       id="layer7"
       inkscape:label="Shadows">
      <path
         style="display:inline;opacity:0.2;fill:#000000;fill-opacity:1;stroke:none;stroke-width:5.85635853;stroke-linecap:round;stroke-linejoin:round;stroke-miterlimit:4;stroke-dasharray:none;stroke-dashoffset:0;stroke-opacity:1;filter:url(#filter964);enable-background:new"
         d="M 97.13704,18.000012 79.80817,48.01099 H 45.15901 V 82.66015 L 15.14803,99.98902 32.47404,130 15.14803,160.01098 45.15901,177.33699 v 34.65203 H 79.81103 L 97.13703,242 127.14802,224.67398 157.15899,242 174.48785,211.98902 h 34.64919 V 177.33984 L 239.14801,160.01098 221.822,130 239.14801,99.98902 209.13704,82.66301 V 48.01099 H 174.485 L 157.15899,18.000012 127.14802,35.326026 Z"
         id="rect1264-7"
         inkscape:connector-curvature="0" />
      <path
         style="display:inline;opacity:0.1;fill:#000000;fill-opacity:1;stroke:none;stroke-width:5.85635853;stroke-linecap:round;stroke-linejoin:round;stroke-miterlimit:4;stroke-dasharray:none;stroke-dashoffset:0;stroke-opacity:1;filter:url(#filter939);enable-background:new"
         d="M 97.13704,16.000006 79.808172,46.010983 H 45.159005 V 80.660148 L 15.148028,97.989017 32.474042,128 15.148028,158.01098 45.159005,175.33699 v 34.65203 H 79.811027 L 97.137025,240 127.14802,222.67398 157.15899,240 174.48785,209.98902 h 34.64919 V 175.33984 L 239.14801,158.01098 221.822,128 239.14801,97.989017 209.13704,80.663003 V 46.010983 H 174.485 L 157.15899,16.000006 127.14802,33.32602 Z"
         id="rect1264"
         inkscape:connector-curvature="0" />
    </g>
    <g
       inkscape:groupmode="layer"
       id="layer3"
       inkscape:label="Pictogram"
       style="display:inline">
      <a
         id="a968">
        <g
           id="g1262"
           style="display:inline;enable-background:new"
           transform="matrix(1.4641016,0,0,1.4641016,-95.395477,-100.39985)">
          <g
             id="g1103"
             transform="rotate(60,152,156)">
            <rect
               style="opacity:1;fill:#fedf7c;fill-opacity:1;stroke:none;stroke-width:4;stroke-linecap:round;stroke-linejoin:round;stroke-miterlimit:4;stroke-dasharray:none;stroke-dashoffset:0;stroke-opacity:1"
               id="rect1091"
               width="56"
               height="56"
               x="96"
               y="100" />
            <rect
               y="100"
               x="152"
               height="56"
               width="56"
               id="rect1093"
               style="opacity:1;fill:#f9c010;fill-opacity:1;stroke:none;stroke-width:4;stroke-linecap:round;stroke-linejoin:round;stroke-miterlimit:4;stroke-dasharray:none;stroke-dashoffset:0;stroke-opacity:1" />
            <rect
               style="opacity:1;fill:#fbcd42;fill-opacity:1;stroke:none;stroke-width:4;stroke-linecap:round;stroke-linejoin:round;stroke-miterlimit:4;stroke-dasharray:none;stroke-dashoffset:0;stroke-opacity:1"
               id="rect1095"
               width="56"
               height="56"
               x="152"
               y="156" />
            <rect
               y="156"
               x="96"
               height="56"
               width="56"
               id="rect1097"
               style="opacity:1;fill:#fae695;fill-opacity:1;stroke:none;stroke-width:4;stroke-linecap:round;stroke-linejoin:round;stroke-miterlimit:4;stroke-dasharray:none;stroke-dashoffset:0;stroke-opacity:1" />
          </g>
          <g
             transform="rotate(120,152,156)"
             id="g1113">
            <rect
               y="100"
               x="96"
               height="56"
               width="56"
               id="rect1105"
               style="opacity:1;fill:#fbcd42;fill-opacity:1;stroke:none;stroke-width:4;stroke-linecap:round;stroke-linejoin:round;stroke-miterlimit:4;stroke-dasharray:none;stroke-dashoffset:0;stroke-opacity:1" />
            <rect
               style="opacity:1;fill:#f9c010;fill-opacity:1;stroke:none;stroke-width:4;stroke-linecap:round;stroke-linejoin:round;stroke-miterlimit:4;stroke-dasharray:none;stroke-dashoffset:0;stroke-opacity:1"
               id="rect1107"
               width="56"
               height="56"
               x="152"
               y="100" />
            <rect
               y="156"
               x="152"
               height="56"
               width="56"
               id="rect1109"
               style="opacity:1;fill:#fedf7c;fill-opacity:1;stroke:none;stroke-width:4;stroke-linecap:round;stroke-linejoin:round;stroke-miterlimit:4;stroke-dasharray:none;stroke-dashoffset:0;stroke-opacity:1" />
            <rect
               style="opacity:1;fill:#fae695;fill-opacity:1;stroke:none;stroke-width:4;stroke-linecap:round;stroke-linejoin:round;stroke-miterlimit:4;stroke-dasharray:none;stroke-dashoffset:0;stroke-opacity:1"
               id="rect1111"
               width="56"
               height="56"
               x="96"
               y="156" />
          </g>
          <g
             inkscape:groupmode="maskhelper"
             id="g4379"
             clip-path="url(#clipPath4382)"
             style="display:inline;opacity:0.62900002;fill:#e7b108;stroke-width:2;filter:url(#filter4422);enable-background:new"
             transform="matrix(0.5,0,0,0.5,-141,28)">
            <path
               inkscape:connector-curvature="0"
               id="path4349"
               d="m 586,145.02803 a 110.9715,110.9715 0 0 0 -110.93912,110.3083 h -0.0329 V 256 366.97196 H 585.963 v -0.001 a 110.9715,110.9715 0 0 0 0.0369,0.001 110.9715,110.9715 0 0 0 110.93912,-110.30829 h 0.0329 V 256 145.02803 H 586.0369 v 0.001 A 110.9715,110.9715 0 0 0 586,145.02803 Z"
               style="color:#000000;display:inline;overflow:visible;visibility:visible;fill:#e7b108;fill-opacity:1;fill-rule:nonzero;stroke:none;stroke-width:9.98817635;marker:none;enable-background:accumulate" />
          </g>
          <rect
             style="opacity:1;fill:#fbedb3;fill-opacity:1;stroke:none;stroke-width:4;stroke-linecap:round;stroke-linejoin:round;stroke-miterlimit:4;stroke-dasharray:none;stroke-dashoffset:0;stroke-opacity:1"
             id="rect1089"
             width="56"
             height="52"
             x="96"
             y="100" />
          <rect
             y="160"
             x="152"
             height="52"
             width="56"
             id="rect1245"
             style="opacity:1;fill:#f9c010;fill-opacity:1;stroke:none;stroke-width:4;stroke-linecap:round;stroke-linejoin:round;stroke-miterlimit:4;stroke-dasharray:none;stroke-dashoffset:0;stroke-opacity:1" />
          <path
             inkscape:connector-curvature="0"
             id="path4255"
             d="M 151.99997,100 A 55.999764,55.999764 0 0 0 96.01655,155.66509 H 96 V 156 212 h 55.98135 v -5.1e-4 a 55.999764,55.999764 0 0 0 0.0187,5.1e-4 55.999764,55.999764 0 0 0 55.98342,-55.6651 h 0.0166 V 156 100 h -55.98131 v 5.1e-4 A 55.999764,55.999764 0 0 0 152.00006,100 Z"
             style="color:#000000;display:inline;overflow:visible;visibility:visible;fill:#fed965;fill-opacity:1;fill-rule:nonzero;stroke:none;stroke-width:4.99408865;marker:none;enable-background:accumulate" />
          <path
             inkscape:connector-curvature="0"
             id="path1349"
             d="M 152,100 A 55.999764,55.999764 0 0 0 96.015625,155.66602 H 96 V 156 v 1.66602 h 0.01563 A 55.999764,55.999764 0 0 1 152,102 a 55.999764,55.999764 0 0 1 0.0195,0 H 208 v -2 H 152.01953 A 55.999764,55.999764 0 0 0 152,100 Z"
             style="color:#000000;display:inline;overflow:visible;visibility:visible;opacity:0.8;fill:#ffffff;fill-opacity:1;fill-rule:nonzero;stroke:none;stroke-width:4.99408865;marker:none;enable-background:accumulate" />
        </g>
      </a>
      <path
         inkscape:connector-curvature="0"
         id="path1359"
         d="M 166,129 A 32,32 0 0 0 136.33202,149.06836 22,22 0 0 0 116,171 22,22 0 0 0 138,193 H 165.89258 166 186 A 22,22 0 0 0 208,171 22,22 0 0 0 196.59569,151.72266 32,32 0 0 0 166,129 Z"
         style="display:inline;opacity:0.3;fill:#000000;fill-opacity:1;stroke:none;stroke-width:4;stroke-linecap:round;stroke-linejoin:round;stroke-miterlimit:4;stroke-dasharray:none;stroke-dashoffset:0;stroke-opacity:1;filter:url(#filter1369);enable-background:new"
         transform="matrix(1.4641016,0,0,1.4641016,-60.25704,-59.40501)" />
      <path
         style="display:inline;opacity:1;fill:#ecf9fe;fill-opacity:1;stroke:none;stroke-width:5.85640669;stroke-linecap:round;stroke-linejoin:round;stroke-miterlimit:4;stroke-dasharray:none;stroke-dashoffset:0;stroke-opacity:1;enable-background:new"
         d="m 182.78384,128 a 46.851251,46.851251 0 0 0 -43.43695,29.38213 32.210235,32.210235 0 0 0 -29.76815,32.11015 32.210235,32.210235 0 0 0 32.21024,32.21024 h 40.83758 0.15728 29.28202 A 32.210235,32.210235 0 0 0 244.2761,189.49228 32.210235,32.210235 0 0 0 227.57903,161.26828 46.851251,46.851251 0 0 0 182.78384,128 Z"
         id="path1206"
         inkscape:connector-curvature="0" />
      <path
         style="display:inline;opacity:1;fill:#ffffff;fill-opacity:1;stroke:none;stroke-width:5.85640669;stroke-linecap:round;stroke-linejoin:round;stroke-miterlimit:4;stroke-dasharray:none;stroke-dashoffset:0;stroke-opacity:1;enable-background:new"
         d="m 182.78384,128 a 46.851251,46.851251 0 0 0 -43.43695,29.38213 32.210235,32.210235 0 0 0 -29.76815,32.11015 32.210235,32.210235 0 0 0 0.0715,1.43549 32.210235,32.210235 0 0 1 29.69668,-30.61745 46.851251,46.851251 0 0 1 43.43696,-29.38213 46.851251,46.851251 0 0 1 44.7952,33.2683 32.210235,32.210235 0 0 1 16.63699,27.01154 32.210235,32.210235 0 0 0 0.0601,-1.71575 32.210235,32.210235 0 0 0 -16.69706,-28.224 A 46.851251,46.851251 0 0 0 182.78381,128 Z"
         id="path1354"
         inkscape:connector-curvature="0" />
    </g>
  </g>
</svg>
